<svg xmlns="http://www.w3.org/2000/svg" xmlns:xlink="http://www.w3.org/1999/xlink" width="1200" zoomAndPan="magnify" viewBox="0 0 900 899.99999" height="1200" preserveAspectRatio="xMidYMid meet" version="1.0"><defs><clipPath id="0604254019"><path d="M 54 152 L 409 152 L 409 862.273438 L 54 862.273438 Z M 54 152 " clip-rule="nonzero"/></clipPath><clipPath id="b4a6839b02"><path d="M 209 38.023438 L 306 38.023438 L 306 827 L 209 827 Z M 209 38.023438 " clip-rule="nonzero"/></clipPath></defs><g clip-path="url(#0604254019)"><path fill="#e8eee4" d="M 54.042969 355.074219 C 53.765625 320.546875 55.664062 291.171875 64.355469 262.496094 C 71.875 237.699219 84.640625 216.550781 104.988281 200.234375 C 106.691406 198.867188 108.371094 197.417969 109.824219 195.796875 C 129.863281 173.464844 155.527344 161.582031 184.355469 155.542969 C 184.621094 155.488281 184.910156 155.496094 185.164062 155.402344 C 192.785156 152.511719 198.707031 153.863281 204.886719 160.03125 C 213.402344 168.527344 224.652344 172.726562 236.703125 173.789062 C 250.625 175.011719 261.4375 169.382812 267.808594 156.964844 C 270.074219 152.546875 272.558594 151.8125 276.746094 152.332031 C 297.214844 154.851562 315.734375 162 332.96875 173.515625 C 371.742188 199.429688 390.914062 237.972656 403.308594 280.910156 C 407.773438 296.378906 406.152344 312.382812 404.464844 328.171875 C 404.144531 331.175781 403.710938 334.023438 404.179688 337.0625 C 407.601562 359.3125 408.609375 381.722656 408.511719 404.207031 C 408.222656 471.035156 405.648438 537.792969 402.082031 604.515625 C 399.628906 650.449219 397.132812 696.382812 394.851562 742.328125 C 393.46875 770.21875 392.460938 798.132812 391.257812 826.035156 C 391.140625 828.765625 391.097656 831.539062 390.570312 834.203125 C 388.644531 843.980469 384.308594 847.382812 374.800781 849.125 C 355.300781 852.714844 335.558594 852.304688 315.914062 853.5625 C 277.128906 856.035156 238.359375 858.78125 199.582031 861.335938 C 192.480469 861.804688 185.363281 862.109375 178.25 862.167969 C 163.875 862.273438 158.152344 857.453125 153.792969 844.011719 C 143.972656 813.746094 138.875 782.351562 131.050781 751.613281 C 117.417969 698.042969 103.585938 644.523438 90.335938 590.851562 C 76.550781 535.011719 65.214844 478.679688 58.421875 421.507812 C 55.609375 397.824219 54.042969 374.074219 54.042969 355.074219 " fill-opacity="1" fill-rule="nonzero"/></g><path fill="#b1d9d2" d="M 395.292969 296.371094 C 403.226562 296.371094 411.160156 296.386719 419.09375 296.367188 C 428.367188 296.34375 432.566406 300.660156 432.003906 310.128906 C 431.695312 315.3125 430.6875 320.449219 430.289062 325.632812 C 429.746094 332.695312 425.746094 336.285156 419.207031 338.046875 C 411.246094 340.183594 403.140625 341.480469 394.996094 342.402344 C 353.941406 347.046875 312.824219 351.183594 271.816406 356.207031 C 244.128906 359.605469 216.574219 364.117188 188.976562 368.230469 C 149.738281 374.082031 110.527344 380.136719 70.976562 383.546875 C 62.246094 384.304688 53.472656 384.585938 44.71875 383.941406 C 32.257812 383.027344 26.441406 377.382812 25.070312 365.066406 C 24.496094 359.910156 24.625 354.675781 23.0625 349.625 C 21.726562 345.316406 23.648438 342.230469 27.132812 339.828125 C 30.894531 337.234375 35.167969 336.523438 39.589844 336.289062 C 85.277344 333.878906 130.558594 327.605469 175.910156 322.027344 C 212.300781 317.542969 248.675781 312.941406 285.035156 308.214844 C 311.628906 304.761719 338.210938 301.195312 364.984375 299.363281 C 375.085938 298.671875 385.195312 298.054688 395.300781 297.40625 C 395.300781 297.054688 395.296875 296.714844 395.292969 296.371094 " fill-opacity="1" fill-rule="nonzero"/><path fill="#ecda54" d="M 211.792969 847.386719 C 206.328125 847.386719 200.859375 847.433594 195.390625 847.382812 C 181.199219 847.246094 176.421875 843.984375 171.859375 830.4375 C 168.625 820.851562 165.796875 811.117188 163.015625 801.386719 C 147.675781 747.703125 135.238281 693.257812 120.457031 639.433594 C 110.75 604.082031 100.160156 568.96875 89.980469 533.75 C 82.597656 508.21875 77.679688 482.125 72.160156 456.160156 C 71.875 454.828125 71.664062 453.460938 71.582031 452.101562 C 71.289062 447.042969 72.621094 445.125 77.769531 444.273438 C 103.679688 439.996094 129.59375 435.75 155.535156 431.65625 C 190.132812 426.199219 224.839844 421.445312 259.640625 417.515625 C 288.464844 414.253906 317.355469 411.585938 346.195312 408.480469 C 358.464844 407.164062 370.742188 406.34375 383.074219 406.6875 C 392.179688 406.941406 393.585938 408.316406 393.148438 417.511719 C 392.03125 441.03125 390.542969 464.535156 389.523438 488.0625 C 387.796875 528.011719 387.199219 568 387.359375 607.976562 C 387.570312 659.785156 385.285156 711.445312 380.609375 763.027344 C 379.027344 780.472656 378.167969 797.984375 376.910156 815.457031 C 375.976562 828.445312 371.285156 833.257812 358.226562 834.351562 C 344.59375 835.5 330.921875 836.234375 317.292969 837.445312 C 290.578125 839.824219 263.890625 842.457031 237.183594 844.878906 C 228.738281 845.648438 220.261719 846.074219 211.796875 846.660156 C 211.792969 846.90625 211.792969 847.148438 211.792969 847.386719 " fill-opacity="1" fill-rule="nonzero"/><path fill="#ffffff" d="M 118.421875 494.605469 C 117.871094 494.605469 117.324219 494.605469 116.777344 494.539062 C 111.605469 494.054688 106.640625 490.699219 106.742188 487.757812 C 106.914062 482.753906 114.140625 476.417969 119.207031 476.828125 C 124.859375 477.304688 130.066406 482.546875 129.6875 487.445312 C 129.378906 491.660156 124.789062 494.605469 118.421875 494.605469 Z M 136.539062 479.222656 C 130.511719 467.027344 114.277344 464.394531 104.789062 474.085938 C 103.660156 475.25 102.769531 476.65625 101.675781 477.855469 C 95.921875 484.191406 96.058594 491.28125 102.1875 497.105469 C 106.777344 501.457031 112.359375 503.304688 119.652344 503.582031 C 121.84375 503.035156 125.132812 502.550781 128.148438 501.390625 C 137.667969 497.617188 141.058594 488.40625 136.539062 479.222656 " fill-opacity="1" fill-rule="nonzero"/><path fill="#ffffff" d="M 199.964844 819.800781 C 196.746094 819.632812 193.867188 815.488281 194.242188 811.925781 C 194.585938 808.601562 197.15625 808.324219 199.585938 808.324219 C 202.734375 808.324219 204.757812 810.960938 204.515625 814.457031 C 204.3125 817.441406 203.046875 819.59375 199.964844 819.800781 Z M 199.964844 799.691406 C 190.683594 799.558594 185.613281 803.632812 185.476562 811.375 C 185.269531 820.832031 192.15625 829.1875 200.03125 829.015625 C 207.257812 828.84375 213.320312 822.097656 213.421875 814.113281 C 213.523438 806.066406 207.667969 799.796875 199.964844 799.691406 " fill-opacity="1" fill-rule="nonzero"/><path fill="#ffffff" d="M 351.757812 476.242188 C 351.636719 478.765625 350.011719 480.046875 347.570312 480.214844 C 344.246094 480.441406 340.746094 477.273438 340.886719 474.324219 C 340.992188 472.046875 342.402344 470.855469 344.523438 470.605469 C 347.457031 470.261719 351.582031 473.476562 351.757812 476.242188 " fill-opacity="1" fill-rule="nonzero"/><path fill="#ffffff" d="M 373.085938 432.046875 C 373.316406 435.152344 370.757812 438.613281 368.175781 438.546875 C 365.550781 438.472656 364.285156 436.832031 363.960938 434.390625 C 363.515625 431.019531 365.777344 428.0625 368.746094 428.042969 C 371.117188 428.03125 372.914062 429.691406 373.085938 432.046875 " fill-opacity="1" fill-rule="nonzero"/><path fill="#ffffff" d="M 243.351562 816.804688 C 242.90625 819.113281 241.230469 820.203125 238.769531 819.8125 C 235.671875 819.320312 234.023438 817.203125 234.179688 814.167969 C 234.320312 811.480469 235.816406 809.578125 238.84375 809.785156 C 241.246094 809.949219 243.671875 813.6875 243.351562 816.804688 " fill-opacity="1" fill-rule="nonzero"/><path fill="#ffffff" d="M 172.242188 463.886719 C 174.621094 464.175781 176.453125 465.152344 176.351562 467.867188 C 176.238281 470.890625 174.050781 471.964844 171.476562 472.222656 C 168.785156 472.492188 166.484375 470.242188 166.933594 467.863281 C 167.472656 465 169.605469 464.0625 172.242188 463.886719 " fill-opacity="1" fill-rule="nonzero"/><path fill="#ffffff" d="M 182.105469 768.058594 C 184.378906 768.238281 186.15625 769.355469 185.953125 771.984375 C 185.722656 774.996094 183.988281 776.949219 180.777344 776.949219 C 178.574219 776.941406 177.386719 775.53125 177.164062 773.417969 C 176.882812 770.691406 179.203125 768.144531 182.105469 768.058594 " fill-opacity="1" fill-rule="nonzero"/><path fill="#ffffff" d="M 184.308594 739.917969 C 184.226562 742.726562 182.929688 744.765625 180.101562 744.863281 C 177.679688 744.949219 176.164062 743.300781 176.101562 740.757812 C 176.035156 737.949219 177.390625 736.003906 180.265625 735.871094 C 182.824219 735.746094 184.039062 737.503906 184.308594 739.917969 " fill-opacity="1" fill-rule="nonzero"/><path fill="#ffffff" d="M 350.414062 644.171875 C 350.058594 647.011719 348.777344 649.390625 345.585938 649.574219 C 342.988281 649.71875 341.75 647.773438 341.792969 645.339844 C 341.84375 642.605469 343.226562 640.660156 346.09375 640.382812 C 348.636719 640.144531 350.15625 641.4375 350.414062 644.171875 " fill-opacity="1" fill-rule="nonzero"/><path fill="#ffffff" d="M 360.976562 628.695312 C 358.464844 628.269531 357.085938 626.804688 357.089844 624.238281 C 357.097656 621.609375 358.621094 620.015625 361.144531 620.078125 C 363.644531 620.136719 365.152344 621.757812 365.054688 624.398438 C 364.960938 626.953125 363.535156 628.382812 360.976562 628.695312 " fill-opacity="1" fill-rule="nonzero"/><path fill="#ffffff" d="M 150.558594 518.238281 C 152.679688 518.605469 154.21875 519.726562 154.105469 521.988281 C 153.964844 524.871094 152.105469 526.636719 149.308594 526.414062 C 146.894531 526.214844 145.375 524.417969 145.828125 521.800781 C 146.261719 519.28125 148.082031 518.234375 150.558594 518.238281 " fill-opacity="1" fill-rule="nonzero"/><path fill="#ffffff" d="M 270.070312 815.792969 C 269.363281 818.128906 267.722656 819.226562 265.242188 818.609375 C 262.867188 818.011719 261.460938 816.390625 261.917969 813.863281 C 262.394531 811.226562 264.359375 810.441406 266.769531 810.957031 C 269.222656 811.480469 270.398438 813.09375 270.070312 815.792969 " fill-opacity="1" fill-rule="nonzero"/><path fill="#ffffff" d="M 368.960938 476.542969 C 366.535156 476.480469 365.015625 475.277344 365.011719 472.640625 C 365.011719 470.441406 366.203125 469.074219 368.410156 468.9375 C 371.03125 468.773438 372.476562 470.222656 372.484375 472.777344 C 372.484375 474.902344 371.316406 476.285156 368.960938 476.542969 " fill-opacity="1" fill-rule="nonzero"/><path fill="#ffffff" d="M 126.332031 527.855469 C 125.847656 530.25 124.605469 531.859375 121.949219 531.628906 C 119.710938 531.425781 118.578125 529.882812 118.609375 527.777344 C 118.636719 525.675781 119.820312 524.136719 122.039062 523.96875 C 124.699219 523.769531 125.875 525.476562 126.332031 527.855469 " fill-opacity="1" fill-rule="nonzero"/><path fill="#ffffff" d="M 192.535156 731.105469 C 191.871094 733.171875 190.457031 734.234375 188.242188 733.882812 C 186.042969 733.527344 184.746094 732.0625 185.054688 729.902344 C 185.417969 727.359375 187.230469 726.097656 189.78125 726.71875 C 191.875 727.238281 192.882812 728.808594 192.535156 731.105469 " fill-opacity="1" fill-rule="nonzero"/><path fill="#f0af28" d="M 334.246094 769.390625 C 317.289062 788.703125 295.183594 797.832031 269.9375 799.933594 C 266.675781 800.210938 263.371094 799.972656 260.097656 799.972656 C 239.734375 800.777344 221.738281 795.195312 207.640625 779.722656 C 204.675781 776.476562 201.984375 772.996094 200.183594 768.976562 C 197.828125 763.746094 198.484375 759.863281 202.386719 756.304688 C 202.757812 755.960938 203.175781 755.617188 203.621094 755.277344 C 205.082031 754.144531 206.644531 753.160156 208.238281 752.207031 C 208.996094 751.75 209.753906 751.285156 210.511719 750.839844 C 227.304688 740.863281 243.945312 730.632812 260.5 720.269531 C 268.582031 715.21875 276.636719 710.132812 284.691406 705.019531 C 298.472656 696.261719 312.214844 687.433594 325.953125 678.59375 L 325.96875 678.59375 C 327.726562 677.460938 329.464844 676.347656 331.222656 675.230469 C 331.328125 675.152344 331.429688 675.078125 331.535156 675.015625 C 333.144531 673.976562 334.734375 672.832031 336.492188 672.144531 C 339.410156 670.996094 341.761719 671.890625 343.398438 674.734375 C 363.675781 710.027344 358.554688 741.695312 334.246094 769.390625 " fill-opacity="1" fill-rule="nonzero"/><path fill="#ffffff" d="M 337.742188 729.816406 C 336.464844 734.59375 335.046875 739.402344 332.472656 743.574219 C 314.894531 771.890625 290.507812 789.109375 256.214844 789.777344 C 250.644531 789.761719 245.226562 789.132812 239.808594 788.253906 C 222.734375 785.441406 207.742188 772.550781 202.386719 756.304688 C 202.757812 755.960938 203.175781 755.617188 203.621094 755.277344 C 205.082031 754.144531 206.644531 753.160156 208.238281 752.207031 C 208.996094 751.75 209.753906 751.285156 210.511719 750.839844 C 227.304688 740.863281 243.945312 730.632812 260.5 720.269531 C 268.582031 715.21875 276.636719 710.132812 284.691406 705.019531 C 298.472656 696.261719 312.214844 687.433594 325.953125 678.59375 L 325.96875 678.59375 C 327.726562 677.460938 329.464844 676.347656 331.222656 675.230469 C 331.371094 675.511719 331.507812 675.792969 331.609375 676.089844 C 337.800781 693.527344 342.757812 711.097656 337.742188 729.816406 " fill-opacity="1" fill-rule="nonzero"/><path fill="#f0af28" d="M 254.679688 766.597656 C 255.460938 751.628906 260.539062 740.917969 264.75 730.039062 C 267.039062 724.113281 274.371094 723.683594 277.761719 729.015625 C 284.214844 739.164062 289.289062 750.070312 293.132812 761.445312 C 295.453125 768.3125 293.613281 771.382812 286.660156 773.945312 C 282.074219 775.640625 277.390625 777.179688 272.636719 778.304688 C 260.394531 781.21875 254.300781 776.09375 254.679688 766.597656 " fill-opacity="1" fill-rule="nonzero"/><path fill="#f0af28" d="M 325.292969 730.078125 C 325.101562 732.636719 324.488281 735.308594 323.152344 737.726562 C 319.730469 743.9375 316.511719 750.292969 312.65625 756.226562 C 308.226562 763.046875 302.957031 762.914062 298.785156 755.871094 C 293.359375 746.722656 288.4375 737.269531 283.277344 727.960938 C 281.386719 724.550781 281.449219 721.867188 284.050781 718.332031 C 286.691406 714.738281 289.058594 713.117188 293.4375 713.945312 C 301.472656 715.460938 309.660156 716.351562 317.257812 719.605469 C 321.71875 721.515625 325.304688 724.363281 325.292969 730.078125 " fill-opacity="1" fill-rule="nonzero"/><path fill="#f0af28" d="M 260.78125 725.199219 C 255.214844 737.347656 250.125 749.78125 242.546875 760.890625 C 239.6875 765.070312 235.96875 768.230469 230.714844 768.527344 C 227.4375 768.574219 224.625 767.542969 222.019531 765.964844 C 216.542969 762.660156 212.328125 758.042969 208.667969 752.867188 C 208.519531 752.640625 208.371094 752.429688 208.238281 752.207031 C 208.996094 751.75 209.753906 751.285156 210.511719 750.839844 C 227.304688 740.863281 243.945312 730.632812 260.5 720.269531 C 261.558594 721.699219 261.617188 723.378906 260.78125 725.199219 " fill-opacity="1" fill-rule="nonzero"/><path fill="#f0af28" d="M 329.601562 699.660156 C 329.644531 705.46875 327.320312 708.105469 321.695312 709.382812 C 317.960938 710.234375 314.121094 710.070312 309.164062 709.828125 C 303.789062 709.328125 297.296875 708.65625 290.777344 708.132812 C 288.097656 707.910156 285.734375 707.332031 284.691406 705.019531 C 298.472656 696.261719 312.214844 687.433594 325.953125 678.59375 L 325.96875 678.59375 C 327.054688 679.945312 327.859375 682.074219 328.394531 685.023438 C 329.257812 689.835938 329.570312 694.777344 329.601562 699.660156 " fill-opacity="1" fill-rule="nonzero"/><g clip-path="url(#b4a6839b02)"><path fill="#81b5ad" d="M 297.050781 823.84375 C 292.191406 824.597656 287.292969 825.285156 281.949219 826.074219 C 278.59375 826.792969 277.738281 824.394531 277.394531 821.347656 C 276.949219 817.441406 276.503906 813.535156 276.09375 809.664062 C 275.167969 801.578125 274.246094 793.496094 273.355469 785.445312 C 272.566406 777.875 271.8125 770.335938 271.128906 762.765625 C 269.960938 750.023438 268.902344 737.242188 267.875 724.464844 C 266.8125 711.414062 265.785156 698.363281 264.65625 685.3125 C 263.695312 674.210938 262.667969 663.113281 261.503906 652.050781 C 261.335938 650.441406 261.164062 648.863281 261.023438 647.25 C 259.824219 635.433594 258.832031 623.652344 257.976562 611.832031 C 256.984375 598.644531 256.195312 585.457031 255.441406 572.230469 C 254.449219 554.65625 253.59375 537.117188 252.632812 519.546875 C 252.328125 513.722656 251.980469 507.898438 251.640625 502.074219 C 251.230469 494.914062 250.785156 487.71875 250.375 480.5625 L 250.375 480.527344 C 249.449219 465.046875 248.527344 449.558594 247.566406 434.074219 C 246.742188 421.09375 245.957031 408.109375 245.136719 395.089844 C 243.9375 376.628906 242.738281 358.164062 241.539062 339.734375 C 240.648438 326.511719 239.792969 313.320312 238.898438 300.136719 C 238.695312 296.910156 238.457031 293.722656 238.25 290.507812 C 237.601562 281.015625 236.847656 271.53125 235.953125 262.078125 C 234.757812 249.195312 233.386719 236.34375 231.878906 223.46875 C 230.40625 210.519531 228.832031 197.566406 227.222656 184.617188 C 225.816406 173.109375 224.414062 161.566406 223.113281 150.058594 C 222.976562 148.925781 222.839844 147.832031 222.703125 146.703125 C 221.160156 133.441406 219.519531 120.183594 217.738281 106.964844 C 216.09375 94.253906 214.347656 81.546875 212.5 68.871094 C 211.570312 62.292969 210.578125 55.679688 209.585938 49.101562 C 208.695312 43.3125 208.898438 43.175781 214.484375 42.046875 C 219.824219 40.945312 225.203125 39.78125 230.582031 38.894531 C 235.71875 38.003906 236.265625 38.378906 236.949219 43.515625 C 237.875 50.269531 238.832031 56.980469 239.828125 63.730469 C 241.742188 76.914062 243.730469 90.074219 245.542969 103.261719 C 246.574219 110.726562 247.53125 118.195312 248.386719 125.664062 C 248.96875 130.875 249.585938 136.117188 250.203125 141.320312 C 251.707031 154.199219 253.285156 167.082031 254.859375 179.925781 C 256.296875 191.984375 257.769531 204.011719 259.210938 216.035156 C 259.691406 219.902344 260.132812 223.742188 260.582031 227.617188 C 261.746094 237.375 262.734375 247.140625 263.660156 256.9375 C 264.757812 268.894531 265.71875 280.882812 266.609375 292.871094 C 267.632812 306.882812 268.558594 320.929688 269.449219 334.9375 L 269.449219 334.96875 C 269.585938 336.855469 269.6875 338.703125 269.828125 340.589844 C 270.886719 356.996094 271.917969 373.441406 272.941406 389.847656 C 273.796875 403.585938 274.652344 417.359375 275.511719 431.09375 C 276.367188 445.3125 277.257812 459.53125 278.078125 473.742188 C 278.9375 487.617188 279.757812 501.457031 280.582031 515.328125 C 280.683594 517.214844 280.820312 519.136719 280.921875 521.015625 C 281.8125 535.820312 282.1875 550.683594 282.804688 565.519531 C 283.21875 575.3125 283.730469 585.078125 284.554688 594.878906 C 284.894531 598.984375 285.273438 603.0625 285.613281 607.171875 C 286.640625 618.859375 287.667969 630.539062 288.695312 642.21875 C 289.824219 654.789062 290.886719 667.398438 291.917969 679.964844 C 291.984375 680.792969 292.050781 681.578125 292.121094 682.402344 C 293.117188 694.734375 294.105469 707.070312 295.167969 719.398438 C 296.300781 732.6875 297.464844 745.949219 298.765625 759.203125 C 300.101562 773.179688 301.574219 787.125 303.183594 801.0625 C 303.558594 804.320312 303.9375 807.570312 304.347656 810.828125 C 304.449219 811.648438 304.484375 812.476562 304.585938 813.257812 C 305.785156 822.40625 305.820312 822.441406 297.050781 823.84375 " fill-opacity="1" fill-rule="nonzero"/></g><path fill="#ed8080" d="M 254.863281 179.925781 C 245.617188 181.195312 236.402344 182.765625 227.226562 184.617188 C 225.820312 173.109375 224.417969 161.5625 223.113281 150.050781 C 222.976562 148.925781 222.839844 147.828125 222.703125 146.695312 C 231.914062 145.15625 241.027344 143.132812 250.203125 141.316406 C 251.710938 154.195312 253.285156 167.074219 254.863281 179.925781 " fill-opacity="1" fill-rule="nonzero"/><path fill="#ed8080" d="M 263.664062 256.933594 C 254.417969 258.507812 245.167969 260.222656 235.957031 262.070312 C 234.757812 249.191406 233.386719 236.34375 231.882812 223.464844 C 241.027344 221.101562 250.101562 218.5 259.210938 216.035156 C 259.691406 219.902344 260.136719 223.742188 260.582031 227.609375 C 261.746094 237.375 262.738281 247.140625 263.664062 256.933594 " fill-opacity="1" fill-rule="nonzero"/><path fill="#ed8080" d="M 309.792969 508.277344 C 305.546875 510.980469 300.785156 512.28125 295.890625 513.03125 C 290.785156 513.824219 285.683594 514.574219 280.582031 515.328125 C 271.265625 516.769531 261.953125 518.140625 252.636719 519.546875 C 252.328125 513.71875 251.984375 507.894531 251.640625 502.074219 C 251.230469 494.910156 250.785156 487.71875 250.375 480.5625 L 250.375 480.527344 C 259.65625 478.4375 268.835938 475.902344 278.078125 473.742188 C 280.820312 473.09375 283.59375 472.476562 286.371094 471.929688 C 291.539062 470.902344 296.675781 470.320312 301.882812 471.035156 C 311.164062 472.304688 318.082031 478.402344 319.929688 486.660156 C 321.710938 494.84375 317.773438 503.238281 309.792969 508.277344 " fill-opacity="1" fill-rule="nonzero"/><path fill="#ed8080" d="M 245.542969 103.261719 C 240.546875 104.117188 235.546875 104.910156 230.511719 105.59375 C 226.265625 106.175781 222.015625 106.582031 217.738281 106.960938 C 216.09375 94.253906 214.347656 81.542969 212.496094 68.871094 C 221.707031 67.703125 230.785156 65.886719 239.824219 63.730469 C 241.742188 76.921875 243.730469 90.074219 245.542969 103.261719 " fill-opacity="1" fill-rule="nonzero"/><path fill="#ed8080" d="M 292.121094 682.402344 C 284.792969 683.117188 277.429688 683.871094 270.066406 684.660156 C 268.253906 684.871094 266.402344 685.074219 264.65625 685.308594 C 263.699219 674.210938 262.667969 663.113281 261.503906 652.050781 C 261.335938 650.4375 261.164062 648.859375 261.027344 647.25 C 263.011719 646.945312 264.964844 646.636719 266.949219 646.257812 C 274.210938 644.925781 281.4375 643.554688 288.699219 642.21875 C 289.828125 654.785156 290.886719 667.398438 291.917969 679.964844 C 291.984375 680.792969 292.054688 681.578125 292.121094 682.402344 " fill-opacity="1" fill-rule="nonzero"/><path fill="#ed8080" d="M 269.449219 334.933594 L 269.449219 334.96875 C 260.136719 336.617188 250.855469 338.191406 241.539062 339.734375 C 240.648438 326.511719 239.792969 313.324219 238.902344 300.132812 C 248.078125 297.769531 257.292969 295.335938 266.472656 292.902344 C 266.503906 292.902344 266.574219 292.871094 266.609375 292.871094 C 267.636719 306.882812 268.558594 320.925781 269.449219 334.933594 " fill-opacity="1" fill-rule="nonzero"/><path fill="#ed8080" d="M 275.511719 431.089844 C 266.195312 432.121094 256.882812 433.078125 247.566406 434.070312 C 246.746094 421.09375 245.957031 408.109375 245.136719 395.089844 C 254.449219 393.515625 263.664062 391.5625 272.945312 389.847656 C 273.800781 403.585938 274.65625 417.359375 275.511719 431.089844 " fill-opacity="1" fill-rule="nonzero"/><path fill="#ed8080" d="M 285.613281 607.171875 C 276.402344 608.78125 267.191406 610.324219 257.976562 611.828125 C 256.984375 598.644531 256.195312 585.457031 255.445312 572.230469 C 264.554688 569.972656 273.664062 567.746094 282.808594 565.515625 C 283.21875 575.3125 283.734375 585.078125 284.554688 594.878906 C 284.894531 598.984375 285.273438 603.0625 285.613281 607.171875 " fill-opacity="1" fill-rule="nonzero"/><path fill="#ed8080" d="M 298.765625 759.203125 C 289.519531 760.125 280.273438 760.707031 271.128906 762.765625 C 269.964844 750.023438 268.902344 737.242188 267.875 724.464844 C 277.054688 722.339844 286.265625 720.765625 295.171875 719.398438 C 296.300781 732.6875 297.464844 745.945312 298.765625 759.203125 " fill-opacity="1" fill-rule="nonzero"/><path fill="#ed8080" d="M 297.054688 823.84375 C 292.191406 824.597656 287.292969 825.28125 281.953125 826.070312 C 278.59375 826.792969 277.738281 824.394531 277.394531 821.347656 C 276.949219 817.441406 276.507812 813.535156 276.09375 809.664062 C 282.976562 807.914062 289.554688 805.246094 296.230469 802.910156 C 298.527344 802.128906 300.855469 801.472656 303.183594 801.0625 C 303.5625 804.320312 303.9375 807.570312 304.347656 810.828125 C 304.453125 811.648438 304.484375 812.472656 304.585938 813.257812 C 305.789062 822.40625 305.820312 822.441406 297.054688 823.84375 " fill-opacity="1" fill-rule="nonzero"/><path fill="#81b5ad" d="M 238.285156 666.398438 C 237.019531 668.011719 236.4375 669.277344 236.46875 671.371094 C 236.742188 684.183594 232.5 695.554688 224.757812 704.085938 C 222.1875 706.964844 219.175781 709.53125 215.820312 711.691406 C 212.394531 713.882812 208.628906 715.699219 204.515625 717.035156 C 204.347656 717.101562 204.175781 717.136719 204.003906 717.203125 C 201.195312 718.09375 198.386719 718.816406 195.511719 719.398438 C 188.695312 720.800781 181.675781 721.453125 174.175781 721.828125 C 170.613281 721.453125 166.230469 721.3125 161.949219 720.425781 C 160.886719 720.21875 159.996094 719.910156 159.242188 719.464844 C 159.210938 719.464844 159.210938 719.464844 159.210938 719.464844 C 156.433594 717.992188 155.578125 715.355469 156.707031 711.726562 C 156.742188 711.585938 156.8125 711.414062 156.847656 711.277344 C 157.839844 708.503906 159.378906 705.832031 161.058594 703.363281 C 168.011719 693.15625 175.785156 683.632812 184.996094 675.410156 C 196.296875 665.273438 209.621094 659.480469 224.691406 657.632812 C 225.308594 657.566406 225.957031 657.496094 226.574219 657.460938 L 226.605469 657.460938 C 230.097656 657.222656 233.523438 657.597656 236.710938 659.207031 C 237.019531 659.347656 237.292969 659.515625 237.53125 659.71875 C 240.136719 661.332031 240.476562 663.558594 238.285156 666.398438 " fill-opacity="1" fill-rule="nonzero"/><path fill="#81b5ad" d="M 359.519531 458.804688 C 359.589844 463.535156 359.417969 468.054688 358.972656 472.339844 C 358.664062 475.351562 358.253906 478.265625 357.707031 481.109375 C 357.191406 483.886719 356.539062 486.554688 355.71875 489.15625 C 354.761719 492.445312 353.5625 495.664062 352.125 498.785156 C 351.0625 501.113281 349.863281 503.371094 348.527344 505.636719 C 343.871094 513.480469 337.535156 519.203125 328.21875 520.949219 C 327.980469 521.015625 327.707031 521.082031 327.429688 521.15625 C 323.421875 521.976562 320 521.425781 316.953125 520.128906 C 313.664062 518.792969 310.789062 516.566406 308.046875 514.203125 C 306.230469 512.589844 304.453125 510.945312 302.671875 509.441406 C 297.226562 504.847656 298.730469 497.414062 300.75 490.90625 C 302.53125 485.050781 305.921875 480.046875 309.554688 475.25 C 320.375 461.003906 333.902344 449.351562 346.816406 437.121094 C 348.253906 435.785156 349.621094 434.929688 350.855469 434.585938 L 350.890625 434.585938 C 353.871094 433.800781 356.265625 435.785156 357.605469 440.242188 C 357.636719 440.308594 357.636719 440.339844 357.671875 440.414062 C 359.691406 447.332031 359.007812 454.5625 359.519531 458.804688 " fill-opacity="1" fill-rule="nonzero"/><path fill="#81b5ad" d="M 193.25 497.894531 C 193.351562 500.839844 192.738281 504.507812 191.230469 508.136719 C 190.714844 509.441406 190.066406 510.742188 189.277344 512.011719 C 188.011719 514.097656 186.640625 515.945312 186.230469 518.242188 C 186.058594 519.300781 186.058594 520.433594 186.332031 521.738281 C 187.015625 524.71875 184.277344 525.949219 181.367188 525.234375 C 172.019531 522.835938 163.214844 519.71875 156.984375 511.457031 C 151.675781 504.4375 146.160156 497.65625 141.949219 489.949219 C 137.359375 481.519531 133.179688 472.886719 127.804688 464.902344 C 126.605469 463.089844 125.203125 461.171875 125.988281 458.910156 C 126.058594 458.632812 126.195312 458.394531 126.332031 458.125 C 128.042969 455.175781 130.886719 455.519531 133.660156 455.898438 C 134.652344 456.03125 135.648438 456.171875 136.640625 456.308594 C 144.039062 457.300781 151.46875 458.257812 158.832031 459.460938 C 161.433594 459.902344 164.003906 460.554688 166.46875 461.445312 C 169.585938 462.539062 172.566406 463.976562 175.40625 465.660156 C 175.75 465.863281 176.058594 466.035156 176.367188 466.242188 C 187.429688 473.160156 193.183594 483.128906 193.25 497.894531 " fill-opacity="1" fill-rule="nonzero"/><path fill="#81b5ad" d="M 176.058594 537.527344 C 175.578125 539.070312 175.132812 540.648438 174.789062 542.222656 C 174.277344 544.652344 173.59375 546.84375 172.703125 548.871094 C 171.265625 552.121094 169.277344 554.828125 166.8125 556.988281 C 162.839844 560.445312 157.53125 562.46875 150.953125 562.878906 C 141.570312 563.460938 132.460938 561.851562 123.765625 558.285156 C 119.929688 556.714844 116.089844 555.207031 112.359375 553.425781 C 111.640625 553.113281 110.957031 552.773438 110.269531 552.433594 C 106.503906 550.546875 104.894531 548.320312 105.542969 545.890625 C 105.886719 544.414062 107.121094 542.871094 109.175781 541.261719 C 120.238281 532.628906 132.976562 528.207031 146.84375 526.875 C 149.585938 526.636719 152.324219 526.566406 155.03125 526.425781 C 160.476562 526.703125 165.957031 526.464844 171.195312 528.382812 C 176.640625 530.4375 177.601562 532.183594 176.058594 537.527344 " fill-opacity="1" fill-rule="nonzero"/><path fill="#498882" d="M 329.691406 491.554688 C 331.574219 493.101562 333.734375 492.207031 335.753906 491.9375 C 342.429688 491.042969 349.074219 490.082031 355.71875 489.15625 C 354.761719 492.445312 353.5625 495.664062 352.125 498.785156 C 346.984375 499.472656 341.851562 500.054688 336.710938 500.429688 C 327.328125 501.082031 320.652344 504.09375 318.597656 514.203125 C 318.183594 516.1875 317.601562 518.175781 316.953125 520.128906 C 316.09375 522.558594 315.171875 524.988281 314.316406 527.425781 C 313.59375 529.476562 312.976562 531.703125 311.746094 533.417969 C 309.65625 536.363281 305.957031 535.679688 304.863281 532.183594 C 303.871094 528.964844 304.347656 525.675781 305.273438 522.492188 C 306.0625 519.679688 306.984375 516.910156 308.046875 514.203125 C 309.449219 510.535156 311.027344 506.9375 312.703125 503.410156 C 323.9375 479.636719 337.5 457.164062 350.855469 434.585938 L 350.890625 434.585938 C 353.871094 433.800781 356.265625 435.785156 357.605469 440.242188 C 352.191406 449.488281 346.78125 458.738281 341.402344 468.023438 C 340.613281 469.394531 339.453125 470.664062 339.726562 473.332031 C 346.402344 472.957031 352.707031 472.445312 358.972656 472.339844 C 358.664062 475.351562 358.253906 478.265625 357.707031 481.109375 C 352.15625 481.621094 346.574219 482.277344 340.992188 482.277344 C 334.453125 482.277344 330.789062 485.050781 329.691406 491.554688 " fill-opacity="1" fill-rule="nonzero"/><path fill="#498882" d="M 239.828125 654.035156 C 239.28125 656.058594 238.492188 657.9375 237.53125 659.71875 C 235.855469 662.769531 233.664062 665.476562 231.128906 667.742188 C 224.585938 673.628906 222.601562 680.414062 223.660156 688.84375 C 224.3125 693.910156 224.519531 698.980469 224.757812 704.085938 C 222.1875 706.964844 219.175781 709.53125 215.820312 711.691406 C 215.613281 706.824219 215.511719 701.992188 215.308594 697.164062 C 215.136719 693.703125 215.613281 690.140625 214.277344 686.339844 C 207.5 689.871094 203.730469 694.113281 204.484375 701.992188 C 204.964844 706.964844 204.722656 711.996094 204.515625 717.035156 C 204.347656 717.101562 204.175781 717.136719 204.003906 717.203125 C 201.195312 718.09375 198.386719 718.816406 195.511719 719.398438 C 195.613281 716.386719 195.714844 713.335938 195.75 710.320312 C 195.785156 707.679688 196.710938 704.941406 195.132812 701.894531 C 192.121094 702.574219 190.066406 704.871094 187.632812 706.414062 C 180.714844 710.867188 173.800781 715.253906 165.921875 717.855469 C 164.105469 718.472656 162.257812 719.054688 160.410156 719.328125 C 160.03125 719.363281 159.621094 719.433594 159.242188 719.464844 C 159.210938 719.464844 159.210938 719.464844 159.210938 719.464844 C 156.777344 719.703125 154.449219 719.398438 153.898438 716.246094 C 153.523438 713.882812 154.894531 712.613281 156.707031 711.726562 C 157.1875 711.519531 157.703125 711.3125 158.214844 711.136719 C 187.292969 701.207031 207.738281 680.34375 226.574219 657.460938 L 226.605469 657.460938 C 226.847656 657.15625 227.121094 656.8125 227.394531 656.5 C 229.3125 654.203125 231.058594 651.707031 233.117188 649.546875 C 234.519531 648.109375 236.503906 647.664062 238.355469 648.898438 C 240.238281 650.164062 240.339844 652.050781 239.828125 654.035156 " fill-opacity="1" fill-rule="nonzero"/><path fill="#498882" d="M 201.230469 530.265625 C 201.09375 532.324219 200.40625 534.105469 198.25 534.617188 C 196.4375 535.097656 195.066406 534 194.074219 532.628906 C 193.113281 531.332031 192.222656 529.921875 191.574219 528.417969 C 190.101562 524.820312 188.285156 521.464844 186.230469 518.242188 C 182.601562 512.488281 178.25 507.210938 173.730469 502.074219 C 161.160156 487.925781 147.53125 474.980469 132.085938 463.949219 C 129.960938 462.402344 127.875 460.757812 125.988281 458.910156 C 126.058594 458.632812 126.195312 458.394531 126.332031 458.125 C 128.042969 455.175781 130.886719 455.519531 133.660156 455.898438 C 134.652344 456.03125 135.648438 456.171875 136.640625 456.308594 C 145.339844 463.367188 154.414062 469.976562 162.667969 477.617188 C 162.976562 477.921875 163.660156 477.820312 164.519531 477.992188 C 166.265625 472.613281 166.023438 466.957031 166.46875 461.445312 C 169.585938 462.539062 172.566406 463.976562 175.40625 465.660156 C 174.859375 471.484375 174.414062 477.304688 173.96875 483.128906 C 173.59375 487.925781 175.371094 490.050781 177.910156 492.757812 C 182.566406 497.722656 187.15625 502.722656 191.230469 508.136719 C 193.867188 511.667969 196.265625 515.367188 198.320312 519.339844 C 200.066406 522.765625 201.503906 526.292969 201.230469 530.265625 " fill-opacity="1" fill-rule="nonzero"/><path fill="#498882" d="M 178.730469 557.4375 C 177.632812 559.488281 175.820312 559.722656 173.800781 559.285156 C 172.734375 559.042969 171.710938 558.628906 170.683594 558.253906 C 169.378906 557.808594 168.113281 557.398438 166.8125 556.988281 C 148.933594 551.4375 130.785156 549.929688 112.359375 553.425781 C 111.640625 553.113281 110.957031 552.773438 110.269531 552.433594 C 106.503906 550.546875 104.894531 548.320312 105.542969 545.890625 C 108.078125 544.621094 110.851562 544.210938 113.59375 544.003906 C 120.371094 543.453125 127.222656 543.28125 134.039062 542.945312 C 144.996094 543.011719 155.921875 543.453125 166.574219 546.46875 C 168.730469 547.089844 170.785156 547.839844 172.703125 548.871094 C 174.585938 549.863281 176.261719 551.160156 177.703125 552.941406 C 178.730469 554.210938 179.65625 555.683594 178.730469 557.4375 " fill-opacity="1" fill-rule="nonzero"/><path fill="#f0af28" d="M 154.273438 574.882812 C 153.5625 540.097656 168.019531 512.429688 194.21875 490.460938 C 204.867188 481.535156 216.992188 476.015625 231.007812 473.71875 C 272.367188 466.929688 304.410156 481.648438 328.890625 514.628906 C 340.253906 529.933594 348.75 546.664062 352.523438 565.554688 C 355.46875 580.296875 354.203125 594.761719 346.996094 607.84375 C 329.941406 638.804688 304.84375 661.3125 270.785156 671.257812 C 219.484375 686.234375 166.929688 652.417969 156.539062 599.34375 C 154.953125 591.242188 154.371094 583.085938 154.273438 574.882812 " fill-opacity="1" fill-rule="nonzero"/><path fill="#ffffff" d="M 171.417969 566.816406 C 173.171875 547.078125 179.261719 523.132812 199.777344 505.910156 C 222.207031 487.085938 247.855469 482.390625 275.800781 491.6875 C 286.808594 495.355469 296.6875 501.195312 305.921875 508.121094 C 332.554688 528.09375 342.417969 563.636719 329.160156 594.027344 C 316.304688 623.476562 295.964844 645.242188 263.992188 654.183594 C 251.179688 657.769531 238.210938 658.78125 225.046875 656.558594 C 206.015625 653.34375 192.925781 642.199219 184.191406 625.523438 C 175.933594 609.777344 171.414062 590.410156 171.417969 566.816406 " fill-opacity="1" fill-rule="nonzero"/><path fill="#efd13f" d="M 253.46875 498.972656 C 258.253906 498.808594 263.699219 499.429688 269.003906 500.832031 C 284.023438 504.816406 289.117188 518.664062 280.328125 531.441406 C 273.507812 541.359375 266.644531 551.25 259.777344 561.132812 C 258.6875 562.699219 257.648438 564.367188 256.277344 565.671875 C 252.6875 569.078125 249.257812 568.445312 247.507812 563.773438 C 242.238281 549.691406 236.75 535.664062 232.890625 521.109375 C 228.421875 504.246094 232.589844 499.140625 250.28125 498.980469 C 251.101562 498.96875 251.921875 498.972656 253.46875 498.972656 " fill-opacity="1" fill-rule="nonzero"/><path fill="#efd13f" d="M 242.089844 649.941406 C 237.878906 650.203125 233.574219 649.246094 229.390625 648.0625 C 219.125 645.15625 213.953125 636.960938 215.15625 626.21875 C 215.75 620.921875 217.953125 616.28125 220.578125 611.757812 C 226.089844 602.265625 233.1875 593.910156 239.808594 585.234375 C 243.617188 580.234375 249.308594 580.886719 252.027344 586.730469 C 254.667969 592.410156 256.585938 598.433594 258.710938 604.339844 C 261.394531 611.789062 264.242188 619.199219 265.429688 627.082031 C 267.261719 639.246094 263.042969 645.621094 251.222656 648.875 C 248.285156 649.683594 245.332031 650 242.089844 649.941406 " fill-opacity="1" fill-rule="nonzero"/><path fill="#efd13f" d="M 222.179688 568.226562 C 215.910156 567.976562 209.605469 568.082031 203.480469 566.371094 C 191.808594 563.117188 186.820312 555.992188 188.054688 543.914062 C 188.988281 534.835938 191.792969 526.289062 196.523438 518.464844 C 197.917969 516.160156 199.664062 513.949219 201.65625 512.140625 C 206.863281 507.410156 211.917969 507.667969 216.773438 512.625 C 218.703125 514.589844 220.238281 516.867188 221.265625 519.421875 C 226.644531 532.851562 232.820312 545.960938 237.367188 559.71875 C 239.921875 567.449219 239.523438 567.941406 231.195312 568.21875 C 228.195312 568.308594 225.1875 568.234375 222.179688 568.226562 " fill-opacity="1" fill-rule="nonzero"/><path fill="#efd13f" d="M 261.699219 571.71875 C 264.4375 567.59375 267.039062 563.5 269.816406 559.535156 C 276.722656 549.65625 283.933594 539.949219 293.023438 531.988281 C 303.511719 522.800781 311.917969 524.828125 317.136719 537.757812 C 320.746094 546.6875 322.722656 556.09375 321.246094 565.851562 C 319.996094 574.121094 317.65625 576.070312 309.492188 576.050781 C 296.902344 576.011719 284.335938 575.382812 271.792969 574.375 C 268.585938 574.121094 265.300781 573.964844 261.699219 571.71875 " fill-opacity="1" fill-rule="nonzero"/><path fill="#efd13f" d="M 313.117188 598.039062 C 313.09375 600.257812 312.570312 602.34375 311.539062 604.328125 C 307.492188 612.140625 302.644531 619.390625 296.570312 625.769531 C 294.476562 627.964844 292.027344 629.6875 289.09375 630.652344 C 283.503906 632.5 279.390625 631.285156 276.503906 626.191406 C 270.152344 614.96875 265.710938 602.894531 261.636719 590.714844 C 259.84375 585.355469 263.007812 581.695312 269.039062 582.40625 C 279.0625 583.589844 289.015625 585.339844 298.984375 586.949219 C 302.222656 587.476562 305.386719 588.390625 308.261719 590.066406 C 311.304688 591.847656 313.175781 594.359375 313.117188 598.039062 " fill-opacity="1" fill-rule="nonzero"/><path fill="#efd13f" d="M 210.382812 576.203125 C 215.835938 576.203125 221.289062 576.144531 226.742188 576.246094 C 228.503906 576.277344 230.785156 575.390625 231.753906 577.75 C 232.472656 579.507812 231.085938 580.84375 230.152344 582.125 C 227.4375 585.882812 224.53125 589.507812 221.890625 593.3125 C 217.855469 599.136719 214.011719 605.097656 210.027344 610.957031 C 203.484375 620.582031 192.695312 619.875 187.519531 609.445312 C 184.1875 602.734375 182.707031 595.582031 182.839844 588.082031 C 182.996094 579.503906 186.035156 576.464844 194.839844 576.332031 C 200.019531 576.25 205.199219 576.3125 210.382812 576.3125 C 210.382812 576.277344 210.382812 576.242188 210.382812 576.203125 " fill-opacity="1" fill-rule="nonzero"/><path fill="#b1d9d2" d="M 302.445312 324.675781 C 305.035156 326.292969 306.808594 327.101562 308.21875 328.332031 C 313.023438 332.523438 312.804688 339.207031 307.816406 343.273438 C 305.878906 344.847656 303.558594 345.648438 301.207031 346.449219 C 284.621094 352.054688 267.746094 356.449219 250.421875 359.105469 C 242.585938 360.308594 234.820312 361.953125 227.011719 363.324219 C 224.59375 363.742188 222.128906 364.214844 219.699219 364.148438 C 212.097656 363.933594 207.941406 358.160156 211.054688 351.375 C 212.675781 347.832031 212.503906 345.722656 210.300781 342.601562 C 206.515625 337.25 207.261719 333.167969 212.132812 328.902344 C 213.984375 327.28125 216.09375 325.96875 217.234375 323.695312 C 220.523438 317.128906 226.300781 314.511719 233.15625 313.648438 C 249.984375 311.53125 266.800781 309.28125 283.761719 308.441406 C 287.3125 308.265625 290.910156 308.3125 294.398438 307.730469 C 299.621094 306.851562 304.570312 306.867188 307.238281 312.179688 C 309.714844 317.105469 307.25 321.121094 302.445312 324.675781 " fill-opacity="1" fill-rule="nonzero"/><path fill="#e8eee4" d="M 233.964844 191.453125 C 228 190.832031 221.46875 190.226562 214.957031 189.441406 C 213.078125 189.21875 211.1875 188.65625 209.421875 187.945312 C 204.328125 185.894531 201.832031 181.429688 203.121094 176.976562 C 204.441406 172.414062 208.796875 169.605469 214.082031 170.726562 C 218.386719 171.648438 222.71875 172.050781 227.058594 172.554688 C 240.820312 174.15625 253.691406 172.027344 265.207031 163.679688 C 270.457031 159.878906 275.179688 160.277344 278.347656 164.199219 C 281.363281 167.933594 280.730469 173.304688 276.519531 177.460938 C 271.320312 182.585938 264.734375 185.261719 257.9375 187.519531 C 250.335938 190.042969 242.488281 190.953125 233.964844 191.453125 " fill-opacity="1" fill-rule="nonzero"/><path fill="#ffffff" d="M 313.738281 185.054688 C 314.753906 185.421875 316.34375 185.851562 317.804688 186.550781 C 330.214844 192.519531 341.335938 200.386719 351.390625 209.761719 C 353.195312 211.441406 354.785156 213.371094 355.335938 215.871094 C 355.765625 217.816406 355.738281 219.730469 353.796875 220.972656 C 352.230469 221.976562 350.519531 221.695312 349.148438 220.789062 C 347.574219 219.757812 346.230469 218.34375 344.863281 217.015625 C 335.410156 207.8125 325.28125 199.5625 313.074219 194.199219 C 312.078125 193.761719 311.066406 193.28125 310.21875 192.609375 C 308.625 191.351562 307.667969 189.746094 308.496094 187.617188 C 309.207031 185.796875 310.820312 184.921875 313.738281 185.054688 " fill-opacity="1" fill-rule="nonzero"/><path fill="#ffffff" d="M 45.460938 357.398438 C 43.816406 357.476562 42.175781 357.476562 40.683594 356.636719 C 39.160156 355.789062 38.15625 354.582031 38.25 352.730469 C 38.34375 350.894531 39.324219 349.632812 41.015625 349.085938 C 42.304688 348.671875 43.671875 348.480469 45.019531 348.296875 C 53.394531 347.160156 61.769531 345.996094 70.160156 344.953125 C 76.347656 344.179688 80.894531 345.835938 80.398438 348.726562 C 79.558594 353.621094 75.132812 353.621094 71.4375 354.148438 C 63.335938 355.289062 55.210938 356.246094 47.09375 357.273438 C 46.554688 357.339844 46.007812 357.355469 45.460938 357.398438 " fill-opacity="1" fill-rule="nonzero"/><path fill="#ffffff" d="M 387.761719 316.941406 C 384.511719 316.941406 381.253906 317.089844 378.019531 316.890625 C 375.640625 316.75 373.789062 315.4375 373.789062 312.839844 C 373.789062 310.320312 375.503906 308.757812 377.882812 308.566406 C 387.066406 307.804688 396.265625 307.167969 405.46875 306.632812 C 407.773438 306.496094 409.921875 307.367188 410.132812 310.097656 C 410.335938 312.667969 408.558594 314.128906 406.339844 314.703125 C 400.261719 316.289062 393.992188 316.398438 387.761719 316.941406 " fill-opacity="1" fill-rule="nonzero"/><path fill="#ffffff" d="M 379.570312 249.828125 C 379.40625 252.578125 378.675781 254.347656 376.65625 255.089844 C 374.457031 255.894531 372.722656 254.566406 371.886719 252.867188 C 368.617188 246.257812 365.5 239.585938 361.289062 233.476562 C 360.011719 231.625 361.144531 229.742188 362.832031 228.523438 C 364.308594 227.449219 366.09375 227.488281 367.394531 228.675781 C 373.890625 234.570312 377.453125 242.140625 379.570312 249.828125 " fill-opacity="1" fill-rule="nonzero"/><path fill="#e8eee4" d="M 846.023438 332.265625 C 846.300781 297.734375 844.398438 268.363281 835.707031 239.683594 C 828.191406 214.890625 815.421875 193.742188 795.074219 177.425781 C 793.367188 176.058594 791.695312 174.605469 790.234375 172.984375 C 770.195312 150.652344 744.539062 138.773438 715.707031 132.734375 C 715.433594 132.679688 715.152344 132.683594 714.902344 132.59375 C 707.285156 129.707031 701.355469 131.050781 695.175781 137.21875 C 686.664062 145.710938 675.410156 149.917969 663.355469 150.976562 C 649.4375 152.203125 638.628906 146.574219 632.257812 134.15625 C 629.992188 129.734375 627.507812 129.003906 623.316406 129.519531 C 602.847656 132.039062 584.332031 139.1875 567.09375 150.707031 C 528.324219 176.617188 509.144531 215.160156 496.75 258.09375 C 492.289062 273.574219 493.910156 289.570312 495.601562 305.359375 C 495.921875 308.359375 496.351562 311.214844 495.886719 314.253906 C 492.464844 336.503906 491.457031 358.914062 491.546875 381.398438 C 491.84375 448.226562 494.417969 514.984375 497.980469 581.707031 C 500.433594 627.640625 502.929688 673.570312 505.210938 719.511719 C 506.597656 747.40625 507.601562 775.316406 508.804688 803.21875 C 508.921875 805.949219 508.96875 808.730469 509.492188 811.394531 C 511.417969 821.164062 515.753906 824.566406 525.261719 826.316406 C 544.765625 829.898438 564.503906 829.496094 584.148438 830.746094 C 622.9375 833.222656 661.707031 835.964844 700.488281 838.527344 C 707.578125 838.996094 714.699219 839.300781 721.8125 839.355469 C 736.1875 839.460938 741.90625 834.644531 746.269531 821.195312 C 756.089844 790.933594 761.191406 759.539062 769.011719 728.804688 C 782.648438 675.230469 796.480469 621.707031 809.722656 568.042969 C 823.511719 512.203125 834.847656 455.871094 841.636719 398.691406 C 844.449219 375.015625 846.023438 351.265625 846.023438 332.265625 " fill-opacity="1" fill-rule="nonzero"/><path fill="#b1d9d2" d="M 504.773438 273.554688 C 496.839844 273.554688 488.90625 273.570312 480.972656 273.554688 C 471.703125 273.53125 467.5 277.847656 468.066406 287.308594 C 468.375 292.492188 469.382812 297.636719 469.777344 302.816406 C 470.320312 309.878906 474.320312 313.46875 480.863281 315.226562 C 488.824219 317.371094 496.929688 318.664062 505.070312 319.585938 C 546.125 324.230469 587.246094 328.371094 628.25 333.394531 C 655.941406 336.789062 683.492188 341.300781 711.089844 345.421875 C 750.332031 351.265625 789.542969 357.320312 829.09375 360.734375 C 837.824219 361.484375 846.597656 361.765625 855.351562 361.125 C 867.8125 360.210938 873.632812 354.570312 875 342.25 C 875.574219 337.097656 875.445312 331.859375 877.007812 326.808594 C 878.34375 322.503906 876.425781 319.414062 872.9375 317.011719 C 869.171875 314.421875 864.898438 313.707031 860.472656 313.476562 C 814.796875 311.0625 769.511719 304.792969 724.160156 299.207031 C 687.769531 294.734375 651.394531 290.121094 615.03125 285.398438 C 588.441406 281.949219 561.863281 278.382812 535.089844 276.546875 C 524.980469 275.855469 514.875 275.238281 504.769531 274.585938 C 504.769531 274.242188 504.769531 273.902344 504.773438 273.554688 " fill-opacity="1" fill-rule="nonzero"/><path fill="#ecda54" d="M 688.277344 824.574219 C 693.746094 824.574219 699.210938 824.617188 704.675781 824.566406 C 718.867188 824.4375 723.640625 821.167969 728.210938 807.621094 C 731.441406 798.035156 734.269531 788.304688 737.050781 778.574219 C 752.394531 724.890625 764.828125 670.445312 779.609375 616.617188 C 789.320312 581.269531 799.902344 546.15625 810.085938 510.9375 C 817.464844 485.40625 822.390625 459.308594 827.910156 433.347656 C 828.191406 432.015625 828.40625 430.648438 828.484375 429.285156 C 828.78125 424.226562 827.445312 422.308594 822.300781 421.460938 C 796.386719 417.179688 770.46875 412.933594 744.527344 408.84375 C 709.933594 403.378906 675.230469 398.632812 640.425781 394.699219 C 611.601562 391.441406 582.710938 388.769531 553.875 385.671875 C 541.601562 384.351562 529.328125 383.523438 516.992188 383.871094 C 507.882812 384.128906 506.480469 385.503906 506.914062 394.699219 C 508.035156 418.21875 509.523438 441.71875 510.539062 465.246094 C 512.273438 505.195312 512.871094 545.183594 512.707031 585.164062 C 512.5 636.964844 514.785156 688.628906 519.457031 740.214844 C 521.042969 757.660156 521.898438 775.167969 523.152344 792.644531 C 524.089844 805.632812 528.785156 810.441406 541.835938 811.539062 C 555.476562 812.679688 569.152344 813.417969 582.773438 814.632812 C 609.488281 817.015625 636.175781 819.644531 662.886719 822.066406 C 671.328125 822.832031 679.8125 823.261719 688.273438 823.84375 C 688.273438 824.085938 688.273438 824.332031 688.277344 824.574219 " fill-opacity="1" fill-rule="nonzero"/><path fill="#ffffff" d="M 680.6875 455.75 C 680.449219 452.261719 682.46875 449.621094 685.621094 449.621094 C 688.050781 449.621094 690.621094 449.898438 690.964844 453.21875 C 691.335938 456.78125 688.460938 460.925781 685.242188 461.09375 C 682.164062 460.894531 680.894531 458.730469 680.6875 455.75 Z M 671.78125 455.410156 C 671.886719 463.390625 677.945312 470.144531 685.175781 470.316406 C 693.050781 470.488281 699.9375 462.125 699.726562 452.671875 C 699.59375 444.929688 694.527344 440.851562 685.242188 440.988281 C 677.535156 441.09375 671.679688 447.363281 671.78125 455.410156 " fill-opacity="1" fill-rule="nonzero"/><path fill="#ffffff" d="M 548.3125 453.429688 C 548.429688 455.949219 550.054688 457.238281 552.496094 457.402344 C 555.824219 457.632812 559.316406 454.464844 559.179688 451.507812 C 559.074219 449.226562 557.660156 448.039062 555.542969 447.789062 C 552.609375 447.445312 548.480469 450.667969 548.3125 453.429688 " fill-opacity="1" fill-rule="nonzero"/><path fill="#ffffff" d="M 526.980469 409.234375 C 526.75 412.335938 529.304688 415.800781 531.886719 415.734375 C 534.515625 415.660156 535.78125 414.019531 536.101562 411.578125 C 536.550781 408.207031 534.285156 405.246094 531.320312 405.230469 C 528.945312 405.214844 527.152344 406.875 526.980469 409.234375 " fill-opacity="1" fill-rule="nonzero"/><path fill="#ffffff" d="M 656.714844 793.988281 C 657.15625 796.300781 658.835938 797.390625 661.292969 796.996094 C 664.394531 796.503906 666.046875 794.394531 665.882812 791.355469 C 665.746094 788.671875 664.25 786.765625 661.222656 786.972656 C 658.824219 787.140625 656.394531 790.878906 656.714844 793.988281 " fill-opacity="1" fill-rule="nonzero"/><path fill="#ffffff" d="M 727.824219 441.074219 C 725.445312 441.367188 723.613281 442.339844 723.710938 445.058594 C 723.824219 448.082031 726.011719 449.148438 728.59375 449.410156 C 731.28125 449.679688 733.578125 447.425781 733.132812 445.050781 C 732.59375 442.183594 730.460938 441.25 727.824219 441.074219 " fill-opacity="1" fill-rule="nonzero"/><path fill="#ffffff" d="M 717.957031 745.242188 C 715.683594 745.421875 713.910156 746.539062 714.109375 749.171875 C 714.347656 752.1875 716.078125 754.136719 719.289062 754.132812 C 721.488281 754.132812 722.679688 752.714844 722.902344 750.601562 C 723.183594 747.875 720.859375 745.335938 717.957031 745.242188 " fill-opacity="1" fill-rule="nonzero"/><path fill="#ffffff" d="M 549.65625 621.359375 C 550.007812 624.199219 551.289062 626.578125 554.480469 626.757812 C 557.074219 626.902344 558.316406 624.964844 558.269531 622.523438 C 558.222656 619.796875 556.839844 617.847656 553.96875 617.574219 C 551.429688 617.328125 549.910156 618.621094 549.65625 621.359375 " fill-opacity="1" fill-rule="nonzero"/><path fill="#ffffff" d="M 539.089844 605.878906 C 541.601562 605.457031 542.984375 603.988281 542.972656 601.425781 C 542.964844 598.792969 541.445312 597.199219 538.921875 597.261719 C 536.425781 597.320312 534.914062 598.949219 535.011719 601.585938 C 535.105469 604.144531 536.53125 605.570312 539.089844 605.878906 " fill-opacity="1" fill-rule="nonzero"/><path fill="#ffffff" d="M 749.507812 495.421875 C 747.390625 495.789062 745.847656 496.914062 745.957031 499.171875 C 746.101562 502.058594 747.960938 503.824219 750.757812 503.597656 C 753.167969 503.40625 754.691406 501.601562 754.238281 498.988281 C 753.800781 496.46875 751.984375 495.421875 749.507812 495.421875 " fill-opacity="1" fill-rule="nonzero"/><path fill="#ffffff" d="M 629.996094 792.984375 C 630.703125 795.320312 632.34375 796.414062 634.824219 795.792969 C 637.195312 795.199219 638.605469 793.578125 638.148438 791.046875 C 637.667969 788.410156 635.707031 787.632812 633.296875 788.144531 C 630.84375 788.664062 629.667969 790.28125 629.996094 792.984375 " fill-opacity="1" fill-rule="nonzero"/><path fill="#ffffff" d="M 531.101562 453.726562 C 533.53125 453.664062 535.046875 452.46875 535.054688 449.824219 C 535.054688 447.621094 533.859375 446.261719 531.652344 446.121094 C 529.03125 445.957031 527.589844 447.40625 527.582031 449.964844 C 527.582031 452.089844 528.75 453.472656 531.101562 453.726562 " fill-opacity="1" fill-rule="nonzero"/><path fill="#f0af28" d="M 658.390625 556.199219 C 654.3125 558.167969 650.335938 560.316406 645.996094 561.808594 C 631.433594 566.839844 617.035156 566.398438 602.621094 561.167969 C 580.765625 553.238281 562.980469 539.761719 548.695312 521.617188 C 539.386719 509.808594 535.171875 496.144531 535.355469 478.9375 C 536.347656 459.664062 542.398438 439.8125 554.0625 421.691406 C 556.9375 417.222656 560.914062 413.777344 564.1875 409.703125 C 565.363281 408.234375 566.820312 408.660156 567.804688 409.917969 C 569.394531 411.921875 570.902344 414.003906 572.183594 416.210938 C 572.539062 416.816406 572.894531 417.414062 573.257812 418.019531 C 574.957031 420.90625 576.703125 423.785156 578.46875 426.632812 C 585.535156 438.050781 592.984375 449.210938 600.28125 460.472656 C 602.789062 464.347656 605.332031 468.195312 607.902344 472.023438 C 611.679688 477.652344 615.527344 483.242188 619.421875 488.796875 C 623.398438 494.449219 627.414062 500.078125 631.472656 505.675781 C 633.550781 508.554688 635.644531 511.433594 637.75 514.300781 C 641.492188 519.4375 645.273438 524.5625 649.050781 529.679688 C 650.605469 531.785156 652.15625 533.875 653.710938 535.980469 C 654.453125 536.980469 655.183594 537.988281 655.925781 538.984375 C 657.378906 540.957031 658.839844 542.917969 660.320312 544.875 C 661.101562 545.910156 661.648438 547.035156 662.007812 548.285156 C 663.382812 552.984375 662.820312 554.046875 658.390625 556.199219 " fill-opacity="1" fill-rule="nonzero"/><path fill="#e8eee4" d="M 655.925781 538.984375 C 655.859375 540.847656 654.691406 541.929688 652.011719 543.265625 C 643.910156 547.300781 632.019531 550.085938 622.792969 550.105469 C 615.878906 550.226562 609.242188 548.933594 602.859375 546.289062 C 598.917969 544.660156 595.03125 542.933594 591.28125 540.902344 C 566.316406 527.363281 553.078125 506.042969 551.582031 478.042969 C 550.5625 459.019531 555.894531 441.214844 566.996094 425.417969 C 568.789062 422.878906 570.449219 420.222656 572.957031 418.242188 C 573.058594 418.164062 573.15625 418.085938 573.257812 418.019531 C 574.957031 420.90625 576.703125 423.785156 578.46875 426.632812 C 585.535156 438.050781 592.984375 449.210938 600.28125 460.472656 C 602.789062 464.347656 605.332031 468.195312 607.902344 472.023438 C 611.679688 477.652344 615.527344 483.242188 619.421875 488.796875 C 623.398438 494.449219 627.414062 500.078125 631.472656 505.675781 C 633.550781 508.554688 635.644531 511.433594 637.75 514.300781 C 641.492188 519.4375 645.273438 524.5625 649.050781 529.679688 C 650.605469 531.785156 652.15625 533.875 653.710938 535.980469 C 654.453125 536.980469 655.183594 537.988281 655.925781 538.984375 " fill-opacity="1" fill-rule="nonzero"/><path fill="#f0af28" d="M 649.050781 529.679688 C 645.410156 533.339844 641.054688 535.953125 636.132812 537.609375 C 633.984375 538.328125 631.828125 539.078125 629.613281 539.527344 C 623.785156 540.699219 619.273438 536.945312 618.066406 531.132812 C 616.039062 521.351562 617.214844 511.609375 617.667969 501.855469 C 617.871094 497.476562 618.699219 493.136719 619.421875 488.796875 C 623.398438 494.449219 645.273438 524.5625 649.050781 529.679688 " fill-opacity="1" fill-rule="nonzero"/><path fill="#f0af28" d="M 597.539062 534.820312 C 593.421875 534.421875 589.40625 531.808594 585.761719 528.550781 C 584.179688 527.132812 582.75 525.527344 581.351562 523.925781 C 577.90625 519.980469 577.90625 515.152344 581.324219 511.148438 C 581.960938 510.394531 582.703125 509.703125 583.492188 509.105469 C 590.085938 504.125 595.933594 498.335938 601.730469 492.476562 C 603.632812 490.554688 605.71875 488.816406 608.144531 487.578125 C 610.351562 486.445312 611.375 486.765625 612.808594 488.804688 C 614.242188 490.839844 615.007812 492.960938 614.535156 495.585938 C 612.933594 504.390625 611.542969 513.230469 609.984375 522.039062 C 609.613281 524.125 609.039062 526.203125 608.300781 528.195312 C 606.59375 532.765625 603.328125 534.898438 597.539062 534.820312 " fill-opacity="1" fill-rule="nonzero"/><path fill="#f0af28" d="M 607.902344 472.023438 C 597.667969 469.742188 587.253906 468.148438 577.484375 464.082031 C 571.011719 461.375 567.988281 456.78125 568.003906 449.558594 C 567.925781 446.382812 569.015625 443.148438 570.253906 439.960938 C 571.964844 435.546875 574.753906 431.75 577.375 427.871094 C 577.679688 427.429688 578.046875 427 578.46875 426.632812 C 585.535156 438.050781 592.984375 449.210938 600.28125 460.472656 C 602.789062 464.347656 605.332031 468.195312 607.902344 472.023438 " fill-opacity="1" fill-rule="nonzero"/><path fill="#f0af28" d="M 573.019531 468.871094 C 575.292969 468.894531 579.261719 470.0625 583.269531 470.953125 C 588.25 472.058594 593.222656 473.199219 598.1875 474.367188 C 600.253906 474.855469 602.363281 475.265625 604.167969 476.480469 C 606.910156 478.3125 607.175781 480.371094 604.929688 482.828125 C 604.367188 483.449219 603.6875 483.992188 602.992188 484.472656 C 597.507812 488.28125 591.929688 492.253906 585.46875 493.863281 C 579.960938 495.234375 574.308594 496.953125 568.351562 495.742188 C 562.378906 494.527344 557.277344 488.957031 560.933594 481.710938 C 561.441406 480.710938 561.820312 479.742188 561.738281 478.496094 C 561.273438 471.457031 564.015625 468.699219 573.019531 468.871094 " fill-opacity="1" fill-rule="nonzero"/><path fill="#ffffff" d="M 773.730469 505.039062 C 774.214844 507.441406 775.464844 509.050781 778.113281 508.8125 C 780.351562 508.613281 781.488281 507.066406 781.453125 504.960938 C 781.429688 502.863281 780.246094 501.320312 778.027344 501.15625 C 775.367188 500.957031 774.191406 502.660156 773.730469 505.039062 " fill-opacity="1" fill-rule="nonzero"/><path fill="#ffffff" d="M 707.53125 708.292969 C 708.199219 710.359375 709.609375 711.425781 711.828125 711.070312 C 714.023438 710.71875 715.316406 709.246094 715.007812 707.085938 C 714.652344 704.550781 712.835938 703.28125 710.285156 703.910156 C 708.191406 704.421875 707.183594 705.996094 707.53125 708.292969 " fill-opacity="1" fill-rule="nonzero"/><path fill="#e8eee4" d="M 666.109375 168.636719 C 672.066406 168.015625 678.601562 167.410156 685.109375 166.628906 C 686.996094 166.398438 688.882812 165.839844 690.644531 165.132812 C 695.742188 163.074219 698.238281 158.609375 696.953125 154.164062 C 695.628906 149.601562 691.269531 146.785156 685.992188 147.910156 C 681.679688 148.828125 677.347656 149.234375 673.015625 149.738281 C 659.246094 151.339844 646.375 149.207031 634.859375 140.863281 C 629.617188 137.0625 624.886719 137.464844 621.722656 141.378906 C 618.707031 145.113281 619.339844 150.492188 623.550781 154.640625 C 628.746094 159.773438 635.332031 162.445312 642.132812 164.699219 C 649.734375 167.226562 657.578125 168.136719 666.109375 168.636719 " fill-opacity="1" fill-rule="nonzero"/><path fill="#ffffff" d="M 586.328125 162.242188 C 585.308594 162.609375 583.722656 163.035156 582.261719 163.742188 C 569.847656 169.710938 558.730469 177.570312 548.671875 186.949219 C 546.871094 188.625 545.28125 190.558594 544.726562 193.0625 C 544.300781 195.003906 544.328125 196.914062 546.269531 198.160156 C 547.832031 199.160156 549.546875 198.882812 550.917969 197.980469 C 552.488281 196.941406 553.832031 195.527344 555.203125 194.199219 C 564.65625 185 574.785156 176.753906 586.992188 171.382812 C 587.984375 170.945312 589 170.464844 589.84375 169.796875 C 591.441406 168.535156 592.398438 166.9375 591.566406 164.808594 C 590.855469 162.984375 589.246094 162.113281 586.328125 162.242188 " fill-opacity="1" fill-rule="nonzero"/><path fill="#ffffff" d="M 854.609375 334.582031 C 856.253906 334.65625 857.890625 334.664062 859.386719 333.824219 C 860.90625 332.964844 861.914062 331.761719 861.824219 329.910156 C 861.730469 328.082031 860.742188 326.816406 859.054688 326.265625 C 857.765625 325.855469 856.398438 325.667969 855.050781 325.480469 C 846.671875 324.339844 838.304688 323.179688 829.910156 322.132812 C 823.722656 321.363281 819.175781 323.019531 819.667969 325.914062 C 820.515625 330.808594 824.941406 330.808594 828.628906 331.328125 C 836.734375 332.476562 844.855469 333.429688 852.972656 334.453125 C 853.515625 334.523438 854.066406 334.542969 854.609375 334.582031 " fill-opacity="1" fill-rule="nonzero"/><path fill="#ffffff" d="M 512.308594 294.125 C 515.550781 294.125 518.808594 294.273438 522.046875 294.078125 C 524.425781 293.941406 526.273438 292.625 526.273438 290.023438 C 526.273438 287.503906 524.566406 285.945312 522.183594 285.75 C 512.996094 284.992188 503.800781 284.351562 494.59375 283.816406 C 492.292969 283.683594 490.144531 284.550781 489.929688 287.28125 C 489.730469 289.851562 491.511719 291.316406 493.726562 291.890625 C 499.808594 293.476562 506.078125 293.585938 512.308594 294.125 " fill-opacity="1" fill-rule="nonzero"/><path fill="#ffffff" d="M 520.496094 227.015625 C 520.660156 229.761719 521.394531 231.53125 523.40625 232.273438 C 525.609375 233.085938 527.34375 231.753906 528.179688 230.054688 C 531.449219 223.441406 534.566406 216.773438 538.777344 210.664062 C 540.054688 208.816406 538.921875 206.929688 537.234375 205.707031 C 535.753906 204.636719 533.972656 204.679688 532.671875 205.863281 C 526.175781 211.757812 522.613281 219.332031 520.496094 227.015625 " fill-opacity="1" fill-rule="nonzero"/><path fill="#81b5ad" d="M 657.546875 45.488281 C 656.636719 52.875 655.738281 60.257812 654.84375 67.640625 C 653.234375 80.746094 651.664062 93.867188 650.09375 106.945312 C 648.433594 120.828125 646.792969 134.6875 645.152344 148.546875 C 642.507812 171.027344 639.90625 193.472656 637.34375 215.945312 C 635.792969 229.414062 634.269531 242.878906 632.769531 256.394531 C 630.421875 277.257812 628.121094 298.164062 625.84375 319.0625 C 624.1875 334.429688 622.523438 349.792969 620.917969 365.148438 C 619.472656 378.679688 618.074219 392.160156 616.710938 405.679688 C 614.597656 426.238281 612.554688 446.804688 610.589844 467.441406 C 609.238281 481.164062 607.933594 494.929688 606.683594 508.683594 C 604.699219 530.222656 602.796875 551.753906 601 573.289062 C 599.859375 586.804688 598.761719 600.320312 597.71875 613.824219 C 596.90625 624.144531 596.113281 634.457031 595.355469 644.773438 C 594.769531 652.636719 594.226562 660.46875 593.722656 668.265625 C 592.785156 682.230469 591.988281 696.152344 591.324219 710.007812 C 590.195312 733.808594 589.453125 757.507812 589.3125 781.03125 C 589.320312 781.105469 589.300781 781.179688 589.308594 781.253906 C 589.273438 788.167969 588.871094 795.230469 588.550781 802.257812 C 588.417969 805.398438 588.292969 808.5 588.535156 811.46875 C 588.902344 815.699219 590.011719 817.804688 592.546875 817.136719 C 595.75 816.285156 598.984375 815.652344 602.148438 815.535156 C 604.839844 815.449219 606.300781 812.527344 607.457031 807.964844 C 608.71875 802.839844 609.152344 797.726562 609.292969 792.578125 C 609.410156 788.15625 609.519531 783.765625 609.625 779.371094 C 609.984375 764.851562 610.277344 750.371094 610.792969 735.839844 C 611.003906 729.429688 611.292969 723.007812 611.609375 716.582031 C 612.300781 702.550781 613.195312 688.488281 614.242188 674.460938 C 615.566406 656.410156 617.121094 638.390625 618.765625 620.320312 C 619.296875 614.542969 619.832031 608.769531 620.375 603.015625 C 621.191406 594.191406 622.03125 585.398438 622.882812 576.574219 C 625.015625 554.242188 627.226562 531.890625 629.5 509.5625 C 630.984375 494.699219 632.5 479.855469 634.027344 464.984375 C 635.976562 446.15625 637.953125 427.320312 639.925781 408.484375 C 641.441406 393.996094 642.964844 379.46875 644.484375 364.980469 C 646.304688 347.714844 648.097656 330.460938 649.898438 313.203125 C 651.707031 295.839844 653.523438 278.453125 655.355469 261.085938 C 656.867188 246.769531 658.367188 232.484375 659.902344 218.160156 C 662.246094 195.972656 664.617188 173.808594 667.023438 151.636719 C 668.621094 136.851562 670.207031 122.101562 671.84375 107.339844 C 673.152344 95.25 674.480469 83.1875 675.832031 71.121094 C 676.773438 62.578125 677.710938 54.03125 678.664062 45.488281 L 657.546875 45.488281 " fill-opacity="1" fill-rule="nonzero"/><path fill="#ed8080" d="M 662.25 197.625 C 660.710938 211.945312 659.214844 226.238281 657.703125 240.558594 C 650.175781 238.90625 642.675781 237.28125 635.117188 235.863281 C 636.613281 222.347656 638.140625 208.882812 639.691406 195.410156 C 647.203125 196.257812 654.722656 196.929688 662.25 197.625 " fill-opacity="1" fill-rule="nonzero"/><path fill="#ed8080" d="M 671.851562 107.339844 C 670.207031 122.097656 668.625 136.851562 667.023438 151.628906 C 663.675781 151.179688 660.34375 150.699219 656.996094 150.246094 C 653.039062 149.722656 649.101562 149.117188 645.152344 148.546875 C 646.792969 134.683594 648.4375 120.828125 650.097656 106.941406 C 657.335938 107.074219 664.582031 107.210938 671.851562 107.339844 " fill-opacity="1" fill-rule="nonzero"/><path fill="#ed8080" d="M 657.546875 45.488281 C 656.636719 52.875 655.738281 60.257812 654.84375 67.640625 C 658.144531 68.226562 661.425781 68.839844 664.71875 69.402344 C 668.40625 70.058594 672.121094 70.664062 675.832031 71.121094 C 676.773438 62.578125 677.710938 54.03125 678.664062 45.488281 L 657.546875 45.488281 " fill-opacity="1" fill-rule="nonzero"/><path fill="#ed8080" d="M 643.148438 379.535156 C 641.628906 394.027344 640.105469 408.550781 638.589844 423.042969 C 630.789062 422.585938 623.074219 421.484375 615.375 420.238281 C 616.734375 406.710938 618.140625 393.234375 619.585938 379.703125 C 627.359375 380.34375 635.234375 380.140625 643.148438 379.535156 " fill-opacity="1" fill-rule="nonzero"/><path fill="#ed8080" d="M 652.421875 290.050781 C 650.910156 304.539062 649.378906 319.0625 647.863281 333.550781 C 640.0625 333.097656 632.347656 332 624.648438 330.75 C 626.011719 317.226562 627.421875 303.75 628.859375 290.214844 C 636.632812 290.855469 644.511719 290.652344 652.421875 290.050781 " fill-opacity="1" fill-rule="nonzero"/><path fill="#ed8080" d="M 614.242188 674.460938 C 613.199219 688.488281 612.300781 702.550781 611.609375 716.582031 C 604.835938 714.4375 598.089844 712.234375 591.328125 710.007812 C 591.992188 696.15625 592.789062 682.230469 593.722656 668.265625 C 600.28125 671.769531 607.238281 673.246094 614.242188 674.460938 " fill-opacity="1" fill-rule="nonzero"/><path fill="#ed8080" d="M 622.882812 576.574219 C 622.03125 585.398438 621.195312 594.191406 620.375 603.015625 C 619.828125 608.769531 619.292969 614.542969 618.765625 620.320312 C 614.085938 618.472656 609.371094 616.820312 604.601562 615.53125 C 602.320312 614.90625 600.003906 614.394531 597.722656 613.824219 C 598.761719 600.320312 599.859375 586.804688 601 573.289062 C 608.246094 574.726562 615.617188 575.265625 622.882812 576.574219 " fill-opacity="1" fill-rule="nonzero"/><path fill="#ed8080" d="M 634.03125 464.988281 C 632.496094 479.855469 630.984375 494.699219 629.5 509.5625 C 629.425781 509.574219 629.335938 509.5625 629.257812 509.574219 C 621.683594 509.65625 614.164062 509.335938 606.683594 508.683594 C 607.933594 494.929688 609.242188 481.164062 610.59375 467.441406 C 618.089844 466.769531 625.585938 465.863281 633.109375 465.058594 C 633.417969 465.015625 633.730469 464.976562 634.03125 464.988281 " fill-opacity="1" fill-rule="nonzero"/><path fill="#ed8080" d="M 609.625 779.371094 C 609.519531 783.765625 609.414062 788.15625 609.292969 792.578125 C 609.15625 797.726562 608.722656 802.839844 607.457031 807.964844 C 606.300781 812.527344 604.839844 815.449219 602.148438 815.535156 C 598.984375 815.652344 595.75 816.285156 592.542969 817.136719 C 590.007812 817.804688 588.902344 815.699219 588.535156 811.46875 C 588.292969 808.5 588.421875 805.402344 588.550781 802.257812 C 588.867188 795.230469 589.269531 788.167969 589.308594 781.253906 C 596 781.441406 602.816406 780.355469 609.625 779.371094 " fill-opacity="1" fill-rule="nonzero"/><path fill="#498882" d="M 613.679688 747.027344 C 613.433594 753.734375 612.382812 760.027344 610.410156 765.894531 C 609.699219 768.03125 608.863281 770.09375 607.902344 772.101562 C 606.78125 774.453125 605.503906 776.710938 604.046875 778.898438 C 603.011719 780.425781 601.910156 781.917969 600.699219 783.375 C 598.535156 785.992188 596.082031 788.460938 593.308594 790.789062 C 590.5 793.160156 587.726562 795.609375 584.988281 798.0625 C 582.554688 800.253906 580.117188 802.4375 577.683594 804.625 C 577.609375 804.691406 577.539062 804.753906 577.472656 804.804688 C 576.4375 805.726562 575.351562 806.546875 573.914062 805.941406 C 572.3125 805.28125 572.417969 803.679688 572.417969 802.277344 C 572.402344 798.011719 572.417969 793.761719 572.417969 789.492188 C 573.753906 776.050781 574.675781 762.589844 577.910156 749.433594 C 581.21875 736.003906 587.738281 724.714844 599.476562 716.851562 C 601.820312 715.273438 604.183594 713.617188 607.050781 713.117188 C 608.4375 712.890625 609.429688 712.851562 610.140625 713.101562 C 611.316406 713.511719 611.773438 714.652344 611.988281 716.871094 C 612.023438 717.246094 612.0625 717.601562 612.097656 717.972656 C 613.039062 727.628906 614.035156 737.285156 613.679688 747.027344 " fill-opacity="1" fill-rule="nonzero"/><path fill="#81b5ad" d="M 614.195312 715.238281 C 613.449219 716.125 612.757812 717.035156 612.097656 717.972656 C 608.488281 723.082031 606.003906 728.804688 603.65625 734.621094 C 602.65625 737.109375 601.945312 739.757812 600.808594 742.175781 C 599.386719 745.199219 599.832031 747.8125 601.519531 750.585938 C 604.578125 755.617188 607.476562 760.777344 610.410156 765.894531 C 609.699219 768.03125 608.863281 770.09375 607.902344 772.101562 C 607.367188 771.355469 606.890625 770.554688 606.464844 769.753906 C 604.058594 765.398438 601.734375 761.023438 599.351562 756.652344 C 598.835938 755.691406 598.640625 754.496094 597.234375 753.679688 C 595.902344 756.34375 595.242188 759.191406 594.480469 761.988281 C 594.089844 763.351562 595.15625 764.402344 595.792969 765.46875 C 598.515625 769.953125 601.285156 774.429688 604.046875 778.898438 C 603.011719 780.425781 601.910156 781.917969 600.699219 783.375 C 598.746094 779.980469 596.8125 776.5625 594.832031 773.167969 C 594.214844 772.082031 593.878906 770.785156 592.738281 770.019531 C 591.742188 770.605469 591.707031 771.65625 591.472656 772.582031 C 589.269531 781.0625 587.015625 789.546875 584.988281 798.0625 C 582.554688 800.253906 580.117188 802.4375 577.683594 804.625 C 577.609375 804.691406 577.539062 804.753906 577.472656 804.804688 C 578.910156 798.648438 580.523438 792.550781 582.160156 786.46875 C 587.191406 767.671875 592.492188 748.96875 600.113281 731.011719 C 602.460938 725.515625 605.058594 720.144531 608.503906 715.238281 C 609.023438 714.511719 609.554688 713.796875 610.140625 713.101562 C 610.375 712.800781 610.621094 712.515625 610.886719 712.25 C 611.972656 711.09375 613.359375 710.664062 614.621094 711.878906 C 615.84375 713.050781 615.066406 714.203125 614.195312 715.238281 " fill-opacity="1" fill-rule="nonzero"/><path fill="#498882" d="M 696.253906 540.792969 C 696.253906 542.09375 696.195312 543.375 696.128906 544.652344 C 695.453125 556.835938 691.824219 568.445312 687.097656 579.917969 C 686.171875 582.171875 685.410156 582.816406 684.019531 582.171875 C 683.492188 581.945312 682.871094 581.519531 682.121094 580.910156 C 681 580.007812 680.058594 578.972656 679.261719 577.851562 C 678.242188 576.488281 677.445312 574.953125 676.679688 573.40625 C 672.199219 564.25 671.207031 554.402344 670.882812 544.621094 C 671.382812 529.824219 673.246094 515.546875 680.058594 502.347656 C 680.484375 501.511719 680.875 500.660156 681.359375 499.878906 C 681.550781 499.574219 681.746094 499.289062 681.960938 499.027344 C 683.1875 497.441406 684.679688 497.199219 685.929688 498.191406 C 686.246094 498.4375 686.53125 498.761719 686.816406 499.171875 C 687.132812 499.632812 687.367188 500.183594 687.578125 500.699219 C 690.992188 509.269531 693.496094 518.054688 695.007812 527.15625 C 695.222656 528.3125 695.398438 529.46875 695.558594 530.625 C 695.648438 531.320312 695.738281 532.011719 695.808594 532.707031 C 696.128906 535.445312 696.253906 538.128906 696.253906 540.792969 " fill-opacity="1" fill-rule="nonzero"/><path fill="#81b5ad" d="M 696.253906 540.792969 C 696.253906 542.09375 696.195312 543.375 696.128906 544.652344 C 695.683594 545.347656 695.183594 546.007812 694.636719 546.597656 C 692.273438 549.046875 689.871094 551.484375 687.3125 553.722656 C 685.800781 555.054688 685.121094 556.476562 685.054688 558.472656 C 684.824219 566.382812 684.109375 574.277344 684.019531 582.171875 C 683.949219 586.050781 684.058594 589.910156 684.433594 593.785156 C 684.535156 595.011719 684.910156 596.578125 683.296875 597.058594 C 681.425781 597.59375 680.324219 596.273438 679.761719 594.726562 C 678.636719 591.597656 678.6875 588.328125 678.867188 585.054688 C 678.992188 582.65625 679.136719 580.257812 679.261719 577.851562 C 679.789062 568.054688 680.347656 558.253906 680.839844 548.476562 C 681.460938 536.117188 681.144531 523.761719 681.109375 511.417969 C 681.089844 507.5625 681.339844 503.722656 681.359375 499.878906 C 681.550781 499.574219 681.746094 499.289062 681.960938 499.027344 C 683.1875 497.441406 684.679688 497.199219 685.929688 498.191406 C 685.90625 498.988281 685.871094 499.789062 685.835938 500.609375 C 685.320312 511.527344 685.746094 522.464844 685.679688 533.398438 C 685.679688 533.949219 685.605469 534.558594 686.457031 535.085938 C 689.265625 533.167969 691.523438 530.460938 694.070312 528.078125 C 694.386719 527.777344 694.6875 527.460938 695.007812 527.15625 C 695.222656 528.3125 695.398438 529.46875 695.558594 530.625 C 695.648438 531.320312 695.738281 532.011719 695.808594 532.707031 C 693.511719 534.996094 691.238281 537.332031 688.75 539.390625 C 685.78125 541.84375 684.878906 544.675781 685.820312 548.621094 C 687.933594 547.425781 689.25 545.546875 690.863281 544.050781 C 692.113281 542.894531 693.300781 541.652344 694.882812 540.941406 C 695.332031 540.726562 695.808594 540.652344 696.253906 540.792969 " fill-opacity="1" fill-rule="nonzero"/><path fill="#81b5ad" d="M 663.613281 770.804688 C 663.132812 772.332031 661.679688 772.992188 659.222656 772.691406 C 658.78125 772.636719 658.335938 772.566406 657.910156 772.492188 C 654.105469 771.941406 650.457031 771.054688 647.011719 769.769531 C 645.375 769.183594 643.8125 768.507812 642.28125 767.746094 C 640.34375 766.785156 638.480469 765.683594 636.71875 764.421875 C 635.0625 763.261719 633.464844 761.964844 631.972656 760.527344 C 630.691406 759.335938 629.480469 758.039062 628.328125 756.628906 C 623.210938 750.410156 621.179688 742.867188 621.039062 735.933594 C 620.898438 732.359375 621.148438 729.941406 622.035156 728.359375 C 622.851562 726.882812 624.222656 726.152344 626.300781 725.90625 C 627.367188 725.765625 628.644531 725.765625 630.140625 725.867188 C 634.175781 726.136719 637.835938 727.679688 641.21875 729.890625 C 645.300781 732.558594 648.648438 735.984375 651.382812 740.042969 C 657 748.347656 660.910156 757.429688 663.453125 767.109375 C 663.863281 768.632812 663.917969 769.882812 663.613281 770.804688 " fill-opacity="1" fill-rule="nonzero"/><path fill="#498882" d="M 663.613281 770.804688 C 663.132812 772.332031 661.679688 772.992188 659.222656 772.691406 C 658.78125 772.636719 658.335938 772.566406 657.910156 772.492188 C 655.117188 767.980469 652.269531 763.460938 649.320312 758.75 C 648.074219 759.8125 648.074219 760.9375 647.933594 761.988281 C 647.613281 764.582031 647.332031 767.175781 647.011719 769.769531 C 645.375 769.183594 643.8125 768.507812 642.28125 767.746094 C 642.925781 763.445312 643.492188 759.125 645 754.996094 C 645.324219 754.125 645.539062 753.394531 644.929688 752.632812 C 643.351562 750.675781 641.75 748.738281 639.566406 746.050781 C 638.105469 752.792969 637.09375 758.605469 636.71875 764.421875 C 635.0625 763.261719 633.464844 761.964844 631.972656 760.527344 C 632.578125 756.453125 633.535156 752.433594 634.375 748.398438 C 634.535156 747.5625 634.636719 746.675781 634.976562 745.925781 C 636.238281 743.101562 635.101562 741.195312 633.003906 739.277344 C 629.253906 735.792969 625.710938 732.097656 622.125 728.449219 C 622.089844 728.414062 622.074219 728.390625 622.035156 728.359375 C 620.988281 727.277344 619.917969 726.152344 619.636719 724.570312 C 619.441406 723.507812 619.738281 722.597656 620.789062 722.066406 C 621.675781 721.605469 622.476562 721.886719 623.101562 722.542969 C 624.148438 723.683594 625.21875 724.804688 626.300781 725.90625 C 637.75 737.710938 650.457031 748.421875 658.78125 763 C 660.308594 765.664062 661.960938 768.230469 663.613281 770.804688 " fill-opacity="1" fill-rule="nonzero"/><path fill="#81b5ad" d="M 741.550781 542.023438 C 741.144531 544.300781 740.695312 546.558594 740.144531 548.78125 C 738.8125 554.277344 736.964844 559.574219 734.03125 564.5 C 733.441406 565.460938 732.820312 566.40625 732.167969 567.328125 C 731.878906 567.71875 731.59375 568.105469 731.308594 568.503906 C 730.121094 570.101562 728.875 571.613281 727.558594 573.039062 C 726.3125 574.386719 725 575.664062 723.613281 576.859375 C 719.207031 580.699219 714.152344 583.667969 708.269531 585.589844 C 705.035156 586.65625 701.816406 587.757812 698.582031 588.824219 C 697.65625 589.128906 696.683594 589.304688 696.304688 589.390625 C 694.050781 589.5 693.085938 588.824219 692.644531 587.136719 C 692.023438 584.769531 692.699219 582.671875 693.496094 580.523438 C 698.976562 565.921875 708.269531 554.488281 721.53125 546.273438 C 726.511719 543.199219 731.734375 540.667969 737.101562 538.464844 C 739.773438 537.398438 741.386719 538.019531 741.636719 540.105469 C 741.710938 540.636719 741.671875 541.277344 741.550781 542.023438 " fill-opacity="1" fill-rule="nonzero"/><path fill="#498882" d="M 741.550781 542.023438 C 741.144531 544.300781 740.695312 546.558594 740.144531 548.78125 C 736.109375 552.867188 732.019531 556.902344 727.96875 560.976562 C 727.578125 561.371094 727.0625 561.707031 727.113281 562.757812 C 729.425781 563.433594 731.71875 564.019531 734.03125 564.5 C 733.441406 565.460938 732.820312 566.40625 732.167969 567.328125 C 731.878906 567.71875 731.59375 568.105469 731.308594 568.503906 C 729.796875 568.160156 728.285156 567.789062 726.796875 567.382812 C 723.21875 566.367188 720.394531 567.023438 718.347656 570.777344 C 721.320312 572.113281 724.519531 572.269531 727.558594 573.039062 C 726.3125 574.386719 725 575.664062 723.613281 576.859375 C 721.246094 576.425781 718.882812 576.003906 716.574219 575.347656 C 714.351562 574.703125 712.855469 575.347656 711.242188 576.839844 C 707.382812 580.410156 703.414062 583.863281 699.382812 587.226562 C 696.734375 589.449219 695.148438 589.640625 694.332031 588.09375 C 693.085938 585.730469 695.273438 584.855469 696.59375 583.742188 C 712.503906 570.082031 727.539062 555.554688 741.636719 540.105469 C 741.710938 540.636719 741.671875 541.277344 741.550781 542.023438 " fill-opacity="1" fill-rule="nonzero"/><path fill="#f0af28" d="M 762.625 624.539062 C 760.722656 629.742188 758.621094 634.871094 756.574219 640.015625 C 748.46875 660.332031 734.921875 676.300781 716.957031 688.476562 C 699.753906 700.148438 681.007812 708.472656 660.527344 712.578125 C 654.933594 713.699219 649.269531 714.148438 641.707031 714.304688 C 626.917969 713.921875 611.324219 709.460938 596.730469 701.625 C 582.015625 693.71875 569.601562 682.984375 559.496094 669.632812 C 557.519531 667.027344 555.707031 664.304688 554.339844 661.3125 C 551.585938 655.289062 552.507812 652.890625 558.648438 650.542969 C 559.363281 650.261719 560.085938 649.992188 560.8125 649.714844 C 574.410156 644.511719 588.054688 639.425781 601.613281 634.140625 C 651.375 614.742188 701.882812 597.457031 752.496094 580.484375 C 753.722656 580.074219 754.945312 579.671875 756.164062 579.273438 C 757.769531 578.738281 759.382812 578.21875 761.007812 577.734375 C 764.539062 576.675781 765.21875 577.015625 766.441406 580.351562 C 767.5625 583.4375 768.152344 586.578125 768.386719 589.898438 C 769.207031 601.933594 766.707031 613.363281 762.625 624.539062 " fill-opacity="1" fill-rule="nonzero"/><path fill="#e8eee4" d="M 756.164062 592.023438 C 755.972656 605.082031 753.34375 617.734375 749.859375 630.214844 C 745.667969 645.25 737.101562 657.382812 724.777344 666.867188 C 709.6875 678.476562 692.683594 686.078125 674.324219 690.84375 C 667.441406 692.617188 660.574219 694.421875 653.488281 695.183594 C 645.074219 696.09375 636.777344 694.707031 628.4375 693.925781 C 609.5 692.15625 593.976562 683.144531 579.839844 671.179688 C 576.261719 668.148438 572.792969 664.980469 569.457031 661.679688 C 565.910156 658.171875 563.007812 654.171875 560.808594 649.71875 C 574.40625 644.511719 588.050781 639.429688 601.609375 634.140625 C 651.371094 614.742188 701.878906 597.457031 752.492188 580.484375 C 753.71875 580.074219 754.9375 579.671875 756.160156 579.273438 L 756.160156 580.511719 C 756.164062 584.347656 756.164062 588.1875 756.164062 592.023438 " fill-opacity="1" fill-rule="nonzero"/><path fill="#efd13f" d="M 692.996094 676.617188 C 687.101562 676.855469 683.785156 674.261719 681.585938 670.046875 C 678.882812 664.855469 677.132812 659.289062 675.667969 653.648438 C 673.066406 643.621094 670.578125 633.558594 668.019531 623.515625 C 667.378906 620.996094 666.652344 618.601562 669.488281 616.738281 C 672.164062 614.988281 674.648438 614.835938 677.789062 616.84375 C 687.957031 623.359375 697.910156 630.1875 707.542969 637.476562 C 709.8125 639.183594 712.03125 640.980469 714.429688 642.496094 C 719.277344 645.566406 721.125 650.429688 722.359375 655.585938 C 723.035156 658.453125 722.453125 661.289062 720.085938 663.398438 C 712.523438 670.152344 703.992188 675 693.820312 676.554688 C 693.261719 676.644531 692.6875 676.636719 692.996094 676.617188 " fill-opacity="1" fill-rule="nonzero"/><path fill="#efd13f" d="M 645.847656 688.933594 C 641.65625 689.269531 637.621094 688.53125 633.71875 687.101562 C 629.878906 685.695312 628.371094 683.316406 628.683594 679.21875 C 628.894531 676.382812 629.480469 673.613281 630.511719 670.929688 C 633.464844 663.230469 636.890625 655.742188 640.484375 648.335938 C 643.648438 641.816406 646.78125 635.285156 649.40625 628.53125 C 650.835938 624.859375 652.09375 623.371094 656.773438 623.671875 C 660.414062 623.902344 663.386719 626.675781 664.132812 630.289062 C 665.578125 637.226562 666.945312 644.1875 668.429688 651.125 C 669.789062 657.503906 671.238281 663.867188 672.703125 670.222656 C 673.363281 673.085938 673.128906 675.789062 672.113281 678.558594 C 670.515625 682.910156 667.660156 685.636719 663.144531 686.816406 C 657.457031 688.300781 651.652344 688.5625 645.847656 688.933594 " fill-opacity="1" fill-rule="nonzero"/><path fill="#efd13f" d="M 610.910156 680.5625 C 609.34375 680.183594 607.257812 679.757812 605.21875 679.167969 C 598.273438 677.144531 592.144531 673.714844 587.035156 668.539062 C 584.386719 665.855469 582.460938 662.761719 581.722656 659.007812 C 580.925781 654.972656 582.148438 651.738281 585.535156 649.351562 C 587.527344 647.945312 589.761719 647.015625 592.011719 646.164062 C 601.960938 642.394531 611.917969 638.636719 621.898438 634.953125 C 626.960938 633.085938 632.046875 631.28125 636.679688 628.453125 C 638.398438 627.410156 640.015625 626.890625 641.675781 628.539062 C 643.242188 630.078125 643.414062 631.335938 642.046875 633.863281 C 635.082031 646.726562 628.101562 659.574219 621.089844 672.410156 C 619.859375 674.660156 618.300781 676.6875 616.421875 678.460938 C 615.019531 679.777344 613.375 680.496094 610.910156 680.5625 " fill-opacity="1" fill-rule="nonzero"/><path fill="#efd13f" d="M 744.1875 606.136719 C 744.332031 613.570312 743.199219 620.859375 741.320312 628.035156 C 740.449219 631.378906 738.902344 634.421875 736.46875 636.925781 C 733.5625 639.921875 730.191406 640.652344 726.359375 639.035156 C 724.925781 638.433594 723.546875 637.652344 722.265625 636.773438 C 712.640625 630.160156 702.332031 624.71875 692.261719 618.855469 C 690.789062 618 689.257812 617.210938 687.894531 616.195312 C 685.054688 614.082031 685.363281 611.589844 688.574219 610.074219 C 697.699219 605.761719 707.015625 601.902344 716.394531 598.210938 C 721.683594 596.132812 726.910156 593.878906 732.269531 592.019531 C 740.363281 589.203125 743.636719 591.527344 744.164062 600.167969 C 744.285156 602.152344 744.1875 604.148438 744.1875 606.136719 " fill-opacity="1" fill-rule="nonzero"/><path fill="#ffffff" d="M 778.125 565.9375 C 778.039062 567.671875 777.730469 568.996094 776.238281 569.25 C 774.6875 569.511719 773.976562 568.324219 773.6875 567.019531 C 773.261719 565.109375 772.917969 563.175781 772.664062 561.238281 C 772.503906 560.023438 772.960938 559.003906 774.28125 558.664062 C 775.605469 558.328125 776.566406 558.988281 776.894531 560.171875 C 777.445312 562.1875 777.78125 564.265625 778.125 565.9375 " fill-opacity="1" fill-rule="nonzero"/><path fill="#b1d9d2" d="M 591.214844 300.925781 C 588.621094 302.539062 586.847656 303.351562 585.441406 304.578125 C 580.632812 308.773438 580.851562 315.457031 585.839844 319.519531 C 587.777344 321.097656 590.097656 321.898438 592.449219 322.691406 C 609.035156 328.300781 625.910156 332.691406 643.234375 335.355469 C 651.074219 336.554688 658.835938 338.199219 666.648438 339.566406 C 669.0625 339.992188 671.53125 340.464844 673.960938 340.394531 C 681.5625 340.179688 685.714844 334.410156 682.605469 327.617188 C 680.984375 324.078125 681.152344 321.96875 683.359375 318.847656 C 687.144531 313.5 686.394531 309.410156 681.523438 305.148438 C 679.671875 303.527344 677.5625 302.21875 676.417969 299.9375 C 673.132812 293.378906 667.355469 290.761719 660.5 289.898438 C 643.671875 287.78125 626.855469 285.527344 609.898438 284.683594 C 606.34375 284.507812 602.746094 284.558594 599.257812 283.972656 C 594.039062 283.101562 589.085938 283.109375 586.414062 288.421875 C 583.9375 293.351562 586.40625 297.363281 591.214844 300.925781 " fill-opacity="1" fill-rule="nonzero"/><path fill="#ffffff" d="M 697.472656 798.128906 C 694.800781 798.066406 690.617188 793.765625 690.65625 791.140625 C 690.679688 789.066406 693.660156 786.691406 695.988281 786.875 C 699.660156 787.148438 701.929688 789.773438 701.789062 793.527344 C 701.691406 796.191406 699.816406 798.167969 697.472656 798.128906 Z M 695.394531 781.816406 C 690.65625 781.695312 685.78125 786.242188 685.664062 790.878906 C 685.523438 796.488281 691.742188 802.949219 697.371094 803.0625 C 702.71875 803.183594 706.785156 799.097656 706.847656 793.527344 C 706.925781 786.675781 702.347656 781.992188 695.394531 781.816406 " fill-opacity="1" fill-rule="nonzero"/><path fill="#ffffff" d="M 689.816406 746.21875 C 687.824219 746.453125 685.101562 743.6875 684.984375 741.261719 C 684.863281 739.304688 686.484375 737.53125 688.378906 737.488281 C 690.609375 737.449219 692.839844 739.699219 692.9375 742.089844 C 693.015625 744.183594 691.652344 746 689.816406 746.21875 Z M 688.335938 732.476562 C 683.636719 732.453125 679.847656 736.421875 679.832031 741.363281 C 679.8125 745.957031 685.039062 751.488281 689.40625 751.511719 C 693.847656 751.511719 697.933594 747.300781 698.074219 742.5625 C 698.226562 737.269531 693.628906 732.488281 688.335938 732.476562 " fill-opacity="1" fill-rule="nonzero"/></svg>