<svg xmlns="http://www.w3.org/2000/svg" xmlns:xlink="http://www.w3.org/1999/xlink" width="500" zoomAndPan="magnify" viewBox="0 0 375 374.999991" height="500" preserveAspectRatio="xMidYMid meet" version="1.0"><defs><clipPath id="fd87369e50"><path d="M 163 27.222656 L 210 27.222656 L 210 73 L 163 73 Z M 163 27.222656 " clip-rule="nonzero"/></clipPath><clipPath id="db26646da7"><path d="M 118 280 L 179 280 L 179 347.472656 L 118 347.472656 Z M 118 280 " clip-rule="nonzero"/></clipPath><clipPath id="d6932cb560"><path d="M 196 280 L 257 280 L 257 347.472656 L 196 347.472656 Z M 196 280 " clip-rule="nonzero"/></clipPath></defs><path fill="#3bb77e" d="M 239.78125 244.042969 L 135.214844 244.042969 C 132.511719 244.042969 130.226562 241.757812 130.226562 238.847656 L 130.226562 232.609375 C 130.226562 226.164062 135.214844 220.96875 141.660156 220.96875 L 233.128906 220.96875 C 239.363281 220.96875 244.5625 226.164062 244.5625 232.609375 L 244.5625 238.847656 C 244.5625 241.964844 242.273438 244.042969 239.78125 244.042969 Z M 140.203125 234.066406 L 234.582031 234.066406 L 234.582031 232.609375 C 234.582031 231.777344 233.957031 231.15625 233.128906 231.15625 L 141.660156 231.15625 C 140.828125 231.15625 140.203125 231.777344 140.203125 232.609375 Z M 140.203125 234.066406 " fill-opacity="1" fill-rule="evenodd"/><path fill="#3bb77e" d="M 199.867188 231.363281 C 196.957031 231.363281 194.667969 229.074219 194.667969 226.164062 L 194.667969 61.9375 C 194.667969 59.027344 196.957031 56.742188 199.867188 56.742188 C 202.777344 56.742188 205.0625 59.027344 205.0625 61.9375 L 205.0625 226.582031 C 204.855469 229.074219 202.570312 231.363281 199.867188 231.363281 Z M 173.050781 231.363281 C 170.140625 231.363281 167.851562 229.074219 167.851562 226.164062 L 167.851562 61.9375 C 167.851562 59.027344 170.140625 56.742188 173.050781 56.742188 C 175.960938 56.742188 178.246094 59.027344 178.246094 61.9375 L 178.246094 226.582031 C 178.246094 229.074219 175.960938 231.363281 173.050781 231.363281 Z M 173.050781 231.363281 " fill-opacity="1" fill-rule="evenodd"/><g clip-path="url(#fd87369e50)"><path fill="#3bb77e" d="M 186.355469 72.75 C 173.671875 72.75 163.488281 62.355469 163.488281 50.089844 C 163.488281 36.992188 173.671875 27.222656 186.355469 27.222656 C 199.242188 27.222656 209.21875 37.410156 209.21875 50.089844 C 209.429688 62.355469 199.035156 72.75 186.355469 72.75 Z M 186.355469 36.992188 C 179.078125 36.992188 173.671875 42.8125 173.671875 49.671875 C 173.671875 56.742188 179.492188 62.355469 186.355469 62.355469 C 193.214844 62.355469 199.035156 56.742188 199.035156 49.671875 C 199.242188 42.8125 193.628906 36.992188 186.355469 36.992188 Z M 186.355469 36.992188 " fill-opacity="1" fill-rule="evenodd"/></g><path fill="#3bb77e" d="M 254.746094 56.949219 L 204.230469 56.949219 C 201.320312 56.949219 199.035156 54.664062 199.035156 52.167969 C 199.035156 49.464844 201.320312 46.972656 204.230469 46.972656 L 254.953125 46.972656 C 257.863281 46.972656 260.152344 49.257812 260.152344 52.167969 C 260.152344 54.871094 257.449219 56.949219 254.746094 56.949219 Z M 168.683594 56.949219 L 120.664062 56.949219 C 117.753906 56.949219 115.464844 54.664062 115.464844 52.167969 C 115.464844 49.464844 117.753906 46.972656 120.664062 46.972656 L 169.097656 46.972656 C 172.007812 46.972656 174.296875 49.257812 174.296875 52.167969 C 174.296875 54.871094 171.59375 56.949219 168.683594 56.949219 Z M 168.683594 56.949219 " fill-opacity="1" fill-rule="evenodd"/><path fill="#3bb77e" d="M 143.320312 169.414062 L 97.585938 169.414062 C 92.597656 169.414062 88.648438 167.957031 85.738281 165.046875 C 80.332031 159.644531 80.542969 150.703125 80.542969 143.84375 C 80.542969 142.804688 80.542969 141.765625 80.542969 140.933594 C 80.542969 138.023438 82.828125 135.738281 85.738281 135.738281 C 88.648438 135.738281 90.9375 138.023438 90.9375 140.933594 C 90.9375 141.765625 90.9375 142.804688 90.9375 144.050781 C 90.9375 148.832031 90.726562 155.484375 93.222656 158.1875 C 93.429688 158.394531 94.675781 159.644531 97.796875 159.644531 L 143.320312 159.644531 C 146.648438 159.644531 147.480469 158.394531 147.894531 158.1875 C 150.597656 155.484375 150.390625 148.625 150.390625 143.84375 C 150.390625 142.804688 150.390625 141.765625 150.390625 140.933594 C 150.390625 138.023438 152.675781 135.738281 155.585938 135.738281 C 158.289062 135.738281 160.785156 138.023438 160.785156 140.933594 C 160.785156 141.765625 160.785156 142.597656 160.785156 143.429688 C 160.785156 150.703125 160.992188 159.644531 155.585938 165.046875 C 152.054688 167.75 148.3125 169.414062 143.320312 169.414062 Z M 143.320312 169.414062 " fill-opacity="1" fill-rule="evenodd"/><path fill="#3bb77e" d="M 155.171875 145.714844 L 85.945312 145.714844 C 84.285156 145.714844 82.828125 144.882812 81.996094 143.429688 C 81.164062 141.972656 80.75 140.308594 81.371094 138.855469 L 116.089844 50.296875 C 116.921875 48.21875 118.582031 47.179688 120.664062 47.179688 C 122.535156 47.179688 124.613281 48.21875 125.234375 50.296875 L 159.746094 138.855469 C 160.367188 140.308594 160.160156 141.972656 159.328125 143.429688 C 158.289062 144.882812 156.835938 145.714844 155.171875 145.714844 Z M 93.222656 135.738281 L 147.6875 135.738281 L 120.246094 65.886719 Z M 93.222656 135.738281 " fill-opacity="1" fill-rule="evenodd"/><path fill="#3bb77e" d="M 277.40625 169.414062 L 231.878906 169.414062 C 226.890625 169.414062 223.148438 167.957031 220.445312 165.046875 C 214.832031 159.644531 214.832031 150.703125 215.25 143.429688 C 215.25 142.597656 215.25 141.765625 215.25 140.933594 C 215.25 138.023438 217.535156 135.738281 220.445312 135.738281 C 223.148438 135.738281 225.644531 138.023438 225.644531 140.933594 C 225.644531 141.765625 225.644531 142.597656 225.644531 143.84375 C 225.644531 148.625 225.226562 155.484375 227.929688 158.1875 C 228.136719 158.394531 229.386719 159.644531 232.503906 159.644531 L 278.03125 159.644531 C 281.148438 159.644531 282.394531 158.394531 282.601562 158.1875 C 285.304688 155.484375 284.890625 148.832031 284.890625 144.050781 C 284.890625 142.804688 284.890625 141.972656 284.890625 140.933594 C 284.890625 138.023438 287.175781 135.738281 290.085938 135.738281 C 292.996094 135.738281 295.285156 138.023438 295.285156 140.933594 C 295.285156 141.765625 295.285156 142.804688 295.285156 143.84375 C 295.285156 150.703125 295.699219 159.644531 290.085938 165.046875 C 286.34375 167.75 282.601562 169.414062 277.40625 169.414062 Z M 277.40625 169.414062 " fill-opacity="1" fill-rule="evenodd"/><path fill="#3bb77e" d="M 289.253906 145.714844 L 220.03125 145.714844 C 218.367188 145.714844 216.914062 144.882812 216.082031 143.429688 C 215.25 141.972656 214.832031 140.308594 215.457031 138.855469 L 249.964844 50.296875 C 251.003906 48.21875 252.667969 47.179688 254.746094 47.179688 C 256.617188 47.179688 258.695312 48.21875 259.320312 50.296875 L 293.828125 138.855469 C 294.453125 140.308594 294.246094 141.972656 293.207031 143.429688 C 292.375 144.882812 290.917969 145.714844 289.253906 145.714844 Z M 227.515625 135.738281 L 281.980469 135.738281 L 254.746094 65.886719 Z M 227.515625 135.738281 " fill-opacity="1" fill-rule="evenodd"/><path fill="#3bb77e" d="M 123.988281 330.316406 C 122.535156 330.316406 121.285156 329.691406 120.039062 328.652344 C 108.398438 314.722656 100.082031 311.605469 90.726562 308.070312 C 72.851562 301.417969 52.269531 294.144531 12.148438 221.800781 C 6.949219 212.652344 11.316406 203.921875 18.175781 199.972656 C 21.917969 197.894531 26.078125 197.269531 29.816406 197.894531 C 34.183594 198.726562 37.925781 201.636719 40.421875 206 C 43.121094 210.988281 45.617188 215.5625 47.902344 219.929688 C 54.972656 233.027344 60.585938 243.835938 68.484375 251.941406 C 70.980469 246.121094 76.800781 243.210938 83.035156 244.667969 L 114.21875 251.941406 C 131.472656 255.894531 137.292969 264.832031 144.570312 276.058594 C 146.230469 278.96875 148.3125 281.878906 150.390625 284.789062 C 152.054688 287.074219 151.429688 290.191406 149.144531 291.648438 C 146.855469 293.3125 143.738281 292.894531 142.28125 290.402344 C 140.410156 287.074219 138.539062 284.164062 136.460938 281.253906 C 129.601562 270.652344 125.445312 264.625 112.347656 261.296875 L 80.75 254.230469 C 80.332031 253.8125 78.460938 253.605469 77.632812 255.894531 C 77.421875 257.140625 77.007812 258.386719 78.253906 259.632812 C 87.402344 265.457031 99.457031 269.195312 117.128906 270.652344 C 120.039062 270.859375 122.117188 273.148438 121.703125 276.058594 C 121.496094 278.96875 119.207031 281.046875 116.296875 280.628906 C 66.613281 276.265625 55.804688 255.683594 38.964844 224.085938 C 36.679688 219.929688 34.390625 215.5625 31.898438 210.574219 C 28.988281 205.378906 23.996094 208.078125 23.375 208.289062 C 22.542969 208.910156 18.175781 211.40625 21.085938 216.394531 C 59.546875 285.621094 77.839844 292.273438 94.46875 298.300781 C 104.449219 302.042969 115.050781 305.785156 128.148438 322 C 129.808594 323.871094 129.601562 327.40625 127.523438 329.066406 C 126.277344 329.691406 125.234375 330.316406 123.988281 330.316406 Z M 123.988281 330.316406 " fill-opacity="1" fill-rule="evenodd"/><g clip-path="url(#db26646da7)"><path fill="#3bb77e" d="M 146.855469 347.777344 C 145.191406 347.777344 143.320312 347.359375 141.867188 346.320312 L 123.15625 335.097656 C 118.792969 332.601562 117.335938 326.78125 120.039062 322.207031 L 142.492188 284.789062 C 143.945312 282.5 146.023438 281.046875 148.519531 280.421875 C 150.804688 279.800781 153.507812 280.421875 155.585938 281.460938 L 173.878906 292.480469 C 175.960938 293.726562 177.621094 295.597656 178.246094 298.300781 C 178.871094 300.796875 178.453125 303.496094 177.414062 305.578125 L 154.964844 342.996094 C 153.507812 345.28125 151.429688 346.738281 149.144531 347.359375 C 148.3125 347.570312 147.480469 347.777344 146.855469 347.777344 Z M 128.976562 326.78125 L 146.648438 337.175781 L 168.269531 301.210938 L 150.597656 290.816406 Z M 168.683594 301.835938 Z M 149.972656 290.402344 Z M 149.972656 290.402344 " fill-opacity="1" fill-rule="evenodd"/></g><path fill="#3bb77e" d="M 251.003906 330.316406 C 249.757812 330.316406 248.71875 329.898438 247.679688 329.066406 C 245.808594 327.40625 245.183594 324.285156 247.261719 322 C 260.359375 305.785156 270.753906 302.042969 280.941406 298.300781 C 296.945312 292.273438 315.449219 285.621094 353.90625 216.601562 C 356.402344 211.820312 352.453125 208.910156 351.621094 208.703125 C 350.582031 208.078125 346.007812 206 343.097656 210.988281 C 340.601562 215.5625 338.316406 220.136719 336.027344 224.503906 C 319.191406 255.894531 308.378906 276.679688 258.695312 281.046875 C 255.785156 281.253906 253.5 279.175781 253.292969 276.265625 C 252.875 273.5625 254.953125 271.277344 257.863281 270.859375 C 275.742188 269.40625 287.800781 265.664062 296.738281 259.84375 C 297.988281 259.011719 297.570312 257.347656 297.363281 256.515625 C 296.53125 254.230469 294.453125 254.4375 293.828125 254.644531 L 262.644531 261.921875 C 249.550781 265.039062 245.808594 271.277344 238.53125 281.878906 C 236.867188 284.371094 234.789062 287.699219 232.503906 291.023438 C 230.839844 293.3125 227.515625 293.933594 225.644531 292.273438 C 223.148438 290.402344 222.734375 287.28125 224.394531 285.203125 C 226.683594 282.085938 228.347656 279.175781 230.21875 276.679688 C 237.285156 265.457031 243.105469 256.722656 260.359375 252.359375 L 291.542969 245.289062 C 297.988281 243.835938 303.597656 246.746094 306.507812 252.359375 C 314.410156 244.460938 320.023438 233.648438 327.089844 220.136719 C 329.375 215.769531 331.664062 211.199219 334.574219 206.625 C 339.769531 197.269531 349.542969 196.4375 356.402344 200.179688 C 363.261719 203.921875 368.042969 212.859375 362.847656 222.214844 C 322.515625 294.558594 302.144531 302.042969 284.265625 308.277344 C 274.910156 311.8125 266.386719 314.929688 254.953125 328.859375 C 253.707031 329.484375 252.460938 330.316406 251.003906 330.316406 Z M 251.003906 330.316406 " fill-opacity="1" fill-rule="evenodd"/><g clip-path="url(#d6932cb560)"><path fill="#3bb77e" d="M 228.347656 347.777344 C 227.515625 347.777344 226.890625 347.777344 226.058594 347.570312 C 223.566406 346.945312 221.484375 345.488281 220.445312 343.203125 L 197.789062 305.785156 C 196.332031 303.496094 196.125 300.796875 196.957031 298.507812 C 197.578125 296.222656 199.242188 294.144531 201.320312 292.894531 L 220.03125 281.460938 C 221.902344 280.421875 224.394531 279.800781 226.683594 280.421875 C 229.386719 281.046875 231.257812 282.5 232.710938 284.789062 L 255.164062 322.207031 C 257.863281 326.78125 256.410156 332.601562 252.042969 335.097656 L 233.335938 346.320312 C 231.878906 347.359375 230.21875 347.777344 228.347656 347.777344 Z M 206.726562 301.417969 L 228.347656 337.382812 L 246.015625 327.195312 L 224.394531 291.023438 Z M 206.519531 301.835938 Z M 204.023438 297.46875 Z M 225.226562 290.191406 Z M 225.226562 290.191406 " fill-opacity="1" fill-rule="evenodd"/></g></svg>