<svg xmlns="http://www.w3.org/2000/svg" xmlns:xlink="http://www.w3.org/1999/xlink" width="500" zoomAndPan="magnify" viewBox="0 0 375 374.999991" height="500" preserveAspectRatio="xMidYMid meet" version="1.0"><defs><clipPath id="ffd5b0cf10"><path d="M 19 27.582031 L 357.648438 27.582031 L 357.648438 343 L 19 343 Z M 19 27.582031 " clip-rule="nonzero"/></clipPath></defs><g clip-path="url(#ffd5b0cf10)"><path fill="#3bb77e" d="M 331.4375 27.710938 L 172.972656 27.710938 C 172.109375 27.714844 171.246094 27.757812 170.386719 27.84375 C 169.523438 27.929688 168.671875 28.054688 167.824219 28.226562 C 166.976562 28.394531 166.136719 28.605469 165.308594 28.855469 C 164.484375 29.109375 163.667969 29.398438 162.871094 29.730469 C 162.074219 30.0625 161.292969 30.433594 160.53125 30.839844 C 159.765625 31.25 159.027344 31.691406 158.308594 32.171875 C 157.589844 32.652344 156.894531 33.167969 156.226562 33.71875 C 155.558594 34.265625 154.917969 34.84375 154.308594 35.457031 C 153.695312 36.070312 153.117188 36.707031 152.566406 37.375 C 152.019531 38.046875 151.503906 38.738281 151.023438 39.457031 C 150.542969 40.175781 150.097656 40.917969 149.691406 41.679688 C 149.28125 42.441406 148.914062 43.222656 148.582031 44.019531 C 148.25 44.820312 147.957031 45.632812 147.707031 46.460938 C 147.457031 47.289062 147.246094 48.125 147.074219 48.972656 C 146.90625 49.820312 146.777344 50.675781 146.691406 51.535156 C 146.605469 52.394531 146.5625 53.257812 146.5625 54.125 L 146.5625 104.597656 C 143.921875 104.425781 141.28125 104.304688 138.640625 104.304688 C 136.75 104.304688 134.859375 104.347656 132.972656 104.4375 C 131.085938 104.527344 129.199219 104.660156 127.320312 104.839844 C 125.4375 105.019531 123.5625 105.246094 121.691406 105.515625 C 119.820312 105.785156 117.957031 106.097656 116.101562 106.453125 C 114.246094 106.8125 112.398438 107.214844 110.5625 107.660156 C 108.726562 108.105469 106.902344 108.597656 105.089844 109.128906 C 103.273438 109.664062 101.476562 110.238281 99.691406 110.859375 C 97.90625 111.476562 96.132812 112.136719 94.378906 112.839844 C 92.625 113.542969 90.890625 114.289062 89.171875 115.074219 C 87.453125 115.863281 85.753906 116.6875 84.074219 117.554688 C 82.394531 118.421875 80.738281 119.328125 79.101562 120.277344 C 77.464844 121.222656 75.851562 122.207031 74.265625 123.230469 C 72.675781 124.253906 71.113281 125.3125 69.574219 126.414062 C 68.035156 127.511719 66.523438 128.644531 65.039062 129.8125 C 63.554688 130.984375 62.101562 132.1875 60.671875 133.429688 C 59.246094 134.667969 57.851562 135.941406 56.484375 137.246094 C 55.117188 138.550781 53.785156 139.890625 52.480469 141.257812 C 51.179688 142.628906 49.910156 144.027344 48.675781 145.460938 C 47.4375 146.890625 46.238281 148.347656 45.074219 149.835938 C 43.90625 151.324219 42.777344 152.835938 41.683594 154.378906 C 40.589844 155.921875 39.535156 157.488281 38.515625 159.078125 C 37.496094 160.671875 36.515625 162.285156 35.574219 163.921875 C 34.632812 165.5625 33.730469 167.222656 32.867188 168.902344 C 32.003906 170.585938 31.183594 172.285156 30.402344 174.007812 C 29.617188 175.726562 28.878906 177.464844 28.179688 179.222656 C 27.480469 180.980469 26.824219 182.75 26.210938 184.539062 C 25.597656 186.324219 25.027344 188.125 24.5 189.941406 C 23.96875 191.753906 23.484375 193.582031 23.042969 195.417969 C 22.605469 197.257812 22.207031 199.105469 21.855469 200.960938 C 21.5 202.816406 21.191406 204.683594 20.929688 206.554688 C 20.664062 208.425781 20.445312 210.300781 20.269531 212.183594 C 20.097656 214.066406 19.96875 215.949219 19.882812 217.839844 C 19.796875 219.726562 19.757812 221.613281 19.765625 223.503906 C 19.769531 225.394531 19.820312 227.285156 19.917969 229.171875 C 20.011719 231.058594 20.152344 232.941406 20.339844 234.824219 C 20.523438 236.703125 20.753906 238.578125 21.027344 240.449219 C 21.304688 242.320312 21.625 244.179688 21.988281 246.035156 C 22.351562 247.890625 22.757812 249.734375 23.210938 251.570312 C 23.664062 253.40625 24.160156 255.230469 24.699219 257.039062 C 25.238281 258.851562 25.816406 260.648438 26.441406 262.433594 C 27.066406 264.214844 27.734375 265.984375 28.441406 267.734375 C 29.152344 269.488281 29.902344 271.222656 30.695312 272.9375 C 31.484375 274.65625 32.316406 276.351562 33.191406 278.027344 C 34.0625 279.703125 34.976562 281.359375 35.925781 282.992188 C 36.878906 284.625 37.867188 286.234375 38.898438 287.820312 C 39.925781 289.40625 40.992188 290.964844 42.09375 292.5 C 43.195312 294.035156 44.335938 295.542969 45.507812 297.023438 C 46.683594 298.503906 47.894531 299.953125 49.136719 301.378906 C 50.382812 302.800781 51.660156 304.191406 52.96875 305.554688 C 54.277344 306.917969 55.621094 308.246094 56.996094 309.542969 C 58.367188 310.84375 59.773438 312.105469 61.207031 313.335938 C 62.640625 314.570312 64.105469 315.765625 65.59375 316.925781 C 67.085938 318.085938 68.605469 319.210938 70.148438 320.300781 C 71.695312 321.390625 73.265625 322.441406 74.859375 323.453125 C 76.453125 324.46875 78.070312 325.441406 79.714844 326.378906 C 81.355469 327.316406 83.019531 328.214844 84.703125 329.070312 C 86.386719 329.925781 88.089844 330.746094 89.8125 331.519531 C 91.535156 332.296875 93.277344 333.03125 95.035156 333.722656 C 96.792969 334.417969 98.566406 335.066406 100.355469 335.675781 C 102.148438 336.285156 103.949219 336.847656 105.765625 337.371094 C 107.582031 337.894531 109.410156 338.371094 111.25 338.808594 C 113.089844 339.242188 114.9375 339.632812 116.792969 339.980469 C 118.652344 340.328125 120.515625 340.628906 122.390625 340.886719 C 124.261719 341.144531 126.140625 341.359375 128.019531 341.527344 C 129.902344 341.695312 131.789062 341.820312 133.675781 341.898438 C 135.566406 341.976562 137.453125 342.011719 139.34375 342 C 141.234375 341.988281 143.125 341.929688 145.011719 341.828125 C 146.898438 341.726562 148.78125 341.578125 150.660156 341.386719 C 152.542969 341.195312 154.417969 340.960938 156.285156 340.679688 C 158.152344 340.398438 160.015625 340.074219 161.867188 339.703125 C 163.722656 339.332031 165.566406 338.917969 167.398438 338.460938 C 169.234375 338.003906 171.054688 337.503906 172.863281 336.957031 C 174.671875 336.414062 176.46875 335.824219 178.25 335.195312 C 180.03125 334.566406 181.796875 333.894531 183.546875 333.179688 C 185.296875 332.464844 187.03125 331.707031 188.742188 330.910156 C 190.457031 330.113281 192.148438 329.277344 193.824219 328.398438 C 195.496094 327.519531 197.148438 326.601562 198.777344 325.644531 C 200.410156 324.6875 202.015625 323.695312 203.597656 322.660156 C 205.179688 321.628906 206.738281 320.554688 208.269531 319.449219 C 209.800781 318.339844 211.304688 317.199219 212.78125 316.019531 C 214.257812 314.839844 215.703125 313.625 217.125 312.375 C 218.542969 311.128906 219.929688 309.847656 221.289062 308.53125 C 222.644531 307.21875 223.972656 305.871094 225.265625 304.492188 C 226.558594 303.113281 227.816406 301.707031 229.042969 300.269531 C 230.269531 298.832031 231.460938 297.363281 232.617188 295.871094 C 233.773438 294.375 234.894531 292.851562 235.980469 291.304688 C 237.0625 289.757812 238.109375 288.183594 239.117188 286.585938 C 240.125 284.988281 241.097656 283.363281 242.027344 281.722656 C 242.957031 280.078125 243.851562 278.410156 244.703125 276.722656 C 245.554688 275.035156 246.367188 273.328125 247.136719 271.605469 C 247.90625 269.878906 248.636719 268.136719 249.324219 266.375 C 250.011719 264.613281 250.65625 262.839844 251.257812 261.046875 C 251.859375 259.257812 252.417969 257.453125 252.9375 255.632812 C 253.453125 253.816406 253.925781 251.984375 254.355469 250.144531 C 254.785156 248.304688 255.167969 246.457031 255.511719 244.597656 C 255.851562 242.738281 256.148438 240.871094 256.398438 239 L 331.4375 239 C 332.300781 238.996094 333.164062 238.953125 334.027344 238.867188 C 334.886719 238.78125 335.742188 238.65625 336.589844 238.484375 C 337.4375 238.316406 338.273438 238.105469 339.101562 237.855469 C 339.929688 237.601562 340.742188 237.3125 341.539062 236.980469 C 342.339844 236.648438 343.121094 236.277344 343.882812 235.871094 C 344.644531 235.460938 345.382812 235.019531 346.105469 234.539062 C 346.824219 234.058594 347.515625 233.542969 348.183594 232.992188 C 348.851562 232.445312 349.492188 231.863281 350.105469 231.253906 C 350.714844 230.640625 351.296875 230.003906 351.84375 229.335938 C 352.394531 228.664062 352.90625 227.972656 353.386719 227.253906 C 353.867188 226.535156 354.3125 225.792969 354.722656 225.03125 C 355.128906 224.269531 355.5 223.488281 355.828125 222.691406 C 356.160156 221.890625 356.453125 221.078125 356.703125 220.25 C 356.957031 219.421875 357.167969 218.585938 357.335938 217.738281 C 357.503906 216.890625 357.632812 216.035156 357.71875 215.175781 C 357.804688 214.316406 357.847656 213.453125 357.847656 212.585938 L 357.847656 54.125 C 357.847656 53.257812 357.804688 52.394531 357.71875 51.535156 C 357.632812 50.675781 357.503906 49.820312 357.335938 48.972656 C 357.167969 48.125 356.957031 47.289062 356.703125 46.460938 C 356.453125 45.632812 356.160156 44.820312 355.828125 44.019531 C 355.5 43.222656 355.128906 42.441406 354.722656 41.679688 C 354.3125 40.917969 353.867188 40.175781 353.386719 39.457031 C 352.90625 38.738281 352.394531 38.046875 351.84375 37.375 C 351.296875 36.707031 350.714844 36.070312 350.105469 35.457031 C 349.492188 34.84375 348.851562 34.265625 348.183594 33.71875 C 347.515625 33.167969 346.824219 32.652344 346.101562 32.171875 C 345.382812 31.691406 344.644531 31.25 343.882812 30.839844 C 343.121094 30.433594 342.339844 30.0625 341.539062 29.730469 C 340.742188 29.398438 339.929688 29.109375 339.101562 28.855469 C 338.273438 28.605469 337.4375 28.394531 336.589844 28.226562 C 335.742188 28.054688 334.886719 27.929688 334.027344 27.84375 C 333.164062 27.757812 332.300781 27.714844 331.4375 27.710938 Z M 138.640625 331.4375 C 136.867188 331.4375 135.097656 331.390625 133.328125 331.304688 C 131.558594 331.214844 129.792969 331.085938 128.027344 330.910156 C 126.265625 330.738281 124.507812 330.519531 122.753906 330.257812 C 121.003906 330 119.257812 329.695312 117.519531 329.347656 C 115.78125 329.003906 114.054688 328.613281 112.335938 328.183594 C 110.617188 327.753906 108.910156 327.28125 107.214844 326.765625 C 105.519531 326.25 103.835938 325.695312 102.167969 325.097656 C 100.5 324.5 98.847656 323.863281 97.210938 323.183594 C 95.574219 322.503906 93.957031 321.785156 92.355469 321.027344 C 90.753906 320.269531 89.171875 319.472656 87.609375 318.636719 C 86.046875 317.800781 84.503906 316.929688 82.984375 316.019531 C 81.46875 315.105469 79.96875 314.160156 78.496094 313.175781 C 77.023438 312.191406 75.578125 311.167969 74.152344 310.113281 C 72.730469 309.058594 71.335938 307.96875 69.964844 306.84375 C 68.597656 305.71875 67.253906 304.5625 65.941406 303.371094 C 64.628906 302.183594 63.347656 300.960938 62.09375 299.707031 C 60.84375 298.453125 59.621094 297.171875 58.429688 295.859375 C 57.242188 294.546875 56.085938 293.203125 54.960938 291.835938 C 53.835938 290.464844 52.746094 289.066406 51.691406 287.644531 C 50.636719 286.222656 49.617188 284.773438 48.632812 283.300781 C 47.648438 281.828125 46.703125 280.332031 45.792969 278.808594 C 44.878906 277.289062 44.007812 275.75 43.171875 274.1875 C 42.335938 272.625 41.542969 271.042969 40.785156 269.441406 C 40.027344 267.839844 39.308594 266.21875 38.632812 264.582031 C 37.953125 262.945312 37.316406 261.292969 36.71875 259.625 C 36.121094 257.957031 35.566406 256.273438 35.054688 254.578125 C 34.539062 252.882812 34.066406 251.175781 33.636719 249.457031 C 33.207031 247.738281 32.816406 246.011719 32.472656 244.273438 C 32.125 242.535156 31.824219 240.789062 31.5625 239.039062 C 31.304688 237.285156 31.085938 235.527344 30.914062 233.761719 C 30.738281 232 30.609375 230.234375 30.523438 228.464844 C 30.4375 226.695312 30.390625 224.925781 30.390625 223.152344 C 30.390625 221.378906 30.4375 219.609375 30.523438 217.839844 C 30.609375 216.070312 30.738281 214.304688 30.914062 212.539062 C 31.085938 210.777344 31.304688 209.019531 31.5625 207.265625 C 31.824219 205.515625 32.125 203.769531 32.472656 202.03125 C 32.816406 200.292969 33.207031 198.566406 33.636719 196.847656 C 34.066406 195.128906 34.539062 193.421875 35.054688 191.726562 C 35.566406 190.03125 36.121094 188.347656 36.71875 186.679688 C 37.316406 185.011719 37.953125 183.359375 38.632812 181.722656 C 39.308594 180.085938 40.027344 178.464844 40.785156 176.863281 C 41.542969 175.261719 42.335938 173.679688 43.171875 172.117188 C 44.007812 170.554688 44.878906 169.015625 45.792969 167.492188 C 46.703125 165.972656 47.648438 164.476562 48.632812 163.003906 C 49.617188 161.53125 50.636719 160.082031 51.691406 158.660156 C 52.746094 157.234375 53.835938 155.839844 54.960938 154.46875 C 56.085938 153.101562 57.242188 151.757812 58.429688 150.445312 C 59.621094 149.132812 60.84375 147.851562 62.09375 146.597656 C 63.347656 145.34375 64.628906 144.121094 65.941406 142.933594 C 67.253906 141.742188 68.597656 140.585938 69.964844 139.460938 C 71.335938 138.335938 72.730469 137.246094 74.152344 136.191406 C 75.578125 135.136719 77.023438 134.113281 78.496094 133.128906 C 79.96875 132.144531 81.46875 131.199219 82.984375 130.285156 C 84.503906 129.375 86.046875 128.5 87.609375 127.667969 C 89.171875 126.832031 90.753906 126.035156 92.355469 125.277344 C 93.957031 124.519531 95.574219 123.800781 97.210938 123.121094 C 98.847656 122.441406 100.5 121.804688 102.167969 121.207031 C 103.835938 120.609375 105.519531 120.054688 107.214844 119.539062 C 108.910156 119.023438 110.617188 118.550781 112.335938 118.121094 C 114.054688 117.691406 115.78125 117.300781 117.519531 116.953125 C 119.257812 116.609375 121.003906 116.304688 122.753906 116.042969 C 124.507812 115.785156 126.265625 115.566406 128.027344 115.394531 C 129.792969 115.21875 131.558594 115.085938 133.328125 115 C 135.097656 114.914062 136.867188 114.867188 138.640625 114.867188 C 141.3125 114.867188 143.921875 115.078125 146.5625 115.269531 L 146.5625 212.585938 C 146.5625 213.453125 146.605469 214.316406 146.691406 215.175781 C 146.777344 216.035156 146.90625 216.890625 147.074219 217.738281 C 147.246094 218.585938 147.457031 219.421875 147.707031 220.25 C 147.957031 221.078125 148.25 221.890625 148.582031 222.691406 C 148.914062 223.488281 149.28125 224.269531 149.691406 225.03125 C 150.097656 225.792969 150.542969 226.535156 151.023438 227.253906 C 151.503906 227.972656 152.019531 228.664062 152.566406 229.335938 C 153.117188 230.003906 153.695312 230.640625 154.308594 231.253906 C 154.917969 231.863281 155.558594 232.445312 156.226562 232.992188 C 156.894531 233.542969 157.589844 234.058594 158.308594 234.539062 C 159.027344 235.019531 159.765625 235.460938 160.53125 235.871094 C 161.292969 236.277344 162.074219 236.648438 162.871094 236.980469 C 163.667969 237.3125 164.484375 237.601562 165.308594 237.855469 C 166.136719 238.105469 166.976562 238.316406 167.824219 238.484375 C 168.671875 238.65625 169.523438 238.78125 170.386719 238.867188 C 171.246094 238.953125 172.109375 238.996094 172.972656 239 L 245.628906 239 C 245.394531 240.585938 245.121094 242.167969 244.816406 243.742188 C 244.511719 245.316406 244.171875 246.886719 243.792969 248.445312 C 243.417969 250.007812 243.007812 251.558594 242.5625 253.101562 C 242.121094 254.640625 241.640625 256.171875 241.128906 257.695312 C 240.617188 259.214844 240.070312 260.722656 239.488281 262.21875 C 238.910156 263.714844 238.296875 265.199219 237.652344 266.667969 C 237.007812 268.136719 236.328125 269.59375 235.617188 271.03125 C 234.90625 272.46875 234.167969 273.894531 233.394531 275.300781 C 232.621094 276.707031 231.816406 278.09375 230.980469 279.464844 C 230.144531 280.835938 229.28125 282.1875 228.386719 283.519531 C 227.488281 284.851562 226.566406 286.160156 225.613281 287.453125 C 224.660156 288.742188 223.675781 290.011719 222.667969 291.261719 C 221.65625 292.507812 220.621094 293.730469 219.554688 294.933594 C 218.492188 296.132812 217.402344 297.3125 216.285156 298.464844 C 215.167969 299.617188 214.027344 300.746094 212.859375 301.847656 C 211.695312 302.949219 210.503906 304.023438 209.289062 305.074219 C 208.074219 306.121094 206.839844 307.144531 205.578125 308.136719 C 204.320312 309.132812 203.039062 310.097656 201.734375 311.035156 C 200.433594 311.972656 199.109375 312.882812 197.765625 313.757812 C 196.421875 314.636719 195.0625 315.488281 193.679688 316.304688 C 192.300781 317.121094 190.902344 317.910156 189.484375 318.664062 C 188.070312 319.421875 186.636719 320.144531 185.191406 320.835938 C 183.742188 321.53125 182.28125 322.191406 180.804688 322.816406 C 179.324219 323.445312 177.835938 324.039062 176.332031 324.597656 C 174.828125 325.160156 173.3125 325.6875 171.785156 326.179688 C 170.257812 326.675781 168.722656 327.136719 167.175781 327.558594 C 165.625 327.984375 164.070312 328.375 162.503906 328.734375 C 160.941406 329.089844 159.367188 329.410156 157.789062 329.695312 C 156.210938 329.984375 154.625 330.234375 153.035156 330.449219 C 151.445312 330.667969 149.851562 330.847656 148.253906 330.992188 C 146.65625 331.136719 145.054688 331.246094 143.449219 331.320312 C 141.847656 331.394531 140.242188 331.433594 138.640625 331.4375 Z M 206.851562 228.433594 L 242.507812 192.78125 C 243.601562 196.550781 244.480469 200.371094 245.148438 204.242188 L 220.957031 228.433594 Z M 246.648438 217.691406 C 246.738281 219.511719 246.921875 221.308594 246.921875 223.152344 C 246.921875 224.996094 246.742188 226.671875 246.652344 228.433594 L 235.90625 228.433594 Z M 191.914062 228.433594 L 177.800781 228.433594 L 234.105469 172.132812 C 235.765625 175.238281 237.277344 178.429688 238.640625 181.707031 Z M 165.050781 226.238281 C 163.566406 225.386719 162.253906 224.324219 161.113281 223.050781 C 159.972656 221.777344 159.0625 220.359375 158.382812 218.789062 L 222.457031 154.714844 C 224.570312 157.316406 226.601562 160 228.484375 162.804688 Z M 157.125 205.109375 L 157.125 191.003906 L 208.015625 140.117188 C 210.570312 142.230469 213.039062 144.496094 215.410156 146.855469 Z M 157.125 176.054688 L 157.125 161.953125 L 190.78125 128.300781 C 193.78125 129.960938 196.695312 131.75 199.519531 133.671875 Z M 157.125 147.003906 L 157.125 132.902344 L 170.390625 119.621094 C 173.90625 120.695312 177.359375 121.949219 180.75 123.378906 Z M 157.125 117.953125 L 157.125 116.554688 C 157.527344 116.621094 157.941406 116.664062 158.335938 116.742188 Z M 257.355469 228.433594 C 257.429688 226.679688 257.488281 224.921875 257.488281 223.152344 C 257.484375 221.402344 257.445312 219.652344 257.363281 217.902344 C 257.285156 216.152344 257.167969 214.40625 257.011719 212.660156 C 256.855469 210.917969 256.660156 209.179688 256.425781 207.441406 C 256.191406 205.707031 255.921875 203.976562 255.613281 202.253906 C 255.300781 200.53125 254.953125 198.816406 254.570312 197.105469 C 254.183594 195.398438 253.761719 193.699219 253.300781 192.011719 C 252.839844 190.320312 252.34375 188.644531 251.808594 186.976562 C 251.273438 185.308594 250.703125 183.652344 250.09375 182.011719 C 249.488281 180.367188 248.84375 178.742188 248.164062 177.128906 C 247.484375 175.511719 246.769531 173.914062 246.019531 172.332031 C 245.269531 170.75 244.488281 169.183594 243.667969 167.636719 C 242.847656 166.089844 241.996094 164.5625 241.109375 163.050781 C 240.222656 161.539062 239.304688 160.050781 238.351562 158.582031 C 237.398438 157.113281 236.414062 155.664062 235.398438 154.238281 C 234.382812 152.8125 233.335938 151.410156 232.257812 150.03125 C 231.179688 148.648438 230.074219 147.292969 228.933594 145.964844 C 227.796875 144.632812 226.628906 143.328125 225.433594 142.046875 C 224.238281 140.769531 223.015625 139.515625 221.765625 138.289062 C 220.515625 137.0625 219.238281 135.867188 217.933594 134.699219 C 216.632812 133.527344 215.300781 132.390625 213.949219 131.277344 C 212.59375 130.167969 211.21875 129.085938 209.816406 128.039062 C 208.414062 126.988281 206.992188 125.96875 205.542969 124.984375 C 204.097656 123.996094 202.628906 123.042969 201.140625 122.121094 C 199.652344 121.199219 198.144531 120.308594 196.617188 119.453125 C 195.089844 118.597656 193.542969 117.777344 191.980469 116.988281 C 190.414062 116.203125 188.835938 115.449219 187.238281 114.730469 C 185.640625 114.015625 184.027344 113.332031 182.402344 112.6875 C 180.773438 112.039062 179.132812 111.429688 177.476562 110.855469 C 175.824219 110.28125 174.15625 109.742188 172.480469 109.242188 C 170.800781 108.742188 169.113281 108.28125 167.414062 107.855469 C 165.714844 107.425781 164.007812 107.039062 162.292969 106.6875 C 160.578125 106.339844 158.855469 106.027344 157.125 105.75 L 157.125 54.125 C 157.125 53.605469 157.152344 53.085938 157.203125 52.570312 C 157.253906 52.054688 157.328125 51.539062 157.429688 51.03125 C 157.53125 50.523438 157.660156 50.019531 157.808594 49.523438 C 157.960938 49.027344 158.132812 48.539062 158.332031 48.058594 C 158.53125 47.578125 158.753906 47.109375 158.996094 46.652344 C 159.242188 46.195312 159.507812 45.75 159.796875 45.320312 C 160.085938 44.886719 160.394531 44.472656 160.722656 44.070312 C 161.054688 43.667969 161.402344 43.285156 161.769531 42.917969 C 162.136719 42.550781 162.519531 42.203125 162.921875 41.875 C 163.320312 41.542969 163.738281 41.234375 164.167969 40.945312 C 164.601562 40.660156 165.046875 40.390625 165.503906 40.148438 C 165.960938 39.902344 166.429688 39.679688 166.910156 39.484375 C 167.386719 39.285156 167.875 39.109375 168.375 38.957031 C 168.871094 38.808594 169.371094 38.683594 169.882812 38.582031 C 170.390625 38.480469 170.902344 38.402344 171.421875 38.351562 C 171.9375 38.300781 172.453125 38.277344 172.972656 38.277344 L 331.4375 38.277344 C 331.957031 38.277344 332.476562 38.300781 332.992188 38.351562 C 333.507812 38.402344 334.019531 38.480469 334.53125 38.582031 C 335.039062 38.683594 335.542969 38.808594 336.039062 38.957031 C 336.535156 39.109375 337.023438 39.285156 337.503906 39.484375 C 337.980469 39.679688 338.449219 39.902344 338.90625 40.148438 C 339.367188 40.390625 339.808594 40.660156 340.242188 40.945312 C 340.671875 41.234375 341.089844 41.542969 341.492188 41.875 C 341.890625 42.203125 342.277344 42.550781 342.644531 42.917969 C 343.011719 43.285156 343.359375 43.667969 343.6875 44.070312 C 344.015625 44.472656 344.324219 44.886719 344.613281 45.320312 C 344.902344 45.75 345.167969 46.195312 345.414062 46.652344 C 345.65625 47.109375 345.878906 47.578125 346.078125 48.058594 C 346.277344 48.539062 346.453125 49.027344 346.601562 49.523438 C 346.753906 50.019531 346.878906 50.523438 346.980469 51.03125 C 347.082031 51.539062 347.15625 52.054688 347.207031 52.570312 C 347.257812 53.085938 347.285156 53.605469 347.285156 54.125 L 347.285156 212.585938 C 347.269531 215.445312 346.527344 218.097656 345.0625 220.546875 L 339.398438 226.210938 C 336.949219 227.675781 334.292969 228.417969 331.4375 228.433594 Z M 257.355469 228.433594 " fill-opacity="1" fill-rule="nonzero"/></g></svg>