<svg xmlns="http://www.w3.org/2000/svg" xmlns:xlink="http://www.w3.org/1999/xlink" width="500" zoomAndPan="magnify" viewBox="0 0 375 374.999991" height="500" preserveAspectRatio="xMidYMid meet" version="1.0"><defs><clipPath id="06fd00bc4c"><path d="M 30 10.023438 L 343 10.023438 L 343 53 L 30 53 Z M 30 10.023438 " clip-rule="nonzero"/></clipPath><clipPath id="e36c0d1286"><path d="M 30 166 L 343 166 L 343 364.773438 L 30 364.773438 Z M 30 166 " clip-rule="nonzero"/></clipPath></defs><g clip-path="url(#06fd00bc4c)"><path fill="#3bb77e" d="M 44.808594 52.617188 C 36.988281 52.617188 30.613281 46.246094 30.613281 38.421875 L 30.613281 24.222656 C 30.613281 16.398438 36.988281 10.023438 44.808594 10.023438 L 328.769531 10.023438 C 336.59375 10.023438 342.96875 16.398438 342.96875 24.222656 L 342.96875 38.421875 C 342.96875 46.246094 336.59375 52.617188 328.769531 52.617188 Z M 44.808594 52.617188 " fill-opacity="1" fill-rule="nonzero"/></g><path fill="#3bb77e" d="M 31.050781 95.214844 L 6.445312 165.777344 C 6.445312 165.777344 6.207031 180.316406 20.859375 180.316406 C 33.140625 180.316406 33.167969 165.777344 33.167969 165.777344 L 54.125 95.214844 Z M 31.050781 95.214844 " fill-opacity="1" fill-rule="nonzero"/><path fill="#3bb77e" d="M 88.738281 95.214844 L 73.234375 165.777344 C 73.234375 165.777344 73.375 180.316406 87.402344 180.316406 C 101.429688 180.316406 99.953125 165.777344 99.953125 165.777344 L 111.808594 95.214844 Z M 88.738281 95.214844 " fill-opacity="1" fill-rule="nonzero"/><path fill="#3bb77e" d="M 146.410156 95.214844 L 140.035156 165.777344 C 140.035156 165.777344 140.207031 180.316406 153.738281 180.316406 C 167.269531 180.316406 166.757812 165.777344 166.757812 165.777344 L 169.484375 95.214844 Z M 146.410156 95.214844 " fill-opacity="1" fill-rule="nonzero"/><path fill="#3bb77e" d="M 204.097656 95.214844 L 206.824219 165.777344 C 206.824219 165.777344 206.328125 180.316406 220.28125 180.316406 C 234.238281 180.316406 233.542969 165.777344 233.542969 165.777344 L 227.167969 95.214844 Z M 204.097656 95.214844 " fill-opacity="1" fill-rule="nonzero"/><path fill="#3bb77e" d="M 261.785156 95.214844 L 273.640625 165.777344 C 273.640625 165.777344 274.632812 180.316406 287.722656 180.316406 C 299.917969 180.316406 300.34375 165.777344 300.34375 165.777344 L 284.839844 95.214844 Z M 261.785156 95.214844 " fill-opacity="1" fill-rule="nonzero"/><path fill="#3bb77e" d="M 319.457031 95.214844 L 340.441406 165.777344 C 340.441406 165.777344 339.644531 180.316406 354.296875 180.316406 C 368.949219 180.316406 367.160156 165.777344 367.160156 165.777344 L 342.527344 95.214844 Z M 319.457031 95.214844 " fill-opacity="1" fill-rule="nonzero"/><path fill="#3bb77e" d="M 30.613281 109.410156 L 30.613281 81.015625 C 30.613281 73.191406 36.988281 66.816406 44.808594 66.816406 L 328.769531 66.816406 C 336.59375 66.816406 342.96875 73.191406 342.96875 81.015625 L 342.96875 109.410156 Z M 30.613281 109.410156 " fill-opacity="1" fill-rule="nonzero"/><g clip-path="url(#e36c0d1286)"><path fill="#3bb77e" d="M 340.128906 166.203125 C 340.140625 166.5 340.226562 166.800781 340.226562 167.113281 C 340.226562 178.199219 331.226562 187.214844 320.121094 187.214844 C 309.019531 187.214844 300.019531 178.199219 300.019531 167.113281 C 300.019531 166.800781 300.105469 166.5 300.117188 166.203125 L 273.582031 166.203125 C 273.597656 166.5 273.679688 166.800781 273.679688 167.113281 C 273.679688 178.199219 264.679688 187.214844 253.578125 187.214844 C 242.472656 187.214844 233.472656 178.199219 233.472656 167.113281 C 233.472656 166.800781 233.558594 166.5 233.570312 166.203125 L 206.808594 166.203125 C 206.824219 166.5 206.910156 166.800781 206.910156 167.113281 C 206.910156 178.199219 197.90625 187.214844 186.804688 187.214844 C 175.699219 187.214844 166.699219 178.199219 166.699219 167.113281 C 166.699219 166.800781 166.785156 166.5 166.800781 166.203125 L 140.023438 166.203125 C 140.035156 166.5 140.121094 166.800781 140.121094 167.113281 C 140.121094 178.199219 131.121094 187.214844 120.015625 187.214844 C 108.914062 187.214844 99.914062 178.199219 99.914062 167.113281 C 99.914062 166.800781 99.996094 166.5 100.011719 166.203125 L 73.234375 166.203125 C 73.25 166.5 73.332031 166.800781 73.332031 167.113281 C 73.332031 178.199219 64.332031 187.214844 53.230469 187.214844 C 42.125 187.214844 33.125 178.199219 33.125 167.113281 C 33.125 166.800781 33.210938 166.5 33.222656 166.203125 L 30.613281 166.203125 L 30.613281 350.777344 C 30.613281 358.597656 36.988281 364.972656 44.808594 364.972656 L 229.382812 364.972656 L 229.382812 222.996094 L 300.375 222.996094 L 300.375 364.972656 L 328.769531 364.972656 C 336.59375 364.972656 342.96875 358.597656 342.96875 350.777344 L 342.96875 166.203125 Z M 186.789062 322.378906 L 73.207031 322.378906 L 73.207031 222.996094 L 186.789062 222.996094 Z M 186.789062 322.378906 " fill-opacity="1" fill-rule="nonzero"/></g></svg>