<svg xmlns="http://www.w3.org/2000/svg" xmlns:xlink="http://www.w3.org/1999/xlink" width="500" zoomAndPan="magnify" viewBox="0 0 375 374.999991" height="500" preserveAspectRatio="xMidYMid meet" version="1.0"><defs><clipPath id="76a371ca2c"><path d="M 30.230469 230 L 87 230 L 87 327 L 30.230469 327 Z M 30.230469 230 " clip-rule="nonzero"/></clipPath><clipPath id="a980d0cf15"><path d="M 289 230 L 344.480469 230 L 344.480469 327 L 289 327 Z M 289 230 " clip-rule="nonzero"/></clipPath><clipPath id="94fad21634"><path d="M 131 22.171875 L 244 22.171875 L 244 87 L 131 87 Z M 131 22.171875 " clip-rule="nonzero"/></clipPath><clipPath id="8882afba9e"><path d="M 143.140625 316 L 231.851562 316 L 231.851562 352.582031 L 143.140625 352.582031 Z M 143.140625 316 " clip-rule="nonzero"/></clipPath></defs><g clip-path="url(#76a371ca2c)"><path fill="#3bb77e" d="M 86.035156 262.421875 L 86.035156 326.855469 L 30.230469 294.648438 L 30.230469 230.214844 L 86.035156 262.421875 " fill-opacity="1" fill-rule="nonzero"/></g><path fill="#3bb77e" d="M 158.816406 230.214844 L 158.816406 294.648438 L 103.015625 326.855469 L 103.015625 262.421875 L 158.816406 230.214844 " fill-opacity="1" fill-rule="nonzero"/><path fill="#3bb77e" d="M 150.332031 215.5 L 94.519531 247.730469 L 38.714844 215.5 L 94.519531 183.292969 L 150.332031 215.5 " fill-opacity="1" fill-rule="nonzero"/><path fill="#3bb77e" d="M 272.105469 262.421875 L 272.105469 326.855469 L 216.300781 294.648438 L 216.300781 230.214844 L 272.105469 262.421875 " fill-opacity="1" fill-rule="nonzero"/><g clip-path="url(#a980d0cf15)"><path fill="#3bb77e" d="M 344.886719 230.214844 L 344.886719 294.648438 L 289.085938 326.855469 L 289.085938 262.421875 L 344.886719 230.214844 " fill-opacity="1" fill-rule="nonzero"/></g><path fill="#3bb77e" d="M 336.402344 215.5 L 280.597656 247.730469 L 224.785156 215.5 L 280.597656 183.292969 L 336.402344 215.5 " fill-opacity="1" fill-rule="nonzero"/><path fill="#3bb77e" d="M 179.0625 101.574219 L 179.0625 166.007812 L 123.261719 133.800781 L 123.261719 69.367188 L 179.0625 101.574219 " fill-opacity="1" fill-rule="nonzero"/><path fill="#3bb77e" d="M 251.859375 69.367188 L 251.859375 133.800781 L 196.042969 166.007812 L 196.042969 101.574219 L 251.859375 69.367188 " fill-opacity="1" fill-rule="nonzero"/><g clip-path="url(#94fad21634)"><path fill="#3bb77e" d="M 243.363281 54.65625 L 187.558594 86.882812 L 131.753906 54.65625 L 187.558594 22.449219 L 243.363281 54.65625 " fill-opacity="1" fill-rule="nonzero"/></g><path fill="#3bb77e" d="M 78.042969 167.847656 L 78.042969 139.890625 L 101.480469 126.355469 L 101.480469 101.699219 L 62.027344 124.476562 C 58.71875 126.386719 56.683594 129.917969 56.683594 133.726562 L 56.683594 180.164062 L 78.042969 167.847656 " fill-opacity="1" fill-rule="nonzero"/><path fill="#3bb77e" d="M 273.636719 126.355469 L 297.074219 139.890625 L 297.074219 167.847656 L 318.425781 180.164062 L 318.425781 133.726562 C 318.425781 129.917969 316.398438 126.386719 313.089844 124.476562 L 273.636719 101.699219 L 273.636719 126.355469 " fill-opacity="1" fill-rule="nonzero"/><g clip-path="url(#8882afba9e)"><path fill="#3bb77e" d="M 210.230469 316.492188 L 187.558594 329.585938 L 164.886719 316.492188 L 143.527344 328.820312 L 182.222656 351.15625 C 183.871094 352.109375 185.710938 352.582031 187.558594 352.582031 C 189.40625 352.582031 191.246094 352.109375 192.894531 351.15625 L 231.589844 328.820312 L 210.230469 316.492188 " fill-opacity="1" fill-rule="nonzero"/></g></svg>