<svg xmlns="http://www.w3.org/2000/svg" xmlns:xlink="http://www.w3.org/1999/xlink" width="500" zoomAndPan="magnify" viewBox="0 0 375 374.999991" height="500" preserveAspectRatio="xMidYMid meet" version="1.0"><defs><clipPath id="abb53f2bd6"><path d="M 169 50 L 340 50 L 340 366.925781 L 169 366.925781 Z M 169 50 " clip-rule="nonzero"/></clipPath></defs><path fill="#3bb77e" d="M 174.238281 158.199219 C 170.441406 146.316406 161.78125 136.195312 151.050781 131.121094 C 130.324219 121.285156 108.710938 122.609375 90.066406 124.609375 C 87.6875 124.867188 85.597656 126.339844 84.5625 128.5 C 83.519531 130.664062 83.679688 133.210938 84.976562 135.234375 C 87.289062 138.859375 90.671875 144.390625 92.304688 147.375 C 96.453125 154.9375 98.402344 163.667969 99.90625 171.253906 C 103.546875 189.617188 121.550781 207.136719 145.546875 207.136719 C 148.058594 207.136719 150.632812 206.941406 153.265625 206.539062 C 157.050781 205.960938 159.652344 202.425781 159.074219 198.644531 C 158.492188 194.859375 154.917969 192.242188 151.171875 192.839844 C 132.082031 195.742188 116.292969 182.636719 113.5 168.558594 C 111.800781 159.953125 109.550781 149.996094 104.460938 140.703125 C 103.945312 139.761719 103.296875 138.640625 102.582031 137.421875 C 118.523438 136.417969 132.273438 137.550781 145.113281 143.640625 C 152.425781 147.109375 158.378906 154.125 161.027344 162.410156 C 162.246094 166.226562 163.082031 171.414062 162.015625 177.34375 C 155.769531 170.410156 148.261719 162.988281 139.003906 155.027344 C 136.101562 152.527344 131.722656 152.863281 129.234375 155.765625 C 126.734375 158.667969 127.070312 163.039062 129.972656 165.542969 C 142.261719 176.105469 151.300781 185.542969 158.066406 193.949219 C 158.5 194.878906 159.136719 195.707031 159.953125 196.378906 C 172.882812 213.136719 176.683594 225.570312 179.285156 234.195312 C 179.636719 235.371094 179.976562 236.472656 180.304688 237.507812 C 173.316406 252.210938 169.074219 266.023438 167.164062 276.476562 C 166.472656 280.238281 168.96875 283.851562 172.730469 284.539062 C 173.15625 284.621094 173.570312 284.652344 173.992188 284.652344 C 177.273438 284.652344 180.191406 282.308594 180.800781 278.972656 C 182.644531 268.871094 186.832031 255.363281 193.878906 241.074219 C 193.972656 240.898438 194.054688 240.71875 194.136719 240.535156 C 198.46875 231.824219 203.925781 222.855469 210.539062 214.167969 C 211.09375 214.085938 211.652344 213.964844 212.199219 213.738281 C 227.804688 207.328125 245.867188 211.398438 246.042969 211.4375 C 249.765625 212.300781 253.488281 209.992188 254.367188 206.269531 C 255.242188 202.546875 252.929688 198.820312 249.210938 197.9375 C 248.601562 197.792969 238.691406 195.546875 226.265625 196.515625 C 236.046875 187.226562 247.558594 178.898438 261.082031 172.507812 C 264.542969 170.875 266.015625 166.742188 264.382812 163.277344 C 262.746094 159.816406 258.617188 158.34375 255.15625 159.976562 C 247.320312 163.675781 240.148438 168.003906 233.492188 172.726562 L 233.796875 171.679688 C 234.847656 168 232.71875 164.15625 229.046875 163.101562 C 225.359375 162.046875 221.53125 164.175781 220.472656 167.851562 L 214.664062 188.078125 C 214.605469 188.292969 214.589844 188.503906 214.554688 188.714844 C 205.546875 197.652344 197.890625 207.296875 191.609375 217.058594 C 188.289062 205.628906 189.789062 195.570312 192.050781 188.484375 C 196.222656 175.414062 205.632812 164.335938 217.222656 158.84375 C 238.230469 148.90625 260.609375 147.632812 286.902344 149.757812 C 284.847656 153.128906 282.84375 156.535156 281.457031 159.074219 C 274.164062 172.375 270.929688 186.765625 268.46875 199.199219 C 265.867188 212.316406 258.628906 223.601562 248.605469 230.164062 C 237.738281 237.269531 224.011719 239.085938 207.847656 235.53125 C 204.101562 234.730469 200.40625 237.082031 199.589844 240.820312 C 198.773438 244.554688 201.140625 248.257812 204.875 249.074219 C 211.121094 250.445312 217.15625 251.128906 222.957031 251.128906 C 235.414062 251.128906 246.699219 247.972656 256.191406 241.769531 C 269.5 233.054688 278.695312 218.898438 282.0625 201.890625 C 284.328125 190.46875 287.261719 177.3125 293.617188 165.730469 C 296 161.363281 301.023438 153.152344 304.527344 147.648438 C 305.816406 145.621094 305.972656 143.078125 304.929688 140.914062 C 303.894531 138.753906 301.808594 137.285156 299.425781 137.03125 C 272.425781 134.128906 241.113281 132.214844 211.296875 146.320312 C 196.296875 153.425781 184.160156 167.621094 178.839844 184.269531 C 177.664062 187.976562 176.890625 191.746094 176.410156 195.523438 C 175.214844 193.757812 173.917969 191.9375 172.527344 190.078125 C 176.972656 179.886719 177.601562 168.738281 174.238281 158.199219 Z M 174.238281 158.199219 " fill-opacity="1" fill-rule="nonzero"/><path fill="#3bb77e" d="M 133.9375 323.929688 C 134.828125 324.304688 135.738281 324.484375 136.648438 324.484375 C 139.34375 324.484375 141.910156 322.902344 143.035156 320.265625 C 144.535156 316.746094 142.890625 312.675781 139.367188 311.175781 C 84.753906 287.902344 52.332031 232.574219 58.6875 173.484375 C 65.972656 105.90625 122.542969 55.410156 188.78125 53.875 L 171.671875 67.65625 C 168.691406 70.058594 168.21875 74.417969 170.617188 77.402344 C 171.992188 79.101562 173.996094 79.984375 176.023438 79.984375 C 177.546875 79.984375 179.085938 79.484375 180.363281 78.453125 L 211.875 53.078125 C 214.851562 50.675781 215.324219 46.3125 212.925781 43.332031 L 187.550781 11.828125 C 185.152344 8.847656 180.792969 8.375 177.804688 10.777344 C 174.828125 13.179688 174.355469 17.542969 176.753906 20.523438 L 192.390625 39.9375 C 117.660156 39.644531 53.089844 96.089844 44.910156 172 C 37.890625 237.195312 73.667969 298.25 133.9375 323.929688 Z M 133.9375 323.929688 " fill-opacity="1" fill-rule="nonzero"/><g clip-path="url(#abb53f2bd6)"><path fill="#3bb77e" d="M 243.265625 63.96875 C 297.855469 86.546875 331.5625 143.390625 325.234375 202.207031 C 317.953125 269.792969 261.363281 320.304688 195.117188 321.8125 L 212.238281 308.035156 C 215.214844 305.625 215.6875 301.265625 213.289062 298.285156 C 210.882812 295.300781 206.519531 294.828125 203.542969 297.234375 L 172.03125 322.609375 C 170.601562 323.765625 169.691406 325.4375 169.488281 327.261719 C 169.296875 329.089844 169.835938 330.921875 170.980469 332.355469 L 196.363281 363.859375 C 197.734375 365.558594 199.738281 366.441406 201.757812 366.441406 C 203.292969 366.441406 204.824219 365.9375 206.109375 364.910156 C 209.085938 362.503906 209.558594 358.140625 207.160156 355.164062 L 191.507812 335.742188 C 191.691406 335.742188 191.878906 335.757812 192.0625 335.757812 C 266.570312 335.75 330.855469 279.410156 339.015625 203.695312 C 346 138.804688 308.804688 76.078125 248.5625 51.160156 C 245.023438 49.703125 240.972656 51.386719 239.503906 54.917969 C 238.042969 58.445312 239.730469 62.5 243.265625 63.96875 Z M 243.265625 63.96875 " fill-opacity="1" fill-rule="nonzero"/></g></svg>