<svg xmlns="http://www.w3.org/2000/svg" xmlns:xlink="http://www.w3.org/1999/xlink" width="500" zoomAndPan="magnify" viewBox="0 0 375 374.999991" height="500" preserveAspectRatio="xMidYMid meet" version="1.0"><defs><clipPath id="0a55bc19ab"><path d="M 42.558594 18 L 332.808594 18 L 332.808594 358 L 42.558594 358 Z M 42.558594 18 " clip-rule="nonzero"/></clipPath></defs><g clip-path="url(#0a55bc19ab)"><path fill="#3bb77e" d="M 184.796875 356.839844 C 186.597656 357.28125 188.394531 357.28125 190.195312 356.839844 C 192.710938 356.214844 195.214844 355.535156 197.703125 354.804688 C 200.195312 354.074219 202.667969 353.292969 205.125 352.460938 C 207.582031 351.628906 210.019531 350.746094 212.441406 349.808594 C 214.859375 348.875 217.261719 347.894531 219.640625 346.859375 C 222.019531 345.824219 224.375 344.742188 226.710938 343.609375 C 229.046875 342.480469 231.355469 341.300781 233.640625 340.074219 C 235.925781 338.84375 238.1875 337.570312 240.417969 336.25 C 242.652344 334.929688 244.855469 333.5625 247.03125 332.148438 C 249.207031 330.738281 251.355469 329.28125 253.46875 327.777344 C 255.585938 326.277344 257.667969 324.730469 259.71875 323.144531 C 261.773438 321.554688 263.789062 319.925781 265.773438 318.253906 C 267.757812 316.582031 269.703125 314.867188 271.617188 313.117188 C 273.53125 311.363281 275.40625 309.570312 277.242188 307.738281 C 279.082031 305.910156 280.882812 304.042969 282.640625 302.136719 C 284.402344 300.230469 286.125 298.289062 287.804688 296.3125 C 289.484375 294.335938 291.121094 292.324219 292.71875 290.28125 C 294.316406 288.234375 295.871094 286.15625 297.378906 284.046875 C 298.890625 281.941406 300.355469 279.800781 301.777344 277.628906 C 303.199219 275.460938 304.574219 273.261719 305.90625 271.035156 C 307.234375 268.804688 308.519531 266.550781 309.757812 264.269531 C 310.992188 261.992188 312.183594 259.6875 313.324219 257.355469 C 314.464844 255.027344 315.554688 252.671875 316.601562 250.296875 C 317.644531 247.921875 318.636719 245.527344 319.582031 243.109375 C 320.523438 240.695312 321.417969 238.257812 322.261719 235.804688 C 323.105469 233.351562 323.894531 230.882812 324.636719 228.394531 C 325.375 225.910156 326.066406 223.40625 326.703125 220.890625 C 327.339844 218.378906 327.921875 215.851562 328.453125 213.3125 C 328.984375 210.773438 329.464844 208.222656 329.890625 205.664062 C 330.316406 203.105469 330.6875 200.539062 331.007812 197.960938 C 331.328125 195.386719 331.59375 192.808594 331.804688 190.222656 C 332.015625 187.636719 332.175781 185.046875 332.28125 182.457031 C 332.386719 179.863281 332.4375 177.269531 332.433594 174.675781 L 332.433594 85.484375 C 332.433594 84.75 332.363281 84.027344 332.21875 83.308594 C 332.074219 82.589844 331.863281 81.894531 331.585938 81.214844 C 331.304688 80.539062 330.960938 79.898438 330.554688 79.289062 C 330.148438 78.679688 329.683594 78.117188 329.167969 77.597656 C 328.648438 77.082031 328.085938 76.621094 327.476562 76.214844 C 326.871094 75.804688 326.226562 75.460938 325.550781 75.183594 C 324.875 74.902344 324.175781 74.691406 323.457031 74.546875 C 322.742188 74.40625 322.015625 74.332031 321.285156 74.332031 C 315.480469 74.09375 309.699219 73.601562 303.941406 72.851562 C 298.183594 72.101562 292.46875 71.097656 286.796875 69.84375 C 281.125 68.585938 275.523438 67.082031 269.984375 65.332031 C 264.449219 63.578125 259 61.585938 253.640625 59.351562 C 248.277344 57.117188 243.027344 54.648438 237.882812 51.949219 C 232.742188 49.25 227.730469 46.332031 222.84375 43.1875 C 217.960938 40.042969 213.226562 36.691406 208.640625 33.128906 C 204.050781 29.566406 199.632812 25.808594 195.378906 21.855469 C 194.859375 21.339844 194.296875 20.875 193.6875 20.46875 C 193.078125 20.0625 192.4375 19.71875 191.761719 19.441406 C 191.085938 19.160156 190.386719 18.949219 189.671875 18.804688 C 188.953125 18.664062 188.226562 18.589844 187.496094 18.589844 C 186.761719 18.589844 186.039062 18.664062 185.320312 18.804688 C 184.601562 18.949219 183.90625 19.160156 183.230469 19.441406 C 182.554688 19.71875 181.910156 20.0625 181.300781 20.46875 C 180.695312 20.875 180.128906 21.339844 179.613281 21.855469 C 127.960938 73.507812 54.421875 74.332031 53.707031 74.332031 C 52.976562 74.332031 52.25 74.40625 51.53125 74.546875 C 50.8125 74.691406 50.117188 74.902344 49.441406 75.183594 C 48.765625 75.460938 48.121094 75.804688 47.511719 76.214844 C 46.902344 76.621094 46.339844 77.082031 45.824219 77.597656 C 45.304688 78.117188 44.84375 78.679688 44.4375 79.289062 C 44.03125 79.898438 43.6875 80.539062 43.40625 81.214844 C 43.125 81.894531 42.914062 82.589844 42.773438 83.308594 C 42.628906 84.027344 42.558594 84.75 42.558594 85.484375 L 42.558594 174.675781 C 42.554688 177.269531 42.605469 179.863281 42.710938 182.457031 C 42.816406 185.046875 42.972656 187.636719 43.1875 190.222656 C 43.398438 192.808594 43.664062 195.386719 43.984375 197.960938 C 44.300781 200.539062 44.675781 203.105469 45.101562 205.664062 C 45.527344 208.222656 46.003906 210.773438 46.535156 213.3125 C 47.066406 215.851562 47.652344 218.378906 48.289062 220.890625 C 48.925781 223.40625 49.613281 225.910156 50.355469 228.394531 C 51.09375 230.882812 51.886719 233.351562 52.730469 235.804688 C 53.570312 238.257812 54.464844 240.695312 55.410156 243.109375 C 56.355469 245.527344 57.347656 247.921875 58.390625 250.296875 C 59.433594 252.671875 60.527344 255.027344 61.667969 257.355469 C 62.808594 259.6875 63.996094 261.992188 65.234375 264.269531 C 66.472656 266.550781 67.753906 268.804688 69.085938 271.035156 C 70.414062 273.261719 71.792969 275.460938 73.214844 277.628906 C 74.632812 279.800781 76.101562 281.941406 77.609375 284.046875 C 79.121094 286.15625 80.675781 288.234375 82.273438 290.28125 C 83.867188 292.324219 85.507812 294.335938 87.1875 296.3125 C 88.867188 298.289062 90.585938 300.230469 92.347656 302.136719 C 94.109375 304.042969 95.910156 305.910156 97.746094 307.738281 C 99.585938 309.570312 101.460938 311.363281 103.375 313.117188 C 105.285156 314.867188 107.234375 316.582031 109.21875 318.253906 C 111.203125 319.925781 113.21875 321.554688 115.269531 323.144531 C 117.320312 324.730469 119.40625 326.277344 121.519531 327.777344 C 123.636719 329.28125 125.78125 330.738281 127.957031 332.148438 C 130.132812 333.5625 132.339844 334.929688 134.570312 336.25 C 136.804688 337.570312 139.0625 338.84375 141.347656 340.074219 C 143.632812 341.300781 145.945312 342.480469 148.277344 343.613281 C 150.613281 344.742188 152.972656 345.824219 155.351562 346.859375 C 157.730469 347.894531 160.128906 348.875 162.550781 349.808594 C 164.972656 350.746094 167.410156 351.628906 169.867188 352.460938 C 172.324219 353.292969 174.796875 354.074219 177.285156 354.804688 C 179.777344 355.535156 182.28125 356.214844 184.796875 356.839844 Z M 64.855469 96.03125 C 70.460938 95.554688 76.039062 94.863281 81.59375 93.957031 C 87.144531 93.050781 92.65625 91.929688 98.121094 90.597656 C 103.585938 89.265625 108.992188 87.722656 114.339844 85.972656 C 119.683594 84.21875 124.953125 82.265625 130.148438 80.105469 C 135.34375 77.945312 140.449219 75.589844 145.460938 73.035156 C 150.472656 70.480469 155.378906 67.738281 160.179688 64.804688 C 164.980469 61.871094 169.660156 58.753906 174.21875 55.457031 C 178.78125 52.164062 183.203125 48.695312 187.496094 45.054688 C 191.785156 48.695312 196.210938 52.164062 200.769531 55.457031 C 205.328125 58.753906 210.007812 61.871094 214.808594 64.804688 C 219.609375 67.738281 224.515625 70.480469 229.527344 73.035156 C 234.542969 75.589844 239.644531 77.945312 244.839844 80.105469 C 250.035156 82.265625 255.304688 84.21875 260.652344 85.972656 C 266 87.722656 271.40625 89.265625 276.871094 90.597656 C 282.335938 91.929688 287.84375 93.050781 293.398438 93.957031 C 298.949219 94.863281 304.527344 95.554688 310.132812 96.03125 L 310.132812 174.675781 C 310.136719 176.933594 310.09375 179.1875 310.003906 181.445312 C 309.914062 183.699219 309.777344 185.953125 309.59375 188.203125 C 309.414062 190.449219 309.183594 192.695312 308.910156 194.9375 C 308.636719 197.175781 308.316406 199.410156 307.949219 201.636719 C 307.582031 203.863281 307.171875 206.082031 306.714844 208.292969 C 306.257812 210.503906 305.757812 212.703125 305.210938 214.894531 C 304.664062 217.085938 304.070312 219.261719 303.433594 221.425781 C 302.800781 223.59375 302.117188 225.746094 301.394531 227.882812 C 300.671875 230.019531 299.902344 232.140625 299.089844 234.25 C 298.28125 236.355469 297.425781 238.445312 296.527344 240.515625 C 295.632812 242.585938 294.691406 244.636719 293.710938 246.671875 C 292.730469 248.703125 291.710938 250.714844 290.644531 252.707031 C 289.582031 254.695312 288.476562 256.664062 287.335938 258.609375 C 286.191406 260.554688 285.007812 262.476562 283.785156 264.375 C 282.5625 266.273438 281.300781 268.144531 280 269.988281 C 278.699219 271.835938 277.363281 273.652344 275.992188 275.441406 C 274.617188 277.234375 273.207031 278.996094 271.761719 280.730469 C 270.3125 282.460938 268.832031 284.164062 267.316406 285.835938 C 265.800781 287.507812 264.25 289.148438 262.667969 290.757812 C 261.085938 292.367188 259.46875 293.941406 257.820312 295.484375 C 256.175781 297.027344 254.496094 298.535156 252.785156 300.007812 C 251.078125 301.484375 249.335938 302.921875 247.570312 304.324219 C 245.800781 305.726562 244.003906 307.089844 242.179688 308.421875 C 240.355469 309.75 238.503906 311.039062 236.625 312.292969 C 234.75 313.546875 232.847656 314.761719 230.921875 315.933594 C 228.992188 317.109375 227.042969 318.246094 225.070312 319.339844 C 223.09375 320.433594 221.101562 321.488281 219.082031 322.503906 C 217.066406 323.515625 215.03125 324.488281 212.972656 325.417969 C 210.917969 326.347656 208.84375 327.234375 206.75 328.082031 C 204.65625 328.925781 202.546875 329.726562 200.421875 330.484375 C 198.292969 331.242188 196.15625 331.957031 194 332.628906 C 191.84375 333.300781 189.675781 333.925781 187.496094 334.507812 C 185.316406 333.925781 183.148438 333.300781 180.992188 332.628906 C 178.835938 331.957031 176.695312 331.242188 174.570312 330.484375 C 172.445312 329.726562 170.335938 328.925781 168.242188 328.082031 C 166.148438 327.234375 164.074219 326.347656 162.015625 325.417969 C 159.960938 324.488281 157.925781 323.515625 155.90625 322.503906 C 153.890625 321.488281 151.894531 320.433594 149.921875 319.339844 C 147.949219 318.246094 145.996094 317.109375 144.070312 315.933594 C 142.144531 314.761719 140.242188 313.546875 138.363281 312.292969 C 136.488281 311.039062 134.636719 309.75 132.8125 308.421875 C 130.988281 307.089844 129.191406 305.726562 127.421875 304.324219 C 125.652344 302.921875 123.914062 301.484375 122.203125 300.007812 C 120.496094 298.535156 118.816406 297.027344 117.167969 295.484375 C 115.519531 293.941406 113.90625 292.367188 112.324219 290.757812 C 110.738281 289.148438 109.191406 287.507812 107.671875 285.835938 C 106.15625 284.164062 104.675781 282.460938 103.230469 280.730469 C 101.785156 278.996094 100.375 277.234375 99 275.441406 C 97.625 273.652344 96.289062 271.835938 94.988281 269.988281 C 93.691406 268.144531 92.429688 266.273438 91.207031 264.375 C 89.984375 262.476562 88.800781 260.554688 87.65625 258.609375 C 86.511719 256.664062 85.410156 254.695312 84.34375 252.707031 C 83.28125 250.714844 82.257812 248.703125 81.277344 246.671875 C 80.296875 244.636719 79.359375 242.585938 78.460938 240.515625 C 77.566406 238.445312 76.710938 236.355469 75.898438 234.25 C 75.089844 232.140625 74.320312 230.019531 73.597656 227.882812 C 72.871094 225.746094 72.191406 223.59375 71.554688 221.425781 C 70.917969 219.261719 70.328125 217.085938 69.78125 214.894531 C 69.234375 212.703125 68.730469 210.503906 68.273438 208.292969 C 67.816406 206.082031 67.40625 203.863281 67.039062 201.636719 C 66.675781 199.410156 66.355469 197.175781 66.082031 194.9375 C 65.804688 192.695312 65.578125 190.449219 65.394531 188.203125 C 65.214844 185.953125 65.078125 183.699219 64.988281 181.445312 C 64.898438 179.1875 64.851562 176.933594 64.855469 174.675781 Z M 64.855469 96.03125 " fill-opacity="1" fill-rule="nonzero"/></g><path fill="#3bb77e" d="M 168.464844 227.152344 C 168.984375 227.664062 169.550781 228.117188 170.164062 228.515625 C 170.773438 228.914062 171.417969 229.253906 172.089844 229.527344 C 172.765625 229.800781 173.464844 230.007812 174.179688 230.148438 C 174.894531 230.289062 175.617188 230.359375 176.347656 230.359375 C 177.074219 230.359375 177.796875 230.289062 178.515625 230.148438 C 179.230469 230.007812 179.925781 229.800781 180.601562 229.527344 C 181.277344 229.253906 181.917969 228.914062 182.53125 228.515625 C 183.140625 228.117188 183.707031 227.664062 184.230469 227.152344 L 251.121094 160.257812 C 251.625 159.738281 252.074219 159.175781 252.464844 158.566406 C 252.859375 157.957031 253.191406 157.320312 253.457031 156.644531 C 253.726562 155.972656 253.925781 155.28125 254.0625 154.570312 C 254.195312 153.859375 254.257812 153.140625 254.253906 152.417969 C 254.246094 151.695312 254.167969 150.976562 254.023438 150.269531 C 253.878906 149.558594 253.664062 148.871094 253.386719 148.203125 C 253.105469 147.535156 252.761719 146.902344 252.359375 146.300781 C 251.957031 145.699219 251.5 145.144531 250.988281 144.628906 C 250.476562 144.117188 249.917969 143.660156 249.316406 143.257812 C 248.714844 142.855469 248.082031 142.511719 247.414062 142.234375 C 246.746094 141.953125 246.058594 141.738281 245.351562 141.59375 C 244.640625 141.449219 243.925781 141.371094 243.199219 141.367188 C 242.476562 141.359375 241.757812 141.421875 241.046875 141.554688 C 240.335938 141.691406 239.644531 141.890625 238.972656 142.160156 C 238.300781 142.425781 237.660156 142.757812 237.050781 143.152344 C 236.441406 143.542969 235.878906 143.992188 235.359375 144.496094 L 176.347656 203.507812 L 150.78125 177.941406 C 150.261719 177.4375 149.695312 176.992188 149.089844 176.597656 C 148.480469 176.207031 147.839844 175.875 147.167969 175.605469 C 146.496094 175.335938 145.804688 175.136719 145.09375 175.003906 C 144.378906 174.871094 143.664062 174.804688 142.9375 174.8125 C 142.214844 174.820312 141.5 174.894531 140.789062 175.039062 C 140.082031 175.1875 139.390625 175.398438 138.726562 175.679688 C 138.058594 175.960938 137.421875 176.300781 136.820312 176.703125 C 136.222656 177.109375 135.664062 177.566406 135.152344 178.078125 C 134.640625 178.589844 134.183594 179.144531 133.78125 179.746094 C 133.375 180.347656 133.035156 180.980469 132.753906 181.648438 C 132.472656 182.316406 132.261719 183.007812 132.117188 183.714844 C 131.96875 184.425781 131.894531 185.140625 131.886719 185.863281 C 131.882812 186.589844 131.945312 187.304688 132.078125 188.015625 C 132.210938 188.730469 132.414062 189.421875 132.679688 190.09375 C 132.949219 190.765625 133.28125 191.40625 133.671875 192.015625 C 134.066406 192.621094 134.515625 193.1875 135.015625 193.707031 Z M 168.464844 227.152344 " fill-opacity="1" fill-rule="nonzero"/></svg>