<svg xmlns="http://www.w3.org/2000/svg" xmlns:xlink="http://www.w3.org/1999/xlink" width="500" zoomAndPan="magnify" viewBox="0 0 375 374.999991" height="500" preserveAspectRatio="xMidYMid meet" version="1.0"><defs><clipPath id="c2727609c4"><path d="M 11.125 11.125 L 362 11.125 L 362 361 L 11.125 361 Z M 11.125 11.125 " clip-rule="nonzero"/></clipPath></defs><g clip-path="url(#c2727609c4)"><path fill="#3bb77e" d="M 352.597656 237.265625 L 237.414062 352.449219 C 236.738281 353.121094 236.035156 353.757812 235.296875 354.359375 C 234.558594 354.960938 233.792969 355.527344 233 356.054688 C 232.207031 356.582031 231.390625 357.066406 230.550781 357.515625 C 229.710938 357.960938 228.851562 358.367188 227.972656 358.730469 C 227.089844 359.09375 226.195312 359.414062 225.285156 359.6875 C 224.371094 359.964844 223.449219 360.195312 222.515625 360.378906 C 221.582031 360.5625 220.640625 360.703125 219.695312 360.796875 C 218.746094 360.886719 217.796875 360.933594 216.847656 360.933594 C 215.894531 360.933594 214.945312 360.886719 213.996094 360.796875 C 213.050781 360.703125 212.109375 360.5625 211.175781 360.378906 C 210.242188 360.195312 209.320312 359.964844 208.40625 359.6875 C 207.496094 359.414062 206.601562 359.09375 205.71875 358.730469 C 204.839844 358.367188 203.980469 357.960938 203.140625 357.515625 C 202.300781 357.066406 201.484375 356.582031 200.691406 356.054688 C 199.898438 355.527344 199.132812 354.960938 198.394531 354.359375 C 197.65625 353.757812 196.953125 353.121094 196.277344 352.449219 L 31.464844 187.632812 C 28.414062 184.230469 25.679688 180.59375 23.253906 176.71875 C 20.832031 172.847656 18.757812 168.796875 17.035156 164.566406 C 15.308594 160.332031 13.960938 155.988281 12.988281 151.523438 C 12.011719 147.058594 11.429688 142.546875 11.234375 137.980469 L 12.371094 41.363281 C 12.390625 40.40625 12.453125 39.453125 12.5625 38.5 C 12.671875 37.546875 12.828125 36.605469 13.03125 35.667969 C 13.230469 34.730469 13.476562 33.804688 13.765625 32.890625 C 14.054688 31.976562 14.386719 31.082031 14.761719 30.199219 C 15.140625 29.316406 15.554688 28.457031 16.015625 27.613281 C 16.472656 26.773438 16.96875 25.957031 17.507812 25.160156 C 18.042969 24.367188 18.617188 23.601562 19.226562 22.863281 C 19.839844 22.125 20.484375 21.417969 21.160156 20.742188 C 21.839844 20.0625 22.550781 19.421875 23.289062 18.8125 C 24.027344 18.203125 24.796875 17.632812 25.589844 17.097656 C 26.386719 16.5625 27.203125 16.066406 28.046875 15.609375 C 28.890625 15.152344 29.753906 14.738281 30.632812 14.363281 C 31.515625 13.988281 32.414062 13.660156 33.328125 13.371094 C 34.242188 13.082031 35.167969 12.839844 36.105469 12.640625 C 37.042969 12.441406 37.988281 12.289062 38.941406 12.179688 C 39.890625 12.074219 40.847656 12.011719 41.804688 11.996094 L 138.128906 11.027344 C 142.695312 11.234375 147.207031 11.828125 151.671875 12.808594 C 156.132812 13.789062 160.480469 15.144531 164.710938 16.871094 C 168.941406 18.601562 172.992188 20.675781 176.863281 23.101562 C 180.738281 25.523438 184.375 28.261719 187.78125 31.308594 L 352.597656 196.128906 C 353.269531 196.804688 353.90625 197.511719 354.507812 198.246094 C 355.109375 198.984375 355.675781 199.75 356.203125 200.542969 C 356.730469 201.335938 357.214844 202.152344 357.664062 202.992188 C 358.109375 203.832031 358.515625 204.691406 358.878906 205.574219 C 359.242188 206.453125 359.5625 207.347656 359.835938 208.257812 C 360.113281 209.171875 360.34375 210.09375 360.527344 211.027344 C 360.710938 211.960938 360.851562 212.902344 360.945312 213.847656 C 361.035156 214.796875 361.082031 215.746094 361.082031 216.699219 C 361.082031 217.648438 361.035156 218.597656 360.945312 219.546875 C 360.851562 220.492188 360.710938 221.433594 360.527344 222.367188 C 360.34375 223.300781 360.113281 224.222656 359.835938 225.136719 C 359.5625 226.046875 359.242188 226.941406 358.878906 227.824219 C 358.515625 228.703125 358.109375 229.5625 357.664062 230.402344 C 357.214844 231.242188 356.730469 232.058594 356.203125 232.851562 C 355.675781 233.644531 355.109375 234.410156 354.507812 235.148438 C 353.90625 235.886719 353.269531 236.589844 352.597656 237.265625 Z M 89.726562 69.6875 C 89.726562 69.007812 89.695312 68.328125 89.628906 67.652344 C 89.5625 66.972656 89.460938 66.300781 89.328125 65.632812 C 89.195312 64.964844 89.03125 64.308594 88.835938 63.65625 C 88.636719 63.003906 88.40625 62.363281 88.148438 61.734375 C 87.886719 61.105469 87.597656 60.492188 87.277344 59.890625 C 86.953125 59.292969 86.605469 58.707031 86.226562 58.140625 C 85.847656 57.574219 85.445312 57.03125 85.011719 56.503906 C 84.582031 55.976562 84.125 55.472656 83.644531 54.992188 C 83.164062 54.511719 82.660156 54.054688 82.132812 53.621094 C 81.605469 53.191406 81.058594 52.785156 80.496094 52.40625 C 79.929688 52.03125 79.34375 51.679688 78.746094 51.359375 C 78.144531 51.039062 77.53125 50.746094 76.902344 50.488281 C 76.273438 50.226562 75.632812 49.996094 74.980469 49.800781 C 74.332031 49.601562 73.671875 49.4375 73.003906 49.304688 C 72.335938 49.171875 71.664062 49.070312 70.984375 49.003906 C 70.308594 48.9375 69.628906 48.902344 68.949219 48.902344 C 68.269531 48.902344 67.589844 48.9375 66.914062 49.003906 C 66.234375 49.070312 65.5625 49.171875 64.894531 49.304688 C 64.226562 49.4375 63.566406 49.601562 62.917969 49.796875 C 62.265625 49.996094 61.625 50.226562 60.996094 50.484375 C 60.367188 50.746094 59.753906 51.035156 59.152344 51.359375 C 58.550781 51.679688 57.96875 52.027344 57.402344 52.40625 C 56.835938 52.785156 56.292969 53.1875 55.765625 53.621094 C 55.238281 54.050781 54.734375 54.507812 54.253906 54.992188 C 53.773438 55.472656 53.316406 55.976562 52.886719 56.5 C 52.453125 57.027344 52.046875 57.574219 51.667969 58.140625 C 51.292969 58.707031 50.941406 59.289062 50.621094 59.890625 C 50.300781 60.488281 50.011719 61.105469 49.75 61.734375 C 49.488281 62.363281 49.261719 63 49.0625 63.652344 C 48.863281 64.304688 48.699219 64.964844 48.566406 65.632812 C 48.433594 66.296875 48.335938 66.972656 48.269531 67.648438 C 48.203125 68.324219 48.167969 69.003906 48.167969 69.683594 C 48.167969 70.367188 48.203125 71.046875 48.269531 71.722656 C 48.335938 72.398438 48.433594 73.070312 48.566406 73.738281 C 48.699219 74.40625 48.867188 75.066406 49.0625 75.71875 C 49.261719 76.371094 49.488281 77.007812 49.75 77.636719 C 50.011719 78.265625 50.300781 78.882812 50.621094 79.480469 C 50.945312 80.082031 51.292969 80.664062 51.671875 81.230469 C 52.050781 81.796875 52.453125 82.34375 52.886719 82.867188 C 53.316406 83.394531 53.773438 83.898438 54.257812 84.378906 C 54.738281 84.859375 55.242188 85.316406 55.765625 85.75 C 56.292969 86.179688 56.839844 86.585938 57.40625 86.964844 C 57.972656 87.339844 58.554688 87.691406 59.15625 88.011719 C 59.753906 88.332031 60.371094 88.625 61 88.882812 C 61.628906 89.144531 62.269531 89.371094 62.917969 89.570312 C 63.570312 89.769531 64.230469 89.933594 64.898438 90.066406 C 65.566406 90.199219 66.238281 90.296875 66.914062 90.363281 C 67.59375 90.429688 68.269531 90.464844 68.953125 90.464844 C 69.632812 90.464844 70.3125 90.429688 70.988281 90.363281 C 71.664062 90.296875 72.335938 90.199219 73.003906 90.066406 C 73.671875 89.933594 74.332031 89.765625 74.984375 89.570312 C 75.632812 89.371094 76.273438 89.144531 76.902344 88.882812 C 77.53125 88.621094 78.144531 88.332031 78.746094 88.011719 C 79.347656 87.691406 79.929688 87.339844 80.496094 86.964844 C 81.0625 86.585938 81.605469 86.179688 82.132812 85.75 C 82.660156 85.316406 83.160156 84.859375 83.644531 84.378906 C 84.125 83.898438 84.582031 83.394531 85.011719 82.867188 C 85.445312 82.34375 85.847656 81.796875 86.226562 81.230469 C 86.605469 80.664062 86.953125 80.082031 87.273438 79.480469 C 87.597656 78.882812 87.886719 78.269531 88.148438 77.640625 C 88.40625 77.011719 88.636719 76.371094 88.832031 75.71875 C 89.03125 75.066406 89.195312 74.410156 89.328125 73.742188 C 89.460938 73.074219 89.5625 72.402344 89.628906 71.726562 C 89.695312 71.046875 89.726562 70.367188 89.726562 69.6875 Z M 262.800781 262.523438 C 263.476562 261.847656 264.078125 261.113281 264.609375 260.316406 C 265.140625 259.523438 265.589844 258.683594 265.953125 257.800781 C 266.320312 256.921875 266.59375 256.011719 266.78125 255.074219 C 266.96875 254.136719 267.0625 253.191406 267.0625 252.234375 C 267.0625 251.28125 266.96875 250.335938 266.78125 249.398438 C 266.59375 248.460938 266.320312 247.550781 265.953125 246.667969 C 265.589844 245.785156 265.140625 244.949219 264.609375 244.152344 C 264.078125 243.359375 263.476562 242.625 262.800781 241.949219 L 252.265625 231.414062 C 256.632812 224.710938 259.691406 217.457031 261.4375 209.648438 C 261.898438 207.929688 262.242188 206.183594 262.476562 204.417969 C 262.710938 202.652344 262.828125 200.878906 262.832031 199.097656 C 262.835938 197.316406 262.722656 195.542969 262.496094 193.777344 C 262.269531 192.011719 261.925781 190.265625 261.472656 188.542969 C 261.015625 186.824219 260.453125 185.136719 259.777344 183.488281 C 259.105469 181.839844 258.328125 180.242188 257.445312 178.695312 C 256.5625 177.144531 255.585938 175.660156 254.511719 174.242188 C 253.4375 172.820312 252.273438 171.476562 251.023438 170.207031 C 249.253906 168.441406 247.339844 166.847656 245.28125 165.425781 C 243.222656 164.003906 241.054688 162.777344 238.777344 161.742188 C 236.5 160.710938 234.148438 159.890625 231.722656 159.28125 C 229.296875 158.671875 226.835938 158.28125 224.339844 158.117188 C 217.640625 157.683594 211.074219 158.425781 204.644531 160.347656 L 204.59375 160.371094 C 199.109375 162.097656 193.953125 164.515625 189.117188 167.625 L 189.070312 167.644531 C 184.902344 170.355469 181.066406 173.472656 177.5625 177 C 175.460938 179.121094 173.199219 181.050781 170.777344 182.792969 C 168.113281 184.695312 165.234375 186.175781 162.144531 187.242188 L 162.101562 187.25 C 159.207031 188.195312 156.242188 188.523438 153.207031 188.230469 L 153.160156 188.230469 C 151.628906 188.105469 150.160156 187.734375 148.75 187.125 C 147.34375 186.511719 146.074219 185.6875 144.9375 184.652344 C 144.105469 183.714844 143.40625 182.683594 142.847656 181.558594 C 142.289062 180.433594 141.886719 179.253906 141.640625 178.023438 C 141.394531 176.792969 141.316406 175.550781 141.402344 174.296875 C 141.488281 173.042969 141.734375 171.824219 142.144531 170.636719 C 143.0625 167.105469 144.433594 163.757812 146.257812 160.597656 C 148.082031 157.4375 150.292969 154.574219 152.890625 152.011719 C 154.789062 150.394531 156.8125 148.953125 158.960938 147.6875 L 159.722656 147.191406 C 162.402344 145.550781 165.21875 144.191406 168.171875 143.117188 C 170.925781 142.082031 173.773438 141.554688 176.71875 141.535156 C 177.671875 141.53125 178.617188 141.4375 179.550781 141.25 C 180.488281 141.0625 181.394531 140.785156 182.277344 140.417969 C 183.15625 140.050781 183.992188 139.601562 184.785156 139.070312 C 185.578125 138.539062 186.308594 137.9375 186.984375 137.261719 C 187.65625 136.585938 188.257812 135.851562 188.789062 135.058594 C 189.316406 134.265625 189.761719 133.425781 190.128906 132.542969 C 190.492188 131.664062 190.765625 130.753906 190.953125 129.816406 C 191.136719 128.882812 191.230469 127.9375 191.230469 126.984375 C 191.230469 126.03125 191.136719 125.085938 190.949219 124.148438 C 190.761719 123.214844 190.488281 122.304688 190.121094 121.425781 C 189.757812 120.542969 189.308594 119.707031 188.777344 118.914062 C 188.25 118.121094 187.648438 117.386719 186.972656 116.710938 C 186.296875 116.035156 185.566406 115.433594 184.773438 114.902344 C 183.980469 114.375 183.140625 113.925781 182.261719 113.558594 C 181.378906 113.195312 180.472656 112.917969 179.535156 112.730469 C 178.601562 112.542969 177.65625 112.449219 176.703125 112.449219 L 176.675781 112.449219 C 170.199219 112.480469 163.929688 113.636719 157.867188 115.921875 C 153.003906 117.710938 148.378906 119.980469 143.988281 122.730469 L 143.738281 122.894531 L 133.265625 112.425781 C 132.59375 111.75 131.859375 111.144531 131.0625 110.613281 C 130.269531 110.082031 129.429688 109.632812 128.546875 109.265625 C 127.664062 108.898438 126.753906 108.625 125.816406 108.4375 C 124.882812 108.25 123.933594 108.15625 122.980469 108.15625 C 122.023438 108.15625 121.078125 108.246094 120.140625 108.433594 C 119.203125 108.621094 118.292969 108.894531 117.410156 109.261719 C 116.527344 109.628906 115.6875 110.074219 114.894531 110.605469 C 114.097656 111.136719 113.363281 111.742188 112.6875 112.417969 C 112.011719 113.09375 111.410156 113.828125 110.878906 114.625 C 110.347656 115.417969 109.898438 116.257812 109.535156 117.140625 C 109.167969 118.023438 108.894531 118.933594 108.707031 119.871094 C 108.519531 120.808594 108.429688 121.753906 108.429688 122.710938 C 108.429688 123.667969 108.523438 124.613281 108.710938 125.550781 C 108.898438 126.488281 109.175781 127.398438 109.542969 128.28125 C 109.910156 129.160156 110.359375 130 110.890625 130.792969 C 111.421875 131.589844 112.027344 132.324219 112.703125 132.996094 L 122.871094 143.167969 C 118.597656 149.652344 115.566406 156.675781 113.773438 164.234375 C 113.300781 166.019531 112.941406 167.824219 112.699219 169.65625 C 112.457031 171.484375 112.332031 173.324219 112.324219 175.167969 C 112.320312 177.015625 112.429688 178.855469 112.660156 180.6875 C 112.890625 182.515625 113.234375 184.328125 113.699219 186.113281 C 114.160156 187.902344 114.734375 189.652344 115.421875 191.367188 C 116.105469 193.078125 116.898438 194.742188 117.800781 196.351562 C 118.699219 197.964844 119.699219 199.511719 120.796875 200.996094 C 121.898438 202.480469 123.085938 203.886719 124.363281 205.21875 C 126.097656 206.910156 127.960938 208.445312 129.957031 209.820312 C 131.949219 211.195312 134.046875 212.394531 136.246094 213.410156 C 138.445312 214.429688 140.714844 215.253906 143.054688 215.882812 C 145.390625 216.511719 147.769531 216.941406 150.179688 217.164062 C 157.390625 217.910156 164.433594 217.140625 171.3125 214.851562 C 177.1875 212.875 182.644531 210.082031 187.683594 206.476562 C 191.410156 203.796875 194.894531 200.832031 198.128906 197.574219 C 200.167969 195.511719 202.402344 193.691406 204.832031 192.101562 C 207.460938 190.421875 210.261719 189.105469 213.230469 188.152344 C 216.222656 187.285156 219.273438 186.953125 222.382812 187.152344 C 223.90625 187.253906 225.359375 187.621094 226.75 188.246094 C 228.136719 188.871094 229.375 189.71875 230.460938 190.789062 C 231.75 192.085938 234.792969 195.121094 232.992188 203.59375 C 232.09375 207.21875 230.722656 210.65625 228.886719 213.90625 C 227.046875 217.152344 224.804688 220.097656 222.15625 222.730469 C 219.847656 224.820312 217.402344 226.738281 214.820312 228.476562 C 212.28125 230.125 209.601562 231.503906 206.785156 232.617188 C 204.078125 233.65625 201.28125 234.019531 198.394531 233.710938 C 197.441406 233.640625 196.492188 233.667969 195.542969 233.785156 C 194.597656 233.902344 193.671875 234.113281 192.765625 234.414062 C 191.859375 234.714844 190.988281 235.101562 190.160156 235.574219 C 189.328125 236.046875 188.554688 236.59375 187.832031 237.21875 C 187.109375 237.84375 186.453125 238.535156 185.867188 239.289062 C 185.28125 240.042969 184.773438 240.84375 184.347656 241.699219 C 183.917969 242.554688 183.578125 243.441406 183.324219 244.359375 C 183.070312 245.28125 182.910156 246.21875 182.839844 247.171875 C 182.773438 248.125 182.796875 249.074219 182.914062 250.019531 C 183.035156 250.96875 183.242188 251.894531 183.546875 252.800781 C 183.847656 253.707031 184.234375 254.578125 184.703125 255.40625 C 185.175781 256.238281 185.726562 257.011719 186.351562 257.734375 C 186.976562 258.457031 187.664062 259.113281 188.417969 259.699219 C 189.171875 260.285156 189.976562 260.792969 190.828125 261.21875 C 191.683594 261.648438 192.570312 261.988281 193.492188 262.242188 C 194.410156 262.496094 195.347656 262.65625 196.300781 262.722656 C 197.648438 262.828125 198.980469 262.871094 200.285156 262.871094 C 206.515625 262.933594 212.5 261.757812 218.246094 259.347656 C 222.9375 257.46875 227.371094 255.109375 231.554688 252.269531 L 231.804688 252.09375 L 242.234375 262.53125 C 242.910156 263.203125 243.644531 263.804688 244.441406 264.335938 C 245.234375 264.863281 246.070312 265.3125 246.953125 265.675781 C 247.835938 266.042969 248.746094 266.316406 249.679688 266.503906 C 250.617188 266.6875 251.5625 266.78125 252.519531 266.78125 C 253.472656 266.78125 254.417969 266.6875 255.355469 266.503906 C 256.289062 266.316406 257.199219 266.042969 258.082031 265.675781 C 258.964844 265.3125 259.800781 264.863281 260.59375 264.335938 C 261.390625 263.804688 262.125 263.203125 262.800781 262.53125 Z M 262.800781 262.523438 " fill-opacity="1" fill-rule="nonzero"/></g></svg>