<svg xmlns="http://www.w3.org/2000/svg" xmlns:xlink="http://www.w3.org/1999/xlink" width="500" zoomAndPan="magnify" viewBox="0 0 375 374.999991" height="500" preserveAspectRatio="xMidYMid meet" version="1.0"><defs><clipPath id="f8e0adfc99"><path d="M 22.265625 14 L 353 14 L 353 361 L 22.265625 361 Z M 22.265625 14 " clip-rule="nonzero"/></clipPath><clipPath id="04af35634d"><path d="M 22.265625 272 L 200 272 L 200 288 L 22.265625 288 Z M 22.265625 272 " clip-rule="nonzero"/></clipPath><clipPath id="22d5a73e9a"><path d="M 22.265625 308 L 138 308 L 138 325 L 22.265625 325 Z M 22.265625 308 " clip-rule="nonzero"/></clipPath></defs><g clip-path="url(#f8e0adfc99)"><path fill="#3bb77e" d="M 352.050781 240.515625 C 351.949219 240.28125 351.8125 240.074219 351.6875 239.851562 C 351.5625 239.621094 351.449219 239.382812 351.300781 239.167969 C 351.285156 239.144531 351.265625 239.128906 351.25 239.105469 C 349.855469 237.128906 347.570312 235.832031 344.96875 235.832031 L 195.15625 235.832031 L 195.15625 209.257812 L 222.917969 185.355469 C 224.875 185.503906 227.519531 185.644531 230.65625 185.644531 C 245.351562 185.644531 265.746094 182.769531 279.441406 169.066406 C 300.511719 148 295.597656 110.546875 295.378906 108.960938 C 294.910156 105.550781 292.226562 102.871094 288.816406 102.394531 C 288.628906 102.371094 284.105469 101.753906 277.5 101.753906 C 262.804688 101.753906 242.410156 104.628906 228.710938 118.332031 C 211.570312 135.472656 211.628906 163.457031 212.363281 174.144531 L 195.15625 188.960938 L 195.15625 132.292969 C 203.585938 125.082031 226.589844 102.910156 226.589844 75.527344 C 226.589844 42.738281 193.511719 17.332031 192.105469 16.265625 C 189.359375 14.183594 185.566406 14.183594 182.820312 16.265625 C 181.414062 17.332031 148.339844 42.738281 148.339844 75.527344 C 148.339844 102.90625 171.34375 125.082031 179.773438 132.292969 L 179.773438 189.117188 L 162.378906 174.144531 C 163.113281 163.457031 163.171875 135.472656 146.03125 118.332031 C 132.332031 104.628906 111.9375 101.753906 97.246094 101.753906 C 90.636719 101.753906 86.117188 102.371094 85.925781 102.394531 C 82.515625 102.871094 79.832031 105.550781 79.363281 108.960938 C 79.144531 110.546875 74.230469 148 95.296875 169.066406 C 108.996094 182.769531 129.390625 185.644531 144.082031 185.644531 C 147.222656 185.644531 149.863281 185.503906 151.820312 185.355469 L 179.773438 209.417969 L 179.773438 235.832031 L 29.957031 235.832031 C 25.710938 235.832031 22.265625 239.277344 22.265625 243.523438 C 22.265625 247.773438 25.710938 251.21875 29.957031 251.21875 L 276.238281 251.21875 C 259.371094 257.878906 243.632812 265.847656 229.824219 273.316406 C 214.363281 281.65625 198.710938 290.878906 183.570312 299.792969 C 177.761719 303.210938 171.949219 306.636719 166.136719 310.019531 C 144.363281 322.722656 121.003906 335.773438 97.484375 345.480469 L 29.957031 345.480469 C 25.710938 345.480469 22.265625 348.925781 22.265625 353.171875 C 22.265625 357.421875 25.710938 360.867188 29.957031 360.867188 L 99.03125 360.867188 C 99.039062 360.867188 99.046875 360.871094 99.054688 360.871094 C 99.554688 360.871094 100.0625 360.816406 100.5625 360.714844 C 100.800781 360.667969 101.019531 360.578125 101.246094 360.511719 C 101.484375 360.441406 101.722656 360.394531 101.957031 360.300781 C 101.980469 360.289062 102.003906 360.277344 102.03125 360.265625 C 102.042969 360.261719 102.054688 360.257812 102.066406 360.253906 C 126.882812 350.128906 151.25 336.519531 173.878906 323.3125 C 179.710938 319.921875 185.542969 316.484375 191.378906 313.050781 C 206.394531 304.207031 221.921875 295.0625 237.136719 286.847656 C 267.082031 270.65625 306.421875 251.976562 345.136719 251.265625 C 349.386719 251.1875 352.765625 247.679688 352.6875 243.429688 C 352.667969 242.460938 352.453125 241.542969 352.109375 240.695312 C 352.085938 240.632812 352.074219 240.574219 352.050781 240.515625 Z M 239.585938 129.210938 C 250.089844 118.707031 267.84375 117.136719 277.496094 117.136719 C 278.597656 117.136719 279.632812 117.160156 280.578125 117.191406 C 280.910156 127.132812 279.953125 146.796875 268.5625 158.1875 C 258.0625 168.691406 240.304688 170.261719 230.65625 170.261719 C 229.550781 170.261719 228.519531 170.238281 227.578125 170.207031 C 227.242188 160.265625 228.195312 140.601562 239.585938 129.210938 Z M 163.722656 75.527344 C 163.722656 56.777344 179.414062 39.929688 187.460938 32.519531 C 195.515625 39.933594 211.203125 56.78125 211.203125 75.527344 C 211.203125 94.28125 195.503906 111.140625 187.449219 118.546875 C 179.398438 111.164062 163.722656 94.367188 163.722656 75.527344 Z M 106.175781 158.1875 C 94.78125 146.796875 93.828125 127.125 94.164062 117.191406 C 95.109375 117.160156 96.140625 117.136719 97.246094 117.136719 C 106.894531 117.136719 124.648438 118.707031 135.152344 129.210938 C 146.542969 140.601562 147.5 160.273438 147.164062 170.207031 C 146.21875 170.238281 145.1875 170.261719 144.082031 170.261719 C 134.433594 170.261719 116.675781 168.691406 106.175781 158.1875 Z M 106.175781 158.1875 " fill-opacity="1" fill-rule="nonzero"/></g><g clip-path="url(#04af35634d)"><path fill="#3bb77e" d="M 29.957031 287.773438 L 191.804688 287.773438 C 196.050781 287.773438 199.496094 284.332031 199.496094 280.082031 C 199.496094 275.832031 196.050781 272.390625 191.804688 272.390625 L 29.957031 272.390625 C 25.710938 272.390625 22.265625 275.832031 22.265625 280.082031 C 22.265625 284.332031 25.710938 287.773438 29.957031 287.773438 Z M 29.957031 287.773438 " fill-opacity="1" fill-rule="nonzero"/></g><g clip-path="url(#22d5a73e9a)"><path fill="#3bb77e" d="M 29.957031 324.355469 L 130.105469 324.355469 C 134.351562 324.355469 137.796875 320.910156 137.796875 316.664062 C 137.796875 312.414062 134.351562 308.96875 130.105469 308.96875 L 29.957031 308.96875 C 25.710938 308.96875 22.265625 312.414062 22.265625 316.664062 C 22.265625 320.910156 25.710938 324.355469 29.957031 324.355469 Z M 29.957031 324.355469 " fill-opacity="1" fill-rule="nonzero"/></g><path fill="#3bb77e" d="M 344.839844 272.390625 C 302.789062 273.242188 261.28125 292.878906 229.816406 309.898438 C 217.570312 316.519531 206.289062 323.703125 195.375 330.644531 C 187.152344 335.882812 178.652344 341.292969 169.664062 346.523438 C 165.992188 348.660156 164.75 353.367188 166.886719 357.039062 C 168.3125 359.496094 170.890625 360.863281 173.539062 360.863281 C 174.855469 360.863281 176.183594 360.527344 177.402344 359.820312 C 186.652344 354.4375 195.289062 348.941406 203.636719 343.628906 C 214.8125 336.511719 225.371094 329.792969 237.136719 323.425781 C 267.074219 307.238281 306.402344 288.554688 345.148438 287.773438 C 349.394531 287.6875 352.769531 284.171875 352.683594 279.929688 C 352.597656 275.679688 348.953125 272.425781 344.839844 272.390625 Z M 344.839844 272.390625 " fill-opacity="1" fill-rule="nonzero"/><path fill="#3bb77e" d="M 344.839844 308.96875 C 306.582031 309.75 274.15625 325.667969 235.746094 346.402344 C 232.007812 348.421875 230.613281 353.085938 232.628906 356.828125 C 234.019531 359.402344 236.671875 360.863281 239.40625 360.863281 C 240.636719 360.863281 241.890625 360.566406 243.054688 359.9375 C 280.832031 339.546875 310.269531 325.0625 345.148438 324.355469 C 349.398438 324.269531 352.773438 320.753906 352.683594 316.507812 C 352.597656 312.261719 348.953125 308.964844 344.839844 308.96875 Z M 344.839844 308.96875 " fill-opacity="1" fill-rule="nonzero"/><path fill="#3bb77e" d="M 344.96875 345.480469 L 324.730469 345.480469 C 320.480469 345.480469 317.035156 348.921875 317.035156 353.171875 C 317.035156 357.421875 320.480469 360.863281 324.730469 360.863281 L 344.96875 360.863281 C 349.21875 360.863281 352.664062 357.421875 352.664062 353.171875 C 352.664062 348.921875 349.21875 345.480469 344.96875 345.480469 Z M 344.96875 345.480469 " fill-opacity="1" fill-rule="nonzero"/></svg>