<svg xmlns="http://www.w3.org/2000/svg" xmlns:xlink="http://www.w3.org/1999/xlink" width="500" zoomAndPan="magnify" viewBox="0 0 375 374.999991" height="500" preserveAspectRatio="xMidYMid meet" version="1.0"><defs><clipPath id="e5e0085e3a"><path d="M 1.5 50 L 372 50 L 372 325 L 1.5 325 Z M 1.5 50 " clip-rule="nonzero"/></clipPath></defs><g clip-path="url(#e5e0085e3a)"><path fill="#3bb77e" d="M 367.039062 266.460938 C 365.902344 264.359375 364.585938 262.382812 363.085938 260.527344 C 361.589844 258.667969 359.933594 256.964844 358.121094 255.410156 C 356.3125 253.859375 354.371094 252.484375 352.308594 251.285156 C 350.246094 250.089844 348.089844 249.089844 345.839844 248.289062 C 342.371094 249.324219 338.851562 250.15625 335.285156 250.785156 C 327.378906 252.308594 319.914062 253.746094 312.824219 260.746094 C 305.722656 267.761719 303.269531 274.246094 300.679688 281.109375 C 299.082031 285.335938 297.433594 289.703125 294.652344 294.066406 C 295.050781 296.234375 295.683594 298.328125 296.550781 300.355469 C 297.246094 302.023438 298.050781 303.636719 298.96875 305.195312 C 299.886719 306.753906 300.910156 308.238281 302.035156 309.652344 C 303.160156 311.070312 304.375 312.398438 305.6875 313.644531 C 306.996094 314.890625 308.386719 316.042969 309.855469 317.09375 C 311.324219 318.148438 312.859375 319.09375 314.460938 319.933594 C 316.0625 320.773438 317.714844 321.496094 319.417969 322.105469 C 321.117188 322.71875 322.855469 323.207031 324.625 323.574219 C 326.394531 323.941406 328.179688 324.1875 329.984375 324.308594 C 331.789062 324.425781 333.59375 324.421875 335.394531 324.292969 C 337.199219 324.160156 338.984375 323.90625 340.753906 323.527344 C 342.519531 323.148438 344.253906 322.648438 345.953125 322.027344 C 347.648438 321.410156 349.296875 320.675781 350.894531 319.824219 C 352.488281 318.976562 354.019531 318.019531 355.484375 316.960938 C 356.945312 315.898438 358.328125 314.738281 359.632812 313.484375 C 360.933594 312.230469 362.144531 310.894531 363.261719 309.472656 C 364.375 308.050781 365.390625 306.558594 366.296875 304.996094 C 366.75 304.234375 367.175781 303.457031 367.574219 302.664062 C 369.832031 298.1875 371.171875 293.449219 371.59375 288.453125 C 371.6875 287.351562 371.761719 286.242188 371.761719 285.117188 C 371.769531 281.859375 371.371094 278.652344 370.570312 275.492188 C 369.769531 272.332031 368.59375 269.324219 367.039062 266.460938 Z M 353.414062 290.613281 C 353.292969 291.042969 353.160156 291.46875 353.011719 291.886719 C 352.863281 292.308594 352.703125 292.722656 352.53125 293.136719 C 352.359375 293.546875 352.171875 293.949219 351.972656 294.351562 C 351.773438 294.75 351.5625 295.140625 351.339844 295.527344 C 351.117188 295.914062 350.878906 296.292969 350.632812 296.664062 C 350.386719 297.035156 350.128906 297.398438 349.859375 297.75 C 349.585938 298.105469 349.308594 298.453125 349.015625 298.789062 C 348.722656 299.128906 348.421875 299.453125 348.109375 299.773438 C 347.796875 300.089844 347.476562 300.398438 347.144531 300.699219 C 346.8125 300.996094 346.472656 301.28125 346.121094 301.558594 C 345.773438 301.835938 345.414062 302.101562 345.046875 302.355469 C 344.679688 302.609375 344.308594 302.851562 343.925781 303.082031 C 343.542969 303.3125 343.15625 303.53125 342.761719 303.738281 C 342.363281 303.945312 341.964844 304.140625 341.554688 304.320312 C 341.148438 304.503906 340.734375 304.671875 340.316406 304.824219 C 339.898438 304.980469 339.476562 305.121094 339.050781 305.25 C 338.625 305.378906 338.195312 305.496094 337.757812 305.597656 C 337.324219 305.699219 336.886719 305.789062 336.449219 305.863281 C 336.007812 305.9375 335.566406 305.996094 335.125 306.042969 C 334.679688 306.089844 334.238281 306.121094 333.789062 306.140625 C 333.34375 306.160156 332.898438 306.164062 332.453125 306.15625 C 332.007812 306.148438 331.5625 306.125 331.117188 306.085938 C 330.675781 306.050781 330.230469 306 329.789062 305.933594 C 329.347656 305.867188 328.910156 305.789062 328.476562 305.699219 C 328.039062 305.605469 327.605469 305.5 327.175781 305.378906 C 326.746094 305.261719 326.320312 305.128906 325.898438 304.980469 C 325.480469 304.835938 325.0625 304.675781 324.652344 304.503906 C 324.238281 304.332031 323.835938 304.144531 323.433594 303.949219 C 323.035156 303.75 322.640625 303.539062 322.253906 303.316406 C 321.871094 303.09375 321.492188 302.859375 321.117188 302.613281 C 320.746094 302.367188 320.382812 302.109375 320.027344 301.839844 C 319.671875 301.570312 319.324219 301.292969 318.988281 301 C 318.648438 300.710938 318.320312 300.410156 318 300.097656 C 317.683594 299.785156 317.375 299.464844 317.074219 299.132812 C 316.777344 298.804688 316.488281 298.464844 316.210938 298.113281 C 315.933594 297.765625 315.667969 297.410156 315.410156 297.042969 C 315.15625 296.675781 314.914062 296.304688 314.679688 295.921875 C 314.449219 295.542969 314.230469 295.152344 314.023438 294.757812 C 313.816406 294.363281 313.621094 293.964844 313.4375 293.558594 C 313.253906 293.148438 313.085938 292.738281 312.929688 292.320312 C 312.773438 291.902344 312.628906 291.480469 312.5 291.054688 C 312.371094 290.628906 312.253906 290.199219 312.152344 289.761719 C 312.046875 289.328125 311.957031 288.894531 311.882812 288.453125 C 311.808594 288.015625 311.746094 287.574219 311.699219 287.128906 C 311.648438 286.6875 311.617188 286.242188 311.597656 285.796875 C 311.578125 285.351562 311.570312 284.90625 311.578125 284.460938 C 311.585938 284.011719 311.609375 283.570312 311.644531 283.125 C 311.679688 282.679688 311.730469 282.238281 311.792969 281.796875 C 311.859375 281.355469 311.933594 280.914062 312.027344 280.480469 C 312.117188 280.042969 312.222656 279.609375 312.339844 279.179688 C 312.460938 278.75 312.589844 278.324219 312.738281 277.902344 C 312.882812 277.480469 313.039062 277.0625 313.210938 276.652344 C 313.382812 276.242188 313.566406 275.835938 313.765625 275.433594 C 313.960938 275.035156 314.167969 274.640625 314.390625 274.253906 C 314.613281 273.867188 314.847656 273.488281 315.089844 273.113281 C 315.335938 272.742188 315.59375 272.378906 315.863281 272.023438 C 316.128906 271.664062 316.410156 271.320312 316.699219 270.980469 C 316.988281 270.640625 317.289062 270.3125 317.601562 269.992188 C 317.910156 269.671875 318.230469 269.363281 318.5625 269.0625 C 318.890625 268.761719 319.230469 268.472656 319.578125 268.195312 C 319.925781 267.917969 320.28125 267.648438 320.648438 267.394531 C 321.011719 267.136719 321.386719 266.890625 321.765625 266.660156 C 322.144531 266.425781 322.535156 266.207031 322.929688 265.996094 C 323.320312 265.789062 323.722656 265.59375 324.128906 265.410156 C 324.535156 265.226562 324.945312 265.058594 325.363281 264.898438 C 325.78125 264.742188 326.203125 264.597656 326.628906 264.464844 C 327.054688 264.335938 327.484375 264.21875 327.917969 264.113281 C 328.351562 264.011719 328.789062 263.917969 329.226562 263.84375 C 329.667969 263.765625 330.109375 263.703125 330.550781 263.65625 C 330.996094 263.605469 331.4375 263.570312 331.882812 263.550781 C 332.332031 263.527344 332.777344 263.519531 333.222656 263.527344 C 333.667969 263.535156 334.113281 263.554688 334.558594 263.589844 C 335 263.625 335.445312 263.675781 335.886719 263.738281 C 336.328125 263.800781 336.765625 263.875 337.203125 263.964844 C 337.640625 264.054688 338.074219 264.160156 338.503906 264.277344 C 338.933594 264.394531 339.359375 264.527344 339.78125 264.667969 C 340.203125 264.8125 340.621094 264.972656 341.03125 265.140625 C 341.445312 265.3125 341.851562 265.496094 342.253906 265.691406 C 342.652344 265.886719 343.046875 266.09375 343.433594 266.316406 C 343.820312 266.535156 344.203125 266.765625 344.574219 267.011719 C 344.949219 267.257812 345.3125 267.511719 345.667969 267.777344 C 346.027344 268.046875 346.375 268.324219 346.714844 268.613281 C 347.054688 268.902344 347.382812 269.203125 347.703125 269.511719 C 348.023438 269.820312 348.335938 270.140625 348.636719 270.472656 C 348.9375 270.800781 349.226562 271.136719 349.507812 271.484375 C 349.785156 271.832031 350.054688 272.191406 350.3125 272.554688 C 350.566406 272.917969 350.8125 273.289062 351.046875 273.671875 C 351.28125 274.050781 351.503906 274.4375 351.710938 274.828125 C 351.921875 275.222656 352.117188 275.625 352.304688 276.03125 C 352.488281 276.433594 352.660156 276.847656 352.816406 277.261719 C 352.976562 277.679688 353.121094 278.101562 353.253906 278.527344 C 353.386719 278.953125 353.503906 279.382812 353.609375 279.816406 C 353.714844 280.25 353.804688 280.6875 353.882812 281.125 C 353.960938 281.5625 354.023438 282.003906 354.074219 282.449219 C 354.125 282.890625 354.160156 283.335938 354.183594 283.78125 C 354.207031 284.226562 354.214844 284.671875 354.207031 285.117188 C 354.183594 286.984375 353.917969 288.816406 353.414062 290.613281 Z M 315.328125 254.789062 C 317.515625 253.269531 319.851562 252.027344 322.335938 251.0625 C 323.121094 250.757812 323.910156 250.480469 324.703125 250.222656 C 327.859375 249.273438 331.0625 248.515625 334.3125 247.949219 C 335.125 247.792969 335.9375 247.632812 336.753906 247.476562 C 337.898438 247.25 339.046875 247.003906 340.203125 246.738281 C 340.691406 246.625 341.179688 246.519531 341.671875 246.398438 C 344.234375 245.777344 346.726562 244.953125 349.15625 243.929688 C 350.738281 243.253906 352.269531 242.472656 353.746094 241.585938 C 354.375 241.203125 354.941406 240.832031 355.449219 240.472656 C 356.785156 239.59375 357.96875 238.546875 359.003906 237.328125 C 355.75 234.910156 352.234375 232.960938 348.460938 231.480469 C 348.148438 231.355469 347.839844 231.21875 347.527344 231.101562 C 345.839844 230.453125 344.125 229.898438 342.382812 229.4375 C 342.046875 229.347656 341.707031 229.269531 341.371094 229.191406 C 339.535156 228.730469 337.679688 228.375 335.804688 228.125 C 333.875 227.894531 331.9375 227.773438 329.996094 227.753906 C 329.625 227.75 329.253906 227.734375 328.882812 227.738281 C 327.355469 227.753906 325.820312 227.8125 324.273438 227.964844 C 318.03125 228.59375 312.109375 230.316406 306.507812 233.136719 L 309.722656 228.472656 L 311.304688 226.179688 C 312.054688 225.089844 312.664062 223.925781 313.132812 222.683594 C 313.601562 221.445312 313.914062 220.167969 314.074219 218.851562 C 314.230469 217.539062 314.230469 216.222656 314.066406 214.90625 C 313.90625 213.59375 313.585938 212.316406 313.113281 211.078125 L 292.128906 156.042969 L 305.0625 158.101562 C 305.390625 158.152344 305.722656 158.167969 306.054688 158.148438 C 306.386719 158.128906 306.710938 158.074219 307.03125 157.984375 C 307.351562 157.894531 307.65625 157.769531 307.949219 157.613281 C 308.242188 157.457031 308.515625 157.273438 308.769531 157.054688 C 309.019531 156.839844 309.246094 156.601562 309.449219 156.335938 C 309.648438 156.070312 309.816406 155.789062 309.957031 155.484375 C 310.097656 155.183594 310.203125 154.871094 310.273438 154.546875 C 310.34375 154.222656 310.378906 153.894531 310.378906 153.5625 L 310.378906 129.402344 C 310.378906 129.070312 310.34375 128.742188 310.273438 128.414062 C 310.203125 128.089844 310.097656 127.777344 309.957031 127.476562 C 309.816406 127.175781 309.648438 126.890625 309.449219 126.628906 C 309.246094 126.363281 309.019531 126.121094 308.769531 125.90625 C 308.515625 125.691406 308.242188 125.503906 307.949219 125.347656 C 307.65625 125.191406 307.351562 125.066406 307.03125 124.976562 C 306.710938 124.886719 306.386719 124.832031 306.054688 124.8125 C 305.722656 124.792969 305.390625 124.808594 305.0625 124.863281 L 275.402344 129.582031 C 274.769531 129.683594 274.171875 129.890625 273.613281 130.203125 C 273.050781 130.515625 272.5625 130.917969 272.148438 131.40625 C 271.730469 131.894531 271.410156 132.4375 271.191406 133.039062 C 270.96875 133.644531 270.859375 134.265625 270.859375 134.90625 L 270.859375 139.359375 C 270.40625 139.265625 269.945312 139.207031 269.484375 139.183594 L 245.839844 138.882812 C 245.042969 138.851562 244.285156 138.660156 243.570312 138.304688 C 242.855469 137.949219 242.246094 137.460938 241.742188 136.84375 L 220.335938 110.472656 C 208.496094 95.960938 188.289062 100.480469 184.484375 118.820312 L 173.359375 160.644531 C 173.179688 161.492188 173.042969 162.351562 172.945312 163.214844 C 172.847656 164.078125 172.789062 164.941406 172.769531 165.8125 C 172.753906 166.679688 172.773438 167.546875 172.835938 168.414062 C 172.898438 169.28125 173.003906 170.140625 173.144531 171 C 173.289062 171.855469 173.46875 172.703125 173.691406 173.542969 C 173.914062 174.386719 174.171875 175.214844 174.46875 176.027344 C 174.769531 176.84375 175.101562 177.644531 175.476562 178.429688 C 175.847656 179.214844 176.253906 179.980469 176.699219 180.726562 C 177.144531 181.476562 177.621094 182.199219 178.128906 182.902344 C 178.640625 183.605469 179.183594 184.285156 179.757812 184.9375 C 180.332031 185.589844 180.933594 186.214844 181.566406 186.808594 C 182.195312 187.40625 182.855469 187.972656 183.539062 188.507812 C 184.222656 189.042969 184.929688 189.546875 185.660156 190.015625 C 186.390625 190.484375 187.140625 190.921875 187.914062 191.320312 C 188.683594 191.722656 189.472656 192.085938 190.277344 192.414062 C 191.082031 192.738281 191.898438 193.027344 192.730469 193.28125 L 124.007812 193.28125 C 123.671875 193.28125 123.347656 193.34375 123.035156 193.472656 C 122.722656 193.605469 122.449219 193.789062 122.210938 194.027344 C 121.972656 194.265625 121.789062 194.539062 121.660156 194.851562 C 121.53125 195.164062 121.464844 195.488281 121.464844 195.824219 L 121.464844 205.386719 C 121.464844 205.722656 121.53125 206.046875 121.660156 206.359375 C 121.789062 206.671875 121.972656 206.945312 122.210938 207.183594 C 122.449219 207.421875 122.722656 207.605469 123.035156 207.734375 C 123.347656 207.863281 123.671875 207.929688 124.007812 207.929688 L 219.269531 207.929688 C 219.605469 207.929688 219.929688 207.863281 220.242188 207.734375 C 220.554688 207.605469 220.828125 207.421875 221.066406 207.183594 C 221.304688 206.945312 221.492188 206.671875 221.621094 206.359375 C 221.75 206.046875 221.8125 205.722656 221.8125 205.386719 L 221.8125 197.816406 L 234.800781 199.6875 L 224.523438 245.410156 C 224.402344 246.089844 224.347656 246.773438 224.363281 247.460938 C 224.375 248.152344 224.457031 248.832031 224.601562 249.507812 C 224.75 250.179688 224.957031 250.832031 225.230469 251.464844 C 225.503906 252.097656 225.835938 252.699219 226.226562 253.269531 C 226.617188 253.835938 227.0625 254.359375 227.554688 254.84375 C 228.046875 255.324219 228.582031 255.753906 229.160156 256.132812 C 229.734375 256.507812 230.34375 256.828125 230.980469 257.085938 C 231.621094 257.347656 232.277344 257.542969 232.957031 257.671875 C 233.632812 257.804688 234.316406 257.867188 235.003906 257.863281 C 235.695312 257.863281 236.375 257.792969 237.050781 257.660156 C 237.726562 257.523438 238.386719 257.324219 239.023438 257.058594 C 239.660156 256.796875 240.265625 256.472656 240.839844 256.09375 C 241.414062 255.710938 241.945312 255.277344 242.433594 254.792969 C 242.925781 254.308594 243.363281 253.78125 243.75 253.210938 C 244.136719 252.636719 244.464844 252.035156 244.734375 251.402344 C 245.003906 250.765625 245.207031 250.113281 245.351562 249.4375 L 258.050781 198.976562 C 258.179688 198.371094 258.28125 197.761719 258.347656 197.144531 C 258.417969 196.53125 258.457031 195.914062 258.460938 195.292969 C 258.46875 194.675781 258.449219 194.058594 258.394531 193.441406 C 258.339844 192.824219 258.257812 192.210938 258.140625 191.601562 C 258.027344 190.996094 257.882812 190.394531 257.710938 189.796875 C 257.535156 189.203125 257.332031 188.621094 257.101562 188.046875 C 256.871094 187.472656 256.609375 186.910156 256.324219 186.363281 C 256.035156 185.8125 255.722656 185.28125 255.382812 184.761719 C 255.042969 184.246094 254.679688 183.746094 254.289062 183.265625 C 253.898438 182.78125 253.488281 182.320312 253.050781 181.882812 C 252.617188 181.441406 252.160156 181.023438 251.6875 180.628906 C 251.210938 180.230469 250.714844 179.859375 250.203125 179.515625 C 249.6875 179.167969 249.160156 178.847656 248.613281 178.554688 C 248.070312 178.257812 247.511719 177.992188 246.941406 177.753906 C 246.371094 177.515625 245.789062 177.304688 245.195312 177.121094 C 244.605469 176.941406 244.003906 176.789062 243.398438 176.667969 C 232.703125 174.519531 219.417969 171.925781 212.503906 170.585938 C 212.199219 170.527344 211.902344 170.4375 211.617188 170.316406 C 211.332031 170.199219 211.058594 170.054688 210.800781 169.878906 C 210.542969 169.707031 210.308594 169.507812 210.089844 169.285156 C 209.871094 169.066406 209.679688 168.824219 209.511719 168.566406 C 209.339844 168.304688 209.199219 168.03125 209.085938 167.742188 C 208.972656 167.453125 208.886719 167.15625 208.832031 166.851562 C 208.78125 166.542969 208.757812 166.238281 208.765625 165.925781 C 208.773438 165.617188 208.8125 165.308594 208.882812 165.007812 L 215.332031 136.328125 L 227.417969 150.640625 C 228.425781 151.886719 229.566406 152.996094 230.835938 153.976562 C 232.105469 154.957031 233.46875 155.777344 234.929688 156.4375 C 236.386719 157.101562 237.902344 157.589844 239.476562 157.898438 C 241.046875 158.210938 242.636719 158.335938 244.238281 158.277344 L 269.484375 156.894531 C 270.789062 156.851562 272.019531 156.527344 273.183594 155.933594 L 282.234375 206.304688 C 282.875 209.867188 282.949219 213.441406 282.457031 217.027344 C 281.96875 220.613281 280.9375 224.039062 279.363281 227.296875 L 266.714844 253.496094 C 266.019531 254.941406 265.136719 256.257812 264.066406 257.453125 C 263 258.648438 261.785156 259.671875 260.429688 260.523438 C 259.070312 261.375 257.621094 262.023438 256.082031 262.464844 C 254.542969 262.910156 252.972656 263.128906 251.371094 263.128906 L 227.394531 263.128906 C 226.789062 263.128906 226.1875 263.097656 225.585938 263.03125 C 224.984375 262.964844 224.390625 262.863281 223.800781 262.730469 C 223.210938 262.597656 222.628906 262.433594 222.058594 262.238281 C 221.484375 262.042969 220.925781 261.8125 220.378906 261.554688 C 219.832031 261.296875 219.300781 261.011719 218.789062 260.691406 C 218.273438 260.375 217.777344 260.03125 217.300781 259.660156 C 216.824219 259.289062 216.367188 258.890625 215.9375 258.46875 C 215.503906 258.046875 215.09375 257.601562 214.710938 257.136719 C 214.328125 256.667969 213.96875 256.179688 213.640625 255.675781 C 213.308594 255.167969 213.007812 254.644531 212.738281 254.105469 C 212.464844 253.566406 212.222656 253.011719 212.011719 252.445312 C 211.800781 251.878906 211.621094 251.300781 211.472656 250.714844 C 211.328125 250.128906 211.210938 249.535156 211.128906 248.9375 C 211.050781 248.339844 211 247.738281 210.984375 247.132812 C 210.96875 246.527344 210.988281 245.925781 211.039062 245.320312 C 211.089844 244.71875 211.175781 244.121094 211.292969 243.527344 L 217.605469 211.632812 L 126.828125 211.632812 C 125.554688 211.628906 124.375 211.960938 123.292969 212.632812 C 122.441406 213.160156 121.296875 213.902344 119.929688 214.839844 C 119.171875 215.363281 118.335938 215.625 117.414062 215.632812 L 78.613281 215.632812 C 78.304688 215.632812 78 215.660156 77.699219 215.722656 C 77.398438 215.78125 77.105469 215.871094 76.820312 215.988281 C 76.535156 216.105469 76.265625 216.25 76.011719 216.421875 C 75.753906 216.59375 75.519531 216.785156 75.300781 217.003906 C 75.082031 217.222656 74.890625 217.457031 74.71875 217.714844 C 74.546875 217.96875 74.402344 218.238281 74.285156 218.523438 C 74.167969 218.808594 74.078125 219.101562 74.019531 219.402344 C 73.957031 219.703125 73.929688 220.007812 73.929688 220.316406 C 73.929688 220.625 73.957031 220.925781 74.019531 221.230469 C 74.078125 221.53125 74.167969 221.824219 74.285156 222.109375 C 74.402344 222.390625 74.546875 222.660156 74.71875 222.917969 C 74.890625 223.171875 75.082031 223.410156 75.300781 223.628906 C 75.519531 223.84375 75.753906 224.039062 76.011719 224.210938 C 76.265625 224.378906 76.535156 224.523438 76.820312 224.644531 C 77.105469 224.761719 77.398438 224.847656 77.699219 224.910156 C 78 224.96875 78.304688 225 78.613281 225 L 122.933594 225 C 123.238281 225 123.542969 225.03125 123.847656 225.089844 C 124.148438 225.148438 124.441406 225.238281 124.722656 225.355469 C 125.007812 225.472656 125.277344 225.617188 125.535156 225.789062 C 125.789062 225.960938 126.027344 226.152344 126.242188 226.371094 C 126.460938 226.589844 126.65625 226.824219 126.828125 227.082031 C 126.996094 227.335938 127.140625 227.605469 127.257812 227.890625 C 127.378906 228.175781 127.464844 228.46875 127.527344 228.769531 C 127.585938 229.070312 127.617188 229.375 127.617188 229.683594 C 127.617188 229.992188 127.585938 230.296875 127.527344 230.597656 C 127.464844 230.898438 127.378906 231.191406 127.257812 231.476562 C 127.140625 231.757812 126.996094 232.03125 126.828125 232.285156 C 126.65625 232.539062 126.460938 232.777344 126.242188 232.996094 C 126.027344 233.210938 125.789062 233.40625 125.535156 233.578125 C 125.277344 233.75 125.007812 233.890625 124.722656 234.011719 C 124.441406 234.128906 124.148438 234.214844 123.847656 234.277344 C 123.542969 234.335938 123.238281 234.367188 122.933594 234.367188 L 11.214844 234.367188 C 10.90625 234.367188 10.601562 234.398438 10.300781 234.457031 C 9.996094 234.515625 9.703125 234.605469 9.421875 234.722656 C 9.136719 234.839844 8.867188 234.984375 8.609375 235.15625 C 8.355469 235.328125 8.117188 235.519531 7.902344 235.738281 C 7.683594 235.957031 7.488281 236.191406 7.320312 236.449219 C 7.148438 236.703125 7.003906 236.972656 6.886719 237.257812 C 6.769531 237.542969 6.679688 237.835938 6.621094 238.136719 C 6.558594 238.4375 6.53125 238.742188 6.53125 239.050781 C 6.53125 239.359375 6.558594 239.664062 6.621094 239.964844 C 6.679688 240.265625 6.769531 240.558594 6.886719 240.84375 C 7.003906 241.125 7.148438 241.398438 7.320312 241.652344 C 7.488281 241.910156 7.683594 242.144531 7.902344 242.363281 C 8.117188 242.578125 8.355469 242.773438 8.609375 242.945312 C 8.867188 243.117188 9.136719 243.261719 9.421875 243.378906 C 9.703125 243.496094 9.996094 243.585938 10.300781 243.644531 C 10.601562 243.703125 10.90625 243.734375 11.214844 243.734375 L 100.679688 243.734375 C 100.988281 243.730469 101.296875 243.757812 101.601562 243.816406 C 101.90625 243.875 102.199219 243.960938 102.488281 244.078125 C 102.773438 244.195312 103.046875 244.335938 103.304688 244.507812 C 103.5625 244.675781 103.800781 244.871094 104.023438 245.089844 C 104.242188 245.308594 104.4375 245.542969 104.609375 245.800781 C 104.785156 246.058594 104.929688 246.328125 105.050781 246.613281 C 105.167969 246.898438 105.257812 247.195312 105.320312 247.5 C 105.378906 247.800781 105.410156 248.109375 105.410156 248.417969 C 105.410156 248.726562 105.378906 249.035156 105.320312 249.335938 C 105.257812 249.640625 105.167969 249.933594 105.050781 250.222656 C 104.929688 250.507812 104.785156 250.777344 104.609375 251.035156 C 104.4375 251.289062 104.242188 251.527344 104.023438 251.746094 C 103.800781 251.964844 103.5625 252.15625 103.304688 252.328125 C 103.046875 252.5 102.773438 252.640625 102.488281 252.757812 C 102.199219 252.875 101.90625 252.960938 101.601562 253.019531 C 101.296875 253.078125 100.988281 253.105469 100.679688 253.101562 L 43.308594 253.101562 C 43 253.101562 42.699219 253.132812 42.394531 253.191406 C 42.09375 253.25 41.800781 253.339844 41.515625 253.457031 C 41.234375 253.574219 40.964844 253.71875 40.707031 253.890625 C 40.453125 254.0625 40.214844 254.253906 39.996094 254.472656 C 39.78125 254.691406 39.585938 254.925781 39.414062 255.183594 C 39.246094 255.4375 39.101562 255.707031 38.980469 255.992188 C 38.863281 256.277344 38.777344 256.570312 38.714844 256.871094 C 38.65625 257.171875 38.625 257.476562 38.625 257.785156 C 38.625 258.09375 38.65625 258.398438 38.714844 258.699219 C 38.777344 259 38.863281 259.292969 38.980469 259.578125 C 39.101562 259.859375 39.246094 260.132812 39.414062 260.386719 C 39.585938 260.644531 39.78125 260.878906 39.996094 261.097656 C 40.214844 261.3125 40.453125 261.507812 40.707031 261.679688 C 40.964844 261.851562 41.234375 261.996094 41.515625 262.113281 C 41.800781 262.230469 42.09375 262.320312 42.394531 262.378906 C 42.699219 262.4375 43 262.46875 43.308594 262.46875 L 82.039062 262.46875 C 79.214844 270.582031 77.804688 278.933594 77.804688 287.523438 L 93.046875 287.523438 C 93.046875 287.613281 93.027344 287.699219 93.027344 287.792969 C 93.027344 288.84375 93.097656 289.875 93.183594 290.902344 C 93.359375 293.027344 93.722656 295.121094 94.265625 297.183594 C 94.8125 299.246094 95.535156 301.242188 96.429688 303.175781 C 97.328125 305.113281 98.390625 306.953125 99.609375 308.699219 C 100.832031 310.445312 102.199219 312.074219 103.710938 313.578125 C 104.195312 314.074219 104.699219 314.550781 105.214844 315.015625 C 105.730469 315.480469 106.257812 315.929688 106.796875 316.367188 C 107.339844 316.800781 107.890625 317.21875 108.457031 317.621094 C 109.019531 318.023438 109.597656 318.410156 110.183594 318.78125 C 110.773438 319.148438 111.367188 319.5 111.976562 319.835938 C 112.582031 320.171875 113.199219 320.488281 113.824219 320.789062 C 114.449219 321.089844 115.085938 321.371094 115.726562 321.636719 C 116.367188 321.898438 117.015625 322.144531 117.671875 322.371094 C 118.328125 322.597656 118.988281 322.804688 119.65625 322.992188 C 120.324219 323.179688 120.996094 323.351562 121.675781 323.5 C 122.351562 323.648438 123.035156 323.78125 123.71875 323.890625 C 124.402344 324 125.089844 324.09375 125.78125 324.164062 C 126.472656 324.234375 127.164062 324.285156 127.855469 324.316406 C 128.546875 324.351562 129.242188 324.363281 129.933594 324.351562 C 130.628906 324.34375 131.320312 324.316406 132.015625 324.269531 C 132.707031 324.222656 133.394531 324.152344 134.085938 324.066406 C 134.773438 323.980469 135.457031 323.871094 136.140625 323.746094 C 136.820312 323.617188 137.5 323.472656 138.171875 323.304688 C 138.847656 323.140625 139.515625 322.957031 140.179688 322.75 C 140.839844 322.546875 141.5 322.324219 142.148438 322.082031 C 142.796875 321.839844 143.441406 321.582031 144.078125 321.300781 C 144.710938 321.023438 145.339844 320.726562 145.957031 320.414062 C 146.574219 320.097656 147.183594 319.765625 147.785156 319.417969 C 148.382812 319.066406 148.972656 318.699219 149.550781 318.316406 C 150.128906 317.933594 150.695312 317.535156 151.25 317.117188 C 151.804688 316.703125 152.347656 316.273438 152.878906 315.824219 C 153.410156 315.378906 153.925781 314.914062 154.429688 314.4375 C 154.9375 313.960938 155.425781 313.472656 155.902344 312.96875 C 156.378906 312.460938 156.839844 311.945312 157.285156 311.414062 C 157.730469 310.882812 158.160156 310.339844 158.578125 309.78125 C 158.992188 309.226562 159.390625 308.660156 159.773438 308.082031 C 160.15625 307.503906 160.519531 306.914062 160.871094 306.3125 C 161.289062 305.601562 161.6875 304.878906 162.058594 304.140625 C 164.164062 299.96875 165.410156 295.554688 165.804688 290.902344 C 165.890625 289.875 165.960938 288.84375 165.960938 287.792969 C 165.960938 287.703125 165.945312 287.613281 165.945312 287.523438 L 254.945312 287.523438 C 257.109375 287.496094 259.242188 287.21875 261.34375 286.6875 C 263.445312 286.15625 265.453125 285.386719 267.371094 284.378906 C 269.289062 283.375 271.0625 282.15625 272.691406 280.726562 C 274.320312 279.300781 275.757812 277.703125 277.007812 275.933594 L 278.53125 273.722656 C 278.203125 277.066406 278.199219 280.410156 278.527344 283.75 C 278.671875 285.210938 278.914062 286.640625 279.175781 288.058594 C 279.980469 292.394531 281.324219 296.5625 283.207031 300.550781 C 283.835938 300.277344 284.4375 299.957031 285.019531 299.589844 C 285.933594 299.023438 286.804688 298.386719 287.625 297.6875 C 288.734375 296.738281 289.746094 295.695312 290.65625 294.554688 C 291.191406 293.886719 291.6875 293.191406 292.148438 292.46875 C 292.75 291.519531 293.285156 290.570312 293.789062 289.621094 C 299.058594 279.691406 299.636719 269.597656 310.734375 258.632812 C 312.15625 257.222656 313.6875 255.941406 315.328125 254.789062 Z M 149.609375 287.792969 C 149.597656 288.449219 149.558594 289.097656 149.484375 289.746094 C 149.414062 290.394531 149.308594 291.039062 149.171875 291.679688 C 149.039062 292.316406 148.871094 292.945312 148.675781 293.570312 C 148.480469 294.191406 148.253906 294.804688 147.996094 295.402344 C 147.738281 296.003906 147.453125 296.589844 147.140625 297.164062 C 146.828125 297.734375 146.488281 298.292969 146.121094 298.832031 C 145.753906 299.371094 145.359375 299.890625 144.941406 300.394531 C 144.523438 300.894531 144.082031 301.375 143.617188 301.832031 C 143.152344 302.289062 142.667969 302.726562 142.160156 303.136719 C 141.652344 303.546875 141.125 303.933594 140.582031 304.292969 C 140.035156 304.652344 139.476562 304.984375 138.898438 305.289062 C 138.320312 305.59375 137.730469 305.871094 137.125 306.121094 C 136.523438 306.367188 135.90625 306.585938 135.28125 306.773438 C 134.65625 306.960938 134.023438 307.117188 133.382812 307.242188 C 132.742188 307.371094 132.097656 307.464844 131.449219 307.527344 C 130.800781 307.589844 130.148438 307.625 129.496094 307.625 C 128.84375 307.625 128.191406 307.589844 127.542969 307.527344 C 126.890625 307.464844 126.246094 307.371094 125.605469 307.242188 C 124.964844 307.117188 124.332031 306.960938 123.707031 306.773438 C 123.082031 306.585938 122.46875 306.367188 121.863281 306.121094 C 121.257812 305.871094 120.667969 305.59375 120.089844 305.289062 C 119.515625 304.984375 118.953125 304.652344 118.410156 304.292969 C 117.863281 303.933594 117.339844 303.546875 116.832031 303.136719 C 116.324219 302.726562 115.835938 302.289062 115.371094 301.832031 C 114.90625 301.375 114.464844 300.894531 114.046875 300.394531 C 113.628906 299.890625 113.238281 299.371094 112.871094 298.832031 C 112.503906 298.292969 112.160156 297.734375 111.847656 297.164062 C 111.535156 296.589844 111.25 296.003906 110.992188 295.402344 C 110.738281 294.804688 110.511719 294.191406 110.3125 293.570312 C 110.117188 292.945312 109.953125 292.316406 109.816406 291.679688 C 109.679688 291.039062 109.578125 290.394531 109.503906 289.746094 C 109.429688 289.097656 109.390625 288.449219 109.382812 287.792969 C 109.382812 287.703125 109.40625 287.617188 109.410156 287.523438 L 149.582031 287.523438 C 149.582031 287.617188 149.609375 287.703125 149.609375 287.792969 Z M 197.316406 88.871094 C 196.816406 85.109375 195.820312 77.207031 195.917969 75.144531 C 196.585938 60.734375 206.648438 49.496094 223.214844 50.265625 C 224.601562 50.332031 225.972656 50.503906 227.332031 50.789062 C 228.6875 51.070312 230.015625 51.457031 231.308594 51.953125 C 232.605469 52.445312 233.855469 53.039062 235.054688 53.734375 C 236.253906 54.425781 237.394531 55.207031 238.472656 56.082031 C 239.546875 56.957031 240.546875 57.910156 241.472656 58.945312 C 242.398438 59.976562 243.234375 61.078125 243.984375 62.242188 C 244.734375 63.410156 245.386719 64.628906 245.941406 65.898438 C 246.496094 67.167969 246.949219 68.476562 247.296875 69.816406 L 221.921875 68.636719 C 221.574219 68.621094 221.238281 68.671875 220.910156 68.792969 C 220.582031 68.910156 220.289062 69.085938 220.027344 69.320312 C 219.769531 69.558594 219.566406 69.832031 219.421875 70.148438 C 219.273438 70.464844 219.191406 70.796875 219.171875 71.144531 L 218.773438 79.734375 C 218.753906 80.132812 218.800781 80.523438 218.910156 80.90625 C 219.023438 81.292969 219.191406 81.648438 219.417969 81.976562 C 219.644531 82.304688 219.917969 82.589844 220.238281 82.828125 C 220.558594 83.066406 220.910156 83.25 221.289062 83.371094 L 246.242188 91.492188 C 244.671875 96.136719 242.402344 100.414062 239.4375 104.316406 C 239.210938 104.613281 238.949219 104.863281 238.640625 105.070312 C 238.335938 105.277344 238.007812 105.433594 237.652344 105.535156 C 237.296875 105.632812 236.933594 105.675781 236.566406 105.660156 C 236.195312 105.640625 235.839844 105.566406 235.496094 105.433594 L 199.480469 91.609375 C 198.894531 91.382812 198.410156 91.027344 198.023438 90.535156 C 197.632812 90.046875 197.398438 89.492188 197.316406 88.871094 Z M 52.359375 143.21875 L 6.410156 143.21875 C 6.082031 143.21875 5.757812 143.1875 5.4375 143.117188 C 5.117188 143.050781 4.808594 142.949219 4.507812 142.816406 C 4.207031 142.683594 3.925781 142.519531 3.660156 142.328125 C 3.394531 142.132812 3.152344 141.914062 2.933594 141.671875 C 2.710938 141.429688 2.519531 141.164062 2.355469 140.882812 C 2.191406 140.597656 2.058594 140.300781 1.957031 139.988281 C 1.855469 139.675781 1.789062 139.355469 1.753906 139.03125 C 1.71875 138.703125 1.71875 138.378906 1.75 138.050781 C 1.996094 135.617188 4.226562 133.851562 6.675781 133.851562 L 64.367188 133.851562 C 64.695312 133.851562 65.019531 133.820312 65.339844 133.75 C 65.660156 133.683594 65.972656 133.582031 66.269531 133.449219 C 66.570312 133.316406 66.851562 133.152344 67.117188 132.960938 C 67.382812 132.765625 67.625 132.546875 67.847656 132.304688 C 68.066406 132.0625 68.257812 131.796875 68.421875 131.515625 C 68.585938 131.230469 68.71875 130.933594 68.820312 130.621094 C 68.921875 130.308594 68.992188 129.988281 69.023438 129.664062 C 69.058594 129.335938 69.058594 129.011719 69.027344 128.6875 C 68.78125 126.246094 66.550781 124.484375 64.101562 124.484375 L 17.882812 124.484375 C 17.574219 124.484375 17.269531 124.457031 16.96875 124.394531 C 16.664062 124.335938 16.371094 124.246094 16.089844 124.128906 C 15.804688 124.011719 15.535156 123.867188 15.277344 123.695312 C 15.023438 123.523438 14.785156 123.332031 14.570312 123.113281 C 14.351562 122.894531 14.15625 122.660156 13.988281 122.402344 C 13.816406 122.148438 13.671875 121.878906 13.554688 121.59375 C 13.4375 121.308594 13.347656 121.015625 13.289062 120.714844 C 13.226562 120.414062 13.199219 120.109375 13.199219 119.800781 C 13.199219 119.492188 13.226562 119.191406 13.289062 118.886719 C 13.347656 118.585938 13.4375 118.292969 13.554688 118.007812 C 13.671875 117.726562 13.816406 117.457031 13.988281 117.199219 C 14.15625 116.945312 14.351562 116.707031 14.570312 116.488281 C 14.785156 116.273438 15.023438 116.078125 15.277344 115.90625 C 15.535156 115.738281 15.804688 115.59375 16.089844 115.472656 C 16.371094 115.355469 16.664062 115.269531 16.96875 115.207031 C 17.269531 115.148438 17.574219 115.117188 17.882812 115.117188 L 64.367188 115.117188 C 64.695312 115.117188 65.019531 115.082031 65.339844 115.015625 C 65.660156 114.949219 65.972656 114.847656 66.269531 114.714844 C 66.570312 114.582031 66.851562 114.417969 67.117188 114.226562 C 67.382812 114.03125 67.625 113.8125 67.847656 113.570312 C 68.066406 113.328125 68.257812 113.0625 68.421875 112.78125 C 68.585938 112.496094 68.71875 112.199219 68.820312 111.886719 C 68.921875 111.574219 68.992188 111.253906 69.023438 110.929688 C 69.058594 110.601562 69.058594 110.277344 69.027344 109.953125 C 68.78125 107.511719 66.550781 105.75 64.101562 105.75 L 31.804688 105.75 C 31.476562 105.75 31.152344 105.714844 30.832031 105.648438 C 30.511719 105.578125 30.199219 105.480469 29.902344 105.347656 C 29.601562 105.210938 29.320312 105.050781 29.054688 104.855469 C 28.789062 104.664062 28.546875 104.445312 28.324219 104.203125 C 28.105469 103.960938 27.914062 103.695312 27.75 103.410156 C 27.585938 103.128906 27.453125 102.832031 27.351562 102.519531 C 27.25 102.207031 27.179688 101.886719 27.148438 101.5625 C 27.113281 101.234375 27.109375 100.910156 27.144531 100.582031 C 27.390625 98.144531 29.621094 96.382812 32.070312 96.382812 L 52.359375 96.382812 L 52.359375 91.003906 C 52.359375 90.699219 52.386719 90.394531 52.445312 90.097656 C 52.507812 89.800781 52.59375 89.507812 52.710938 89.226562 C 52.828125 88.945312 52.96875 88.679688 53.140625 88.425781 C 53.308594 88.171875 53.5 87.9375 53.71875 87.722656 C 53.933594 87.507812 54.167969 87.3125 54.417969 87.144531 C 54.671875 86.976562 54.941406 86.832031 55.222656 86.714844 C 55.503906 86.601562 55.792969 86.511719 56.09375 86.453125 C 56.390625 86.394531 56.691406 86.363281 56.996094 86.363281 L 160.636719 86.363281 C 160.941406 86.363281 161.242188 86.394531 161.539062 86.453125 C 161.839844 86.511719 162.128906 86.601562 162.410156 86.714844 C 162.691406 86.832031 162.960938 86.976562 163.214844 87.144531 C 163.464844 87.3125 163.699219 87.507812 163.917969 87.722656 C 164.132812 87.9375 164.324219 88.171875 164.492188 88.425781 C 164.664062 88.679688 164.804688 88.945312 164.921875 89.226562 C 165.039062 89.507812 165.125 89.796875 165.1875 90.097656 C 165.246094 90.394531 165.277344 90.699219 165.277344 91.003906 L 165.277344 181.507812 C 165.277344 181.933594 165.234375 182.355469 165.152344 182.777344 C 165.066406 183.195312 164.945312 183.601562 164.78125 183.992188 C 164.617188 184.386719 164.417969 184.761719 164.179688 185.117188 C 163.945312 185.472656 163.675781 185.796875 163.375 186.101562 C 163.074219 186.402344 162.746094 186.671875 162.390625 186.90625 C 162.035156 187.144531 161.660156 187.34375 161.265625 187.507812 C 160.875 187.671875 160.46875 187.792969 160.050781 187.878906 C 159.632812 187.960938 159.207031 188.003906 158.78125 188.003906 L 56.996094 188.003906 C 56.691406 188.003906 56.390625 187.972656 56.09375 187.914062 C 55.792969 187.855469 55.503906 187.765625 55.222656 187.648438 C 54.941406 187.53125 54.671875 187.390625 54.417969 187.21875 C 54.167969 187.050781 53.933594 186.859375 53.714844 186.644531 C 53.5 186.425781 53.308594 186.191406 53.140625 185.941406 C 52.96875 185.6875 52.828125 185.417969 52.710938 185.136719 C 52.59375 184.855469 52.507812 184.566406 52.445312 184.265625 C 52.386719 183.96875 52.359375 183.667969 52.359375 183.363281 L 52.359375 152.585938 L 64.367188 152.585938 C 64.695312 152.585938 65.019531 152.554688 65.339844 152.484375 C 65.660156 152.417969 65.972656 152.316406 66.269531 152.183594 C 66.570312 152.050781 66.851562 151.886719 67.117188 151.695312 C 67.382812 151.5 67.625 151.285156 67.847656 151.039062 C 68.066406 150.796875 68.257812 150.53125 68.421875 150.25 C 68.585938 149.964844 68.71875 149.667969 68.820312 149.355469 C 68.921875 149.042969 68.992188 148.726562 69.023438 148.398438 C 69.058594 148.074219 69.058594 147.746094 69.027344 147.421875 C 68.78125 144.984375 66.550781 143.21875 64.101562 143.21875 Z M 52.359375 143.21875 " fill-opacity="1" fill-rule="nonzero"/></g></svg>