<svg xmlns="http://www.w3.org/2000/svg" xmlns:xlink="http://www.w3.org/1999/xlink" width="500" zoomAndPan="magnify" viewBox="0 0 375 374.999991" height="500" preserveAspectRatio="xMidYMid meet" version="1.0"><path fill="#3bb77e" d="M 286.5 158.550781 L 147.167969 340.175781 C 141.734375 347.257812 131.523438 348.601562 124.441406 343.167969 L 11.5 256.523438 C 4.417969 251.089844 3.074219 240.882812 8.503906 233.800781 L 147.839844 52.175781 C 150.742188 48.394531 154.683594 46.253906 159.433594 45.882812 L 236.164062 39.871094 C 246.011719 39.101562 254.960938 39.875 262.796875 45.886719 C 270.636719 51.902344 273.699219 60.34375 275.503906 70.054688 L 280.355469 96.132812 C 284.808594 95.773438 289.449219 95.199219 294.21875 94.390625 C 296.492188 94.007812 298.757812 93.582031 301.003906 93.109375 C 318.730469 89.390625 334.253906 83.304688 345.023438 76.476562 C 354.316406 70.582031 359.683594 64.664062 358.917969 60.121094 L 358.886719 59.957031 C 358.058594 56.011719 352.121094 52.996094 343 51.234375 C 332.15625 49.136719 317.558594 49.261719 301.5 51.972656 C 299.226562 52.355469 296.960938 52.78125 294.714844 53.253906 C 290.941406 54.046875 287.265625 54.945312 283.714844 55.9375 C 282.332031 52.203125 280.574219 48.691406 278.300781 45.453125 C 282.8125 44.128906 287.511719 42.941406 292.359375 41.925781 C 294.832031 41.40625 297.246094 40.949219 299.597656 40.554688 C 317.019531 37.613281 333.066406 37.519531 345.175781 39.859375 C 359.007812 42.53125 368.328125 48.601562 370.214844 57.601562 C 370.265625 57.84375 370.308594 58.050781 370.335938 58.21875 C 371.953125 67.808594 364.535156 77.824219 351.230469 86.261719 C 339.394531 93.769531 322.503906 100.417969 303.359375 104.4375 C 300.886719 104.957031 298.472656 105.414062 296.121094 105.808594 C 278.699219 108.753906 262.65625 108.84375 250.542969 106.503906 C 236.710938 103.832031 227.390625 97.761719 225.503906 88.761719 C 225.453125 88.519531 225.414062 88.3125 225.382812 88.144531 C 224.484375 82.828125 226.367188 77.378906 230.492188 72.140625 C 226.183594 72.320312 221.984375 74.335938 219.15625 78.023438 C 215.09375 83.316406 215.09375 90.445312 218.652344 95.671875 C 223.800781 107.144531 236.921875 112.734375 248.894531 115.046875 C 260.042969 117.203125 272.308594 117.269531 284.082031 116.167969 L 289.574219 145.722656 C 290.445312 150.40625 289.398438 154.773438 286.5 158.550781 Z M 244.992188 93.058594 C 247.339844 87.511719 246.148438 80.980469 241.84375 76.621094 C 238.179688 80.128906 236.332031 83.449219 236.800781 86.242188 L 236.832031 86.40625 C 237.394531 89.085938 240.316406 91.335938 244.992188 93.058594 Z M 232.71875 129.988281 L 217.394531 149.972656 L 171.902344 115.082031 C 169.359375 113.140625 165.730469 113.628906 163.789062 116.167969 C 161.851562 118.707031 162.335938 122.339844 164.875 124.277344 L 214.953125 162.683594 C 217.492188 164.621094 221.125 164.136719 223.0625 161.597656 L 241.917969 137.011719 C 243.859375 134.472656 243.371094 130.839844 240.832031 128.898438 C 238.292969 126.960938 234.660156 127.449219 232.71875 129.988281 Z M 187.472656 202.398438 L 178.4375 189.359375 L 190.472656 173.667969 L 205.40625 179.015625 C 208.421875 180.089844 211.738281 178.519531 212.816406 175.503906 C 213.890625 172.488281 212.320312 169.171875 209.304688 168.09375 L 146.910156 145.753906 L 146.90625 145.769531 C 145.214844 145.167969 143.265625 145.359375 141.675781 146.457031 C 139.046875 148.269531 138.390625 151.871094 140.203125 154.5 L 177.960938 208.96875 C 179.773438 211.59375 183.375 212.253906 186.003906 210.4375 C 188.628906 208.625 189.289062 205.023438 187.472656 202.398438 Z M 159.996094 162.757812 L 171.511719 179.371094 L 179.03125 169.570312 Z M 166.964844 215.722656 L 151.640625 235.707031 L 135.785156 223.550781 L 145.625 210.71875 C 147.566406 208.179688 147.078125 204.546875 144.539062 202.605469 C 142 200.667969 138.367188 201.152344 136.425781 203.695312 L 126.601562 216.503906 L 110.746094 204.347656 L 126.089844 184.34375 C 128.027344 181.804688 127.542969 178.171875 125 176.234375 C 122.460938 174.292969 118.828125 174.78125 116.890625 177.320312 L 98.035156 201.90625 C 96.09375 204.445312 96.582031 208.074219 99.121094 210.015625 L 149.195312 248.421875 C 151.738281 250.359375 155.367188 249.871094 157.308594 247.332031 L 176.164062 222.746094 C 178.101562 220.207031 177.617188 216.578125 175.074219 214.636719 C 172.535156 212.695312 168.90625 213.183594 166.964844 215.722656 Z M 66.683594 242.78125 C 64.746094 245.320312 65.230469 248.953125 67.773438 250.894531 L 117.847656 289.296875 C 120.386719 291.238281 124.019531 290.75 125.957031 288.210938 L 135.386719 275.917969 C 138.941406 271.28125 140.277344 265.609375 139.566406 260.207031 C 138.851562 254.796875 136.085938 249.652344 131.433594 246.085938 L 105.945312 226.539062 C 101.304688 222.980469 95.636719 221.644531 90.234375 222.359375 C 84.824219 223.070312 79.679688 225.839844 76.113281 230.488281 Z M 85.3125 237.511719 L 79.398438 245.222656 L 120.289062 276.585938 L 126.1875 268.894531 C 127.816406 266.769531 128.429688 264.175781 128.101562 261.703125 C 127.777344 259.242188 126.519531 256.902344 124.410156 255.285156 L 98.917969 235.734375 C 96.796875 234.109375 94.199219 233.496094 91.730469 233.820312 C 89.265625 234.144531 86.929688 235.402344 85.3125 237.511719 Z M 85.3125 237.511719 " fill-opacity="1" fill-rule="evenodd"/></svg>