<svg xmlns="http://www.w3.org/2000/svg" xmlns:xlink="http://www.w3.org/1999/xlink" width="1920" zoomAndPan="magnify" viewBox="0 0 1440 809.999993" height="1080" preserveAspectRatio="xMidYMid meet" version="1.0"><defs><g/><clipPath id="99440986fe"><path d="M 1351.953125 306.050781 L 1414.953125 306.050781 L 1414.953125 369.050781 L 1351.953125 369.050781 Z M 1351.953125 306.050781 " clip-rule="nonzero"/></clipPath></defs><g clip-path="url(#99440986fe)"><path fill="#3bb77e" d="M 1415.109375 337.632812 C 1415.109375 338.664062 1415.058594 339.699219 1414.957031 340.726562 C 1414.855469 341.757812 1414.703125 342.777344 1414.503906 343.792969 C 1414.300781 344.808594 1414.050781 345.808594 1413.75 346.796875 C 1413.449219 347.789062 1413.101562 348.761719 1412.707031 349.714844 C 1412.308594 350.671875 1411.867188 351.605469 1411.378906 352.519531 C 1410.894531 353.429688 1410.363281 354.316406 1409.789062 355.175781 C 1409.210938 356.035156 1408.597656 356.867188 1407.941406 357.664062 C 1407.285156 358.464844 1406.589844 359.230469 1405.859375 359.960938 C 1405.128906 360.691406 1404.363281 361.386719 1403.5625 362.042969 C 1402.765625 362.699219 1401.933594 363.316406 1401.074219 363.890625 C 1400.214844 364.464844 1399.328125 364.996094 1398.417969 365.484375 C 1397.503906 365.96875 1396.570312 366.410156 1395.613281 366.808594 C 1394.660156 367.203125 1393.6875 367.550781 1392.695312 367.851562 C 1391.707031 368.152344 1390.703125 368.402344 1389.691406 368.605469 C 1388.675781 368.804688 1387.652344 368.957031 1386.625 369.058594 C 1385.59375 369.160156 1384.5625 369.210938 1383.53125 369.210938 C 1382.496094 369.210938 1381.464844 369.160156 1380.433594 369.058594 C 1379.40625 368.957031 1378.382812 368.804688 1377.367188 368.605469 C 1376.355469 368.402344 1375.351562 368.152344 1374.363281 367.851562 C 1373.371094 367.550781 1372.398438 367.203125 1371.445312 366.808594 C 1370.488281 366.410156 1369.554688 365.96875 1368.640625 365.484375 C 1367.730469 364.996094 1366.84375 364.464844 1365.984375 363.890625 C 1365.125 363.316406 1364.292969 362.699219 1363.496094 362.042969 C 1362.695312 361.386719 1361.929688 360.691406 1361.199219 359.960938 C 1360.46875 359.230469 1359.773438 358.464844 1359.117188 357.664062 C 1358.460938 356.867188 1357.847656 356.035156 1357.269531 355.175781 C 1356.695312 354.316406 1356.164062 353.429688 1355.679688 352.519531 C 1355.191406 351.605469 1354.75 350.671875 1354.351562 349.714844 C 1353.957031 348.761719 1353.609375 347.789062 1353.308594 346.796875 C 1353.007812 345.808594 1352.757812 344.808594 1352.554688 343.792969 C 1352.355469 342.777344 1352.203125 341.757812 1352.101562 340.726562 C 1352 339.699219 1351.949219 338.664062 1351.949219 337.632812 C 1351.949219 336.597656 1352 335.566406 1352.101562 334.535156 C 1352.203125 333.507812 1352.355469 332.484375 1352.554688 331.46875 C 1352.757812 330.457031 1353.007812 329.453125 1353.308594 328.464844 C 1353.609375 327.472656 1353.957031 326.5 1354.351562 325.546875 C 1354.75 324.589844 1355.191406 323.65625 1355.679688 322.746094 C 1356.164062 321.832031 1356.695312 320.945312 1357.269531 320.085938 C 1357.847656 319.226562 1358.460938 318.398438 1359.117188 317.597656 C 1359.773438 316.796875 1360.46875 316.03125 1361.199219 315.300781 C 1361.929688 314.570312 1362.695312 313.875 1363.496094 313.21875 C 1364.292969 312.5625 1365.125 311.949219 1365.984375 311.375 C 1366.84375 310.800781 1367.730469 310.269531 1368.640625 309.78125 C 1369.554688 309.292969 1370.488281 308.851562 1371.445312 308.457031 C 1372.398438 308.058594 1373.371094 307.710938 1374.363281 307.410156 C 1375.351562 307.109375 1376.355469 306.859375 1377.367188 306.65625 C 1378.382812 306.457031 1379.40625 306.304688 1380.433594 306.203125 C 1381.464844 306.101562 1382.496094 306.050781 1383.53125 306.050781 C 1384.5625 306.050781 1385.59375 306.101562 1386.625 306.203125 C 1387.652344 306.304688 1388.675781 306.457031 1389.691406 306.65625 C 1390.703125 306.859375 1391.707031 307.109375 1392.695312 307.410156 C 1393.6875 307.710938 1394.660156 308.058594 1395.613281 308.457031 C 1396.570312 308.851562 1397.503906 309.292969 1398.417969 309.78125 C 1399.328125 310.269531 1400.214844 310.800781 1401.074219 311.375 C 1401.933594 311.949219 1402.765625 312.5625 1403.5625 313.21875 C 1404.363281 313.875 1405.128906 314.570312 1405.859375 315.300781 C 1406.589844 316.03125 1407.285156 316.796875 1407.941406 317.597656 C 1408.597656 318.398438 1409.210938 319.226562 1409.789062 320.085938 C 1410.363281 320.945312 1410.894531 321.832031 1411.378906 322.746094 C 1411.867188 323.65625 1412.308594 324.589844 1412.707031 325.546875 C 1413.101562 326.5 1413.449219 327.472656 1413.75 328.464844 C 1414.050781 329.453125 1414.300781 330.457031 1414.503906 331.46875 C 1414.703125 332.484375 1414.855469 333.507812 1414.957031 334.535156 C 1415.058594 335.566406 1415.109375 336.597656 1415.109375 337.632812 Z M 1415.109375 337.632812 " fill-opacity="1" fill-rule="nonzero"/></g><g fill="#000000" fill-opacity="1"><g transform="translate(24.890513, 362.631938)"><g><path d="M 4.476562 0 L 46.863281 0 L 60.292969 -38.804688 L 144.765625 -38.804688 L 158.199219 0 L 200.585938 0 L 122.976562 -217.898438 L 82.085938 -217.898438 Z M 102.679688 -160.289062 L 131.335938 -77.605469 L 74.023438 -77.605469 Z M 102.679688 -160.289062 "/></g></g></g><g fill="#000000" fill-opacity="1"><g transform="translate(229.952189, 362.631938)"><g><path d="M 148.945312 -2.984375 C 148.945312 23.582031 129.84375 47.460938 99.398438 47.460938 C 71.636719 47.460938 57.90625 36.117188 45.070312 12.535156 L 9.253906 34.328125 C 25.074219 63.28125 53.429688 84.472656 98.800781 84.472656 C 157.601562 84.472656 188.945312 44.476562 188.945312 -4.476562 L 188.945312 -174.617188 L 148.648438 -174.617188 L 148.648438 -152.230469 C 135.8125 -168.050781 115.515625 -178.199219 92.53125 -178.199219 C 48.355469 -178.199219 5.96875 -145.066406 5.96875 -87.160156 C 5.96875 -29.847656 49.847656 3.582031 91.933594 3.582031 C 115.515625 3.582031 136.109375 -6.566406 148.945312 -23.28125 Z M 98.5 -33.429688 C 68.652344 -33.429688 45.667969 -57.308594 45.667969 -87.753906 C 45.667969 -117.902344 68.652344 -141.484375 98.5 -141.484375 C 128.648438 -141.484375 150.738281 -117.605469 150.738281 -87.753906 C 150.738281 -57.609375 128.648438 -33.429688 98.5 -33.429688 Z M 98.5 -33.429688 "/></g></g></g><g fill="#000000" fill-opacity="1"><g transform="translate(430.835036, 362.631938)"><g><path d="M 11.640625 0 L 51.9375 0 L 51.9375 -93.128906 C 51.9375 -123.277344 64.175781 -135.8125 87.753906 -135.8125 C 99.398438 -135.8125 105.964844 -132.828125 111.933594 -128.949219 L 127.15625 -167.152344 C 119.097656 -171.632812 109.246094 -174.617188 96.410156 -174.617188 C 74.621094 -174.617188 59.699219 -165.960938 51.636719 -148.648438 L 51.636719 -174.617188 L 11.640625 -174.617188 Z M 11.640625 0 "/></g></g></g><g fill="#000000" fill-opacity="1"><g transform="translate(559.48363, 362.631938)"><g><path d="M 11.640625 0 L 52.234375 0 L 52.234375 -174.617188 L 11.640625 -174.617188 Z M 6.566406 -217.300781 C 6.566406 -202.078125 15.519531 -192.226562 31.9375 -192.226562 C 47.757812 -192.226562 57.308594 -202.078125 57.308594 -217.300781 C 57.308594 -232.523438 47.757812 -242.671875 31.9375 -242.671875 C 16.417969 -242.671875 6.566406 -232.523438 6.566406 -217.300781 Z M 6.566406 -217.300781 "/></g></g></g><g fill="#000000" fill-opacity="1"><g transform="translate(623.360225, 362.631938)"><g><path d="M 5.371094 -138.5 L 35.222656 -138.5 L 35.222656 -72.832031 C 35.222656 -17.3125 51.636719 0 105.664062 0 L 111.335938 0 L 111.335938 -37.90625 C 80.292969 -37.90625 75.816406 -42.683594 75.816406 -73.128906 L 75.816406 -138.5 L 111.335938 -138.5 L 111.335938 -174.617188 L 75.816406 -174.617188 L 75.816406 -228.941406 L 35.222656 -201.183594 L 35.222656 -174.617188 L 5.371094 -174.617188 Z M 5.371094 -138.5 "/></g></g></g><g fill="#000000" fill-opacity="1"><g transform="translate(742.457148, 362.631938)"><g><path d="M 11.640625 0 L 51.9375 0 L 51.9375 -93.128906 C 51.9375 -123.277344 64.175781 -135.8125 87.753906 -135.8125 C 99.398438 -135.8125 105.964844 -132.828125 111.933594 -128.949219 L 127.15625 -167.152344 C 119.097656 -171.632812 109.246094 -174.617188 96.410156 -174.617188 C 74.621094 -174.617188 59.699219 -165.960938 51.636719 -148.648438 L 51.636719 -174.617188 L 11.640625 -174.617188 Z M 11.640625 0 "/></g></g></g><g fill="#000000" fill-opacity="1"><g transform="translate(871.105742, 362.631938)"><g><path d="M 168.945312 -174.617188 L 128.648438 -174.617188 L 128.648438 -78.800781 C 128.648438 -48.058594 112.230469 -31.339844 89.84375 -31.339844 C 64.472656 -31.339844 52.535156 -48.058594 52.535156 -75.21875 L 52.535156 -174.617188 L 11.640625 -174.617188 L 11.640625 -71.039062 C 11.640625 -23.582031 37.011719 3.582031 78.800781 3.582031 C 101.1875 3.582031 117.902344 -5.371094 128.949219 -20 L 128.949219 0 L 168.945312 0 Z M 168.945312 -174.617188 "/></g></g></g><g fill="#000000" fill-opacity="1"><g transform="translate(1051.691376, 362.631938)"><g><path d="M 77.308594 3.582031 C 127.15625 3.582031 148.945312 -28.953125 148.945312 -53.429688 C 148.945312 -90.144531 116.113281 -100.292969 87.457031 -105.964844 C 61.191406 -111.636719 47.460938 -114.621094 47.460938 -126.261719 C 47.460938 -136.109375 56.414062 -145.066406 75.519531 -145.066406 C 92.234375 -145.066406 105.367188 -137.304688 112.53125 -125.066406 L 146.855469 -142.378906 C 133.425781 -164.765625 111.039062 -178.496094 75.519531 -178.496094 C 34.027344 -178.496094 6.867188 -153.125 6.867188 -125.066406 C 6.867188 -88.351562 38.207031 -78.800781 68.054688 -72.53125 C 89.546875 -67.757812 108.949219 -65.367188 108.949219 -52.535156 C 108.949219 -40.894531 99.097656 -31.339844 79.101562 -31.339844 C 59.996094 -31.339844 45.371094 -40.296875 37.011719 -56.714844 L -0.296875 -38.804688 C 13.730469 -11.34375 38.207031 3.582031 77.308594 3.582031 Z M 77.308594 3.582031 "/></g></g></g><g fill="#000000" fill-opacity="1"><g transform="translate(1206.30849, 362.631938)"><g><path d="M 5.371094 -138.5 L 35.222656 -138.5 L 35.222656 -72.832031 C 35.222656 -17.3125 51.636719 0 105.664062 0 L 111.335938 0 L 111.335938 -37.90625 C 80.292969 -37.90625 75.816406 -42.683594 75.816406 -73.128906 L 75.816406 -138.5 L 111.335938 -138.5 L 111.335938 -174.617188 L 75.816406 -174.617188 L 75.816406 -228.941406 L 35.222656 -201.183594 L 35.222656 -174.617188 L 5.371094 -174.617188 Z M 5.371094 -138.5 "/></g></g></g><g fill="#3bb77e" fill-opacity="1"><g transform="translate(34.396334, 575.705183)"><g><path d="M 58.734375 -67.84375 C 60.285156 -67.84375 61.546875 -67.328125 62.515625 -66.296875 C 63.484375 -65.265625 63.96875 -63.972656 63.96875 -62.421875 L 63.96875 -5.90625 C 63.96875 -4.226562 63.398438 -2.820312 62.265625 -1.6875 C 61.140625 -0.5625 59.738281 0 58.0625 0 C 57.21875 0 56.359375 -0.144531 55.484375 -0.4375 C 54.609375 -0.726562 53.945312 -1.128906 53.5 -1.640625 L 15.40625 -50.015625 L 17.9375 -51.5625 L 17.9375 -5.421875 C 17.9375 -3.867188 17.429688 -2.578125 16.421875 -1.546875 C 15.421875 -0.515625 14.113281 0 12.5 0 C 10.945312 0 9.6875 -0.515625 8.71875 -1.546875 C 7.75 -2.578125 7.265625 -3.867188 7.265625 -5.421875 L 7.265625 -61.9375 C 7.265625 -63.613281 7.828125 -65.015625 8.953125 -66.140625 C 10.085938 -67.273438 11.5 -67.84375 13.1875 -67.84375 C 14.082031 -67.84375 15.015625 -67.664062 15.984375 -67.3125 C 16.960938 -66.957031 17.675781 -66.425781 18.125 -65.71875 L 55.046875 -18.609375 L 53.40625 -17.453125 L 53.40625 -62.421875 C 53.40625 -63.972656 53.890625 -65.265625 54.859375 -66.296875 C 55.828125 -67.328125 57.117188 -67.84375 58.734375 -67.84375 Z M 58.734375 -67.84375 "/></g></g></g><g fill="#3bb77e" fill-opacity="1"><g transform="translate(105.62937, 575.705183)"><g><path d="M 56.609375 -25.875 C 56.609375 -20.582031 55.425781 -15.914062 53.0625 -11.875 C 50.707031 -7.832031 47.539062 -4.679688 43.5625 -2.421875 C 39.59375 -0.160156 35.148438 0.96875 30.234375 0.96875 C 25.328125 0.96875 20.882812 -0.160156 16.90625 -2.421875 C 12.9375 -4.679688 9.769531 -7.832031 7.40625 -11.875 C 5.050781 -15.914062 3.875 -20.582031 3.875 -25.875 C 3.875 -31.175781 5.050781 -35.84375 7.40625 -39.875 C 9.769531 -43.914062 12.9375 -47.082031 16.90625 -49.375 C 20.882812 -51.675781 25.328125 -52.828125 30.234375 -52.828125 C 35.148438 -52.828125 39.59375 -51.675781 43.5625 -49.375 C 47.539062 -47.082031 50.707031 -43.914062 53.0625 -39.875 C 55.425781 -35.84375 56.609375 -31.175781 56.609375 -25.875 Z M 44.96875 -25.875 C 44.96875 -29.175781 44.304688 -32.035156 42.984375 -34.453125 C 41.660156 -36.878906 39.882812 -38.769531 37.65625 -40.125 C 35.425781 -41.476562 32.953125 -42.15625 30.234375 -42.15625 C 27.523438 -42.15625 25.054688 -41.476562 22.828125 -40.125 C 20.597656 -38.769531 18.816406 -36.878906 17.484375 -34.453125 C 16.160156 -32.035156 15.5 -29.175781 15.5 -25.875 C 15.5 -22.644531 16.160156 -19.816406 17.484375 -17.390625 C 18.816406 -14.972656 20.597656 -13.082031 22.828125 -11.71875 C 25.054688 -10.363281 27.523438 -9.6875 30.234375 -9.6875 C 32.953125 -9.6875 35.425781 -10.363281 37.65625 -11.71875 C 39.882812 -13.082031 41.660156 -14.972656 42.984375 -17.390625 C 44.304688 -19.816406 44.96875 -22.644531 44.96875 -25.875 Z M 32.375 -66.578125 L 24.90625 -60.375 C 24.070312 -59.664062 23.378906 -59.101562 22.828125 -58.6875 C 22.273438 -58.269531 21.382812 -58.0625 20.15625 -58.0625 C 19.320312 -58.0625 18.628906 -58.300781 18.078125 -58.78125 C 17.523438 -59.269531 17.25 -59.835938 17.25 -60.484375 C 17.25 -60.992188 17.3125 -61.457031 17.4375 -61.875 C 17.570312 -62.300781 17.898438 -62.835938 18.421875 -63.484375 L 23.171875 -69.5 C 24.648438 -71.363281 26.617188 -72.296875 29.078125 -72.296875 L 32.5625 -72.296875 C 33.851562 -72.296875 34.867188 -72.101562 35.609375 -71.71875 C 36.359375 -71.332031 37.085938 -70.59375 37.796875 -69.5 L 42.0625 -63.484375 C 42.582031 -62.835938 42.90625 -62.300781 43.03125 -61.875 C 43.164062 -61.457031 43.234375 -60.992188 43.234375 -60.484375 C 43.234375 -59.835938 42.972656 -59.269531 42.453125 -58.78125 C 41.929688 -58.300781 41.21875 -58.0625 40.3125 -58.0625 C 39.09375 -58.0625 38.222656 -58.269531 37.703125 -58.6875 C 37.179688 -59.101562 36.472656 -59.664062 35.578125 -60.375 L 27.421875 -67.546875 Z M 32.375 -66.578125 "/></g></g></g><g fill="#3bb77e" fill-opacity="1"><g transform="translate(166.104765, 575.705183)"><g><path d="M 34.015625 -52.828125 C 38.796875 -52.828125 42.429688 -51.820312 44.921875 -49.8125 C 47.410156 -47.8125 49.125 -45.144531 50.0625 -41.8125 C 51 -38.488281 51.46875 -34.789062 51.46875 -30.71875 L 51.46875 -5.90625 C 51.46875 -4.226562 50.914062 -2.820312 49.8125 -1.6875 C 48.71875 -0.5625 47.332031 0 45.65625 0 C 43.96875 0 42.570312 -0.5625 41.46875 -1.6875 C 40.375 -2.820312 39.828125 -4.226562 39.828125 -5.90625 L 39.828125 -30.71875 C 39.828125 -32.851562 39.550781 -34.773438 39 -36.484375 C 38.457031 -38.203125 37.472656 -39.578125 36.046875 -40.609375 C 34.628906 -41.640625 32.597656 -42.15625 29.953125 -42.15625 C 27.367188 -42.15625 25.1875 -41.640625 23.40625 -40.609375 C 21.625 -39.578125 20.265625 -38.203125 19.328125 -36.484375 C 18.398438 -34.773438 17.9375 -32.851562 17.9375 -30.71875 L 17.9375 -5.90625 C 17.9375 -4.226562 17.382812 -2.820312 16.28125 -1.6875 C 15.1875 -0.5625 13.796875 0 12.109375 0 C 10.429688 0 9.039062 -0.5625 7.9375 -1.6875 C 6.84375 -2.820312 6.296875 -4.226562 6.296875 -5.90625 L 6.296875 -45.9375 C 6.296875 -47.625 6.84375 -49.03125 7.9375 -50.15625 C 9.039062 -51.289062 10.429688 -51.859375 12.109375 -51.859375 C 13.796875 -51.859375 15.1875 -51.289062 16.28125 -50.15625 C 17.382812 -49.03125 17.9375 -47.625 17.9375 -45.9375 L 17.9375 -41.765625 L 16.484375 -42.0625 C 17.054688 -43.164062 17.890625 -44.34375 18.984375 -45.59375 C 20.085938 -46.851562 21.382812 -48.03125 22.875 -49.125 C 24.363281 -50.226562 26.039062 -51.117188 27.90625 -51.796875 C 29.78125 -52.484375 31.816406 -52.828125 34.015625 -52.828125 Z M 34.015625 -52.828125 "/></g></g></g><g fill="#3bb77e" fill-opacity="1"><g transform="translate(223.866523, 575.705183)"><g><path d="M 27.8125 -52.828125 C 30.53125 -52.828125 33.019531 -52.40625 35.28125 -51.5625 C 37.539062 -50.71875 39.492188 -49.648438 41.140625 -48.359375 C 42.785156 -47.066406 44.078125 -45.757812 45.015625 -44.4375 C 45.953125 -43.113281 46.421875 -42 46.421875 -41.09375 L 43.90625 -39.828125 L 43.90625 -46.90625 C 43.90625 -48.59375 44.453125 -50 45.546875 -51.125 C 46.648438 -52.257812 48.039062 -52.828125 49.71875 -52.828125 C 51.394531 -52.828125 52.78125 -52.273438 53.875 -51.171875 C 54.976562 -50.078125 55.53125 -48.65625 55.53125 -46.90625 L 55.53125 -3.78125 C 55.53125 1.84375 54.316406 6.347656 51.890625 9.734375 C 49.472656 13.128906 46.289062 15.585938 42.34375 17.109375 C 38.40625 18.628906 34.175781 19.390625 29.65625 19.390625 C 28.363281 19.390625 26.679688 19.226562 24.609375 18.90625 C 22.546875 18.582031 20.578125 18.191406 18.703125 17.734375 C 16.828125 17.285156 15.40625 16.867188 14.4375 16.484375 C 12.5 15.640625 11.15625 14.585938 10.40625 13.328125 C 9.664062 12.066406 9.523438 10.722656 9.984375 9.296875 C 10.566406 7.429688 11.503906 6.15625 12.796875 5.46875 C 14.085938 4.789062 15.441406 4.710938 16.859375 5.234375 C 17.503906 5.429688 18.570312 5.816406 20.0625 6.390625 C 21.550781 6.972656 23.179688 7.503906 24.953125 7.984375 C 26.734375 8.472656 28.300781 8.71875 29.65625 8.71875 C 34.5 8.71875 38.082031 7.75 40.40625 5.8125 C 42.738281 3.875 43.90625 1.191406 43.90625 -2.234375 L 43.90625 -10.65625 L 45.0625 -9.796875 C 45.0625 -8.953125 44.625 -7.929688 43.75 -6.734375 C 42.882812 -5.535156 41.691406 -4.351562 40.171875 -3.1875 C 38.648438 -2.03125 36.851562 -1.046875 34.78125 -0.234375 C 32.71875 0.566406 30.523438 0.96875 28.203125 0.96875 C 23.617188 0.96875 19.484375 -0.175781 15.796875 -2.46875 C 12.117188 -4.757812 9.210938 -7.925781 7.078125 -11.96875 C 4.941406 -16.007812 3.875 -20.644531 3.875 -25.875 C 3.875 -31.175781 4.941406 -35.84375 7.078125 -39.875 C 9.210938 -43.914062 12.085938 -47.082031 15.703125 -49.375 C 19.316406 -51.675781 23.351562 -52.828125 27.8125 -52.828125 Z M 29.65625 -42.15625 C 26.75 -42.15625 24.195312 -41.441406 22 -40.015625 C 19.800781 -38.597656 18.085938 -36.660156 16.859375 -34.203125 C 15.628906 -31.753906 15.015625 -28.976562 15.015625 -25.875 C 15.015625 -22.84375 15.628906 -20.097656 16.859375 -17.640625 C 18.085938 -15.179688 19.800781 -13.238281 22 -11.8125 C 24.195312 -10.394531 26.75 -9.6875 29.65625 -9.6875 C 32.625 -9.6875 35.207031 -10.394531 37.40625 -11.8125 C 39.601562 -13.238281 41.316406 -15.179688 42.546875 -17.640625 C 43.773438 -20.097656 44.390625 -22.84375 44.390625 -25.875 C 44.390625 -28.976562 43.773438 -31.753906 42.546875 -34.203125 C 41.316406 -36.660156 39.601562 -38.597656 37.40625 -40.015625 C 35.207031 -41.441406 32.625 -42.15625 29.65625 -42.15625 Z M 29.65625 -42.15625 "/></g></g></g><g fill="#3bb77e" fill-opacity="1"><g transform="translate(285.698724, 575.705183)"><g/></g></g><g fill="#3bb77e" fill-opacity="1"><g transform="translate(312.835136, 575.705183)"><g><path d="M 3.296875 -8.046875 C 2.648438 -8.953125 2.359375 -10.113281 2.421875 -11.53125 C 2.484375 -12.957031 3.320312 -14.1875 4.9375 -15.21875 C 5.976562 -15.863281 7.078125 -16.132812 8.234375 -16.03125 C 9.398438 -15.9375 10.53125 -15.34375 11.625 -14.25 C 13.5 -12.375 15.46875 -10.914062 17.53125 -9.875 C 19.601562 -8.84375 22.191406 -8.328125 25.296875 -8.328125 C 26.265625 -8.398438 27.328125 -8.546875 28.484375 -8.765625 C 29.648438 -8.992188 30.671875 -9.507812 31.546875 -10.3125 C 32.421875 -11.125 32.859375 -12.367188 32.859375 -14.046875 C 32.859375 -15.472656 32.375 -16.601562 31.40625 -17.4375 C 30.4375 -18.28125 29.160156 -18.992188 27.578125 -19.578125 C 25.992188 -20.160156 24.234375 -20.707031 22.296875 -21.21875 C 20.285156 -21.800781 18.226562 -22.445312 16.125 -23.15625 C 14.03125 -23.875 12.109375 -24.796875 10.359375 -25.921875 C 8.617188 -27.054688 7.195312 -28.5625 6.09375 -30.4375 C 5 -32.3125 4.453125 -34.671875 4.453125 -37.515625 C 4.453125 -40.742188 5.359375 -43.488281 7.171875 -45.75 C 8.984375 -48.007812 11.328125 -49.753906 14.203125 -50.984375 C 17.078125 -52.210938 20.097656 -52.828125 23.265625 -52.828125 C 25.265625 -52.828125 27.363281 -52.582031 29.5625 -52.09375 C 31.757812 -51.613281 33.859375 -50.835938 35.859375 -49.765625 C 37.859375 -48.703125 39.539062 -47.296875 40.90625 -45.546875 C 41.613281 -44.578125 42.03125 -43.414062 42.15625 -42.0625 C 42.289062 -40.707031 41.675781 -39.476562 40.3125 -38.375 C 39.34375 -37.601562 38.210938 -37.265625 36.921875 -37.359375 C 35.628906 -37.460938 34.566406 -37.898438 33.734375 -38.671875 C 32.628906 -40.085938 31.15625 -41.21875 29.3125 -42.0625 C 27.476562 -42.90625 25.363281 -43.328125 22.96875 -43.328125 C 22 -43.328125 20.945312 -43.210938 19.8125 -42.984375 C 18.6875 -42.753906 17.703125 -42.269531 16.859375 -41.53125 C 16.023438 -40.789062 15.609375 -39.613281 15.609375 -38 C 15.609375 -36.507812 16.09375 -35.328125 17.0625 -34.453125 C 18.03125 -33.578125 19.335938 -32.863281 20.984375 -32.3125 C 22.628906 -31.769531 24.390625 -31.238281 26.265625 -30.71875 C 28.203125 -30.207031 30.171875 -29.59375 32.171875 -28.875 C 34.179688 -28.164062 36.023438 -27.226562 37.703125 -26.0625 C 39.378906 -24.90625 40.734375 -23.40625 41.765625 -21.5625 C 42.804688 -19.71875 43.328125 -17.375 43.328125 -14.53125 C 43.328125 -11.238281 42.359375 -8.425781 40.421875 -6.09375 C 38.484375 -3.769531 36.054688 -2.007812 33.140625 -0.8125 C 30.234375 0.375 27.265625 0.96875 24.234375 0.96875 C 20.421875 0.96875 16.609375 0.304688 12.796875 -1.015625 C 8.984375 -2.335938 5.816406 -4.679688 3.296875 -8.046875 Z M 3.296875 -8.046875 "/></g></g></g><g fill="#3bb77e" fill-opacity="1"><g transform="translate(359.548503, 575.705183)"><g><path d="M 48.75 -52.828125 C 50.425781 -52.828125 51.8125 -52.273438 52.90625 -51.171875 C 54.007812 -50.078125 54.5625 -48.65625 54.5625 -46.90625 L 54.5625 -5.90625 C 54.5625 -4.226562 54.007812 -2.820312 52.90625 -1.6875 C 51.8125 -0.5625 50.425781 0 48.75 0 C 47.070312 0 45.679688 -0.5625 44.578125 -1.6875 C 43.484375 -2.820312 42.9375 -4.226562 42.9375 -5.90625 L 42.9375 -10.65625 L 45.0625 -9.796875 C 45.0625 -8.953125 44.609375 -7.929688 43.703125 -6.734375 C 42.804688 -5.535156 41.582031 -4.351562 40.03125 -3.1875 C 38.476562 -2.03125 36.648438 -1.046875 34.546875 -0.234375 C 32.453125 0.566406 30.175781 0.96875 27.71875 0.96875 C 23.257812 0.96875 19.21875 -0.175781 15.59375 -2.46875 C 11.976562 -4.757812 9.117188 -7.925781 7.015625 -11.96875 C 4.921875 -16.007812 3.875 -20.644531 3.875 -25.875 C 3.875 -31.175781 4.921875 -35.84375 7.015625 -39.875 C 9.117188 -43.914062 11.945312 -47.082031 15.5 -49.375 C 19.0625 -51.675781 23.003906 -52.828125 27.328125 -52.828125 C 30.109375 -52.828125 32.660156 -52.40625 34.984375 -51.5625 C 37.316406 -50.71875 39.335938 -49.648438 41.046875 -48.359375 C 42.753906 -47.066406 44.078125 -45.757812 45.015625 -44.4375 C 45.953125 -43.113281 46.421875 -42 46.421875 -41.09375 L 42.9375 -39.828125 L 42.9375 -46.90625 C 42.9375 -48.59375 43.484375 -50 44.578125 -51.125 C 45.679688 -52.257812 47.070312 -52.828125 48.75 -52.828125 Z M 29.171875 -9.6875 C 32.015625 -9.6875 34.5 -10.394531 36.625 -11.8125 C 38.757812 -13.238281 40.425781 -15.179688 41.625 -17.640625 C 42.820312 -20.097656 43.421875 -22.84375 43.421875 -25.875 C 43.421875 -28.976562 42.820312 -31.753906 41.625 -34.203125 C 40.425781 -36.660156 38.757812 -38.597656 36.625 -40.015625 C 34.5 -41.441406 32.015625 -42.15625 29.171875 -42.15625 C 26.390625 -42.15625 23.929688 -41.441406 21.796875 -40.015625 C 19.671875 -38.597656 18.007812 -36.660156 16.8125 -34.203125 C 15.613281 -31.753906 15.015625 -28.976562 15.015625 -25.875 C 15.015625 -22.84375 15.613281 -20.097656 16.8125 -17.640625 C 18.007812 -15.179688 19.671875 -13.238281 21.796875 -11.8125 C 23.929688 -10.394531 26.390625 -9.6875 29.171875 -9.6875 Z M 20.359375 -72.015625 C 21.390625 -72.847656 22.484375 -73.523438 23.640625 -74.046875 C 24.804688 -74.566406 26.265625 -74.828125 28.015625 -74.828125 C 30.722656 -74.828125 32.800781 -74.375 34.25 -73.46875 C 35.707031 -72.5625 36.695312 -71.445312 37.21875 -70.125 C 37.738281 -68.800781 38 -67.554688 38 -66.390625 C 38 -65.359375 37.851562 -64.4375 37.5625 -63.625 C 37.269531 -62.820312 36.800781 -62 36.15625 -61.15625 C 35.507812 -60.382812 34.957031 -59.707031 34.5 -59.125 C 34.050781 -58.539062 33.828125 -57.988281 33.828125 -57.46875 C 33.828125 -56.695312 33.503906 -56.050781 32.859375 -55.53125 C 32.210938 -55.019531 31.4375 -54.765625 30.53125 -54.765625 C 29.6875 -54.765625 28.925781 -55.003906 28.25 -55.484375 C 27.570312 -55.972656 27.234375 -56.632812 27.234375 -57.46875 C 27.234375 -58.113281 27.378906 -58.742188 27.671875 -59.359375 C 27.960938 -59.972656 28.332031 -60.601562 28.78125 -61.25 C 29.300781 -61.96875 29.800781 -62.710938 30.28125 -63.484375 C 30.769531 -64.253906 31.015625 -64.898438 31.015625 -65.421875 C 31.015625 -66.265625 30.691406 -66.910156 30.046875 -67.359375 C 29.398438 -67.816406 28.625 -68.046875 27.71875 -68.046875 C 26.875 -68.046875 26.128906 -67.863281 25.484375 -67.5 C 24.835938 -67.144531 24.222656 -66.773438 23.640625 -66.390625 C 23.191406 -66.066406 22.628906 -65.890625 21.953125 -65.859375 C 21.273438 -65.828125 20.515625 -66.226562 19.671875 -67.0625 C 18.828125 -67.96875 18.566406 -68.890625 18.890625 -69.828125 C 19.222656 -70.765625 19.710938 -71.492188 20.359375 -72.015625 Z M 20.359375 -72.015625 "/></g></g></g><g fill="#3bb77e" fill-opacity="1"><g transform="translate(420.411552, 575.705183)"><g><path d="M 34.015625 -52.828125 C 38.796875 -52.828125 42.429688 -51.820312 44.921875 -49.8125 C 47.410156 -47.8125 49.125 -45.144531 50.0625 -41.8125 C 51 -38.488281 51.46875 -34.789062 51.46875 -30.71875 L 51.46875 -5.90625 C 51.46875 -4.226562 50.914062 -2.820312 49.8125 -1.6875 C 48.71875 -0.5625 47.332031 0 45.65625 0 C 43.96875 0 42.570312 -0.5625 41.46875 -1.6875 C 40.375 -2.820312 39.828125 -4.226562 39.828125 -5.90625 L 39.828125 -30.71875 C 39.828125 -32.851562 39.550781 -34.773438 39 -36.484375 C 38.457031 -38.203125 37.472656 -39.578125 36.046875 -40.609375 C 34.628906 -41.640625 32.597656 -42.15625 29.953125 -42.15625 C 27.367188 -42.15625 25.1875 -41.640625 23.40625 -40.609375 C 21.625 -39.578125 20.265625 -38.203125 19.328125 -36.484375 C 18.398438 -34.773438 17.9375 -32.851562 17.9375 -30.71875 L 17.9375 -5.90625 C 17.9375 -4.226562 17.382812 -2.820312 16.28125 -1.6875 C 15.1875 -0.5625 13.796875 0 12.109375 0 C 10.429688 0 9.039062 -0.5625 7.9375 -1.6875 C 6.84375 -2.820312 6.296875 -4.226562 6.296875 -5.90625 L 6.296875 -45.9375 C 6.296875 -47.625 6.84375 -49.03125 7.9375 -50.15625 C 9.039062 -51.289062 10.429688 -51.859375 12.109375 -51.859375 C 13.796875 -51.859375 15.1875 -51.289062 16.28125 -50.15625 C 17.382812 -49.03125 17.9375 -47.625 17.9375 -45.9375 L 17.9375 -41.765625 L 16.484375 -42.0625 C 17.054688 -43.164062 17.890625 -44.34375 18.984375 -45.59375 C 20.085938 -46.851562 21.382812 -48.03125 22.875 -49.125 C 24.363281 -50.226562 26.039062 -51.117188 27.90625 -51.796875 C 29.78125 -52.484375 31.816406 -52.828125 34.015625 -52.828125 Z M 34.015625 -52.828125 "/></g></g></g><g fill="#3bb77e" fill-opacity="1"><g transform="translate(478.173321, 575.705183)"><g/></g></g><g fill="#3bb77e" fill-opacity="1"><g transform="translate(505.309734, 575.705183)"><g><path d="M 3.296875 -8.046875 C 2.648438 -8.953125 2.359375 -10.113281 2.421875 -11.53125 C 2.484375 -12.957031 3.320312 -14.1875 4.9375 -15.21875 C 5.976562 -15.863281 7.078125 -16.132812 8.234375 -16.03125 C 9.398438 -15.9375 10.53125 -15.34375 11.625 -14.25 C 13.5 -12.375 15.46875 -10.914062 17.53125 -9.875 C 19.601562 -8.84375 22.191406 -8.328125 25.296875 -8.328125 C 26.265625 -8.398438 27.328125 -8.546875 28.484375 -8.765625 C 29.648438 -8.992188 30.671875 -9.507812 31.546875 -10.3125 C 32.421875 -11.125 32.859375 -12.367188 32.859375 -14.046875 C 32.859375 -15.472656 32.375 -16.601562 31.40625 -17.4375 C 30.4375 -18.28125 29.160156 -18.992188 27.578125 -19.578125 C 25.992188 -20.160156 24.234375 -20.707031 22.296875 -21.21875 C 20.285156 -21.800781 18.226562 -22.445312 16.125 -23.15625 C 14.03125 -23.875 12.109375 -24.796875 10.359375 -25.921875 C 8.617188 -27.054688 7.195312 -28.5625 6.09375 -30.4375 C 5 -32.3125 4.453125 -34.671875 4.453125 -37.515625 C 4.453125 -40.742188 5.359375 -43.488281 7.171875 -45.75 C 8.984375 -48.007812 11.328125 -49.753906 14.203125 -50.984375 C 17.078125 -52.210938 20.097656 -52.828125 23.265625 -52.828125 C 25.265625 -52.828125 27.363281 -52.582031 29.5625 -52.09375 C 31.757812 -51.613281 33.859375 -50.835938 35.859375 -49.765625 C 37.859375 -48.703125 39.539062 -47.296875 40.90625 -45.546875 C 41.613281 -44.578125 42.03125 -43.414062 42.15625 -42.0625 C 42.289062 -40.707031 41.675781 -39.476562 40.3125 -38.375 C 39.34375 -37.601562 38.210938 -37.265625 36.921875 -37.359375 C 35.628906 -37.460938 34.566406 -37.898438 33.734375 -38.671875 C 32.628906 -40.085938 31.15625 -41.21875 29.3125 -42.0625 C 27.476562 -42.90625 25.363281 -43.328125 22.96875 -43.328125 C 22 -43.328125 20.945312 -43.210938 19.8125 -42.984375 C 18.6875 -42.753906 17.703125 -42.269531 16.859375 -41.53125 C 16.023438 -40.789062 15.609375 -39.613281 15.609375 -38 C 15.609375 -36.507812 16.09375 -35.328125 17.0625 -34.453125 C 18.03125 -33.578125 19.335938 -32.863281 20.984375 -32.3125 C 22.628906 -31.769531 24.390625 -31.238281 26.265625 -30.71875 C 28.203125 -30.207031 30.171875 -29.59375 32.171875 -28.875 C 34.179688 -28.164062 36.023438 -27.226562 37.703125 -26.0625 C 39.378906 -24.90625 40.734375 -23.40625 41.765625 -21.5625 C 42.804688 -19.71875 43.328125 -17.375 43.328125 -14.53125 C 43.328125 -11.238281 42.359375 -8.425781 40.421875 -6.09375 C 38.484375 -3.769531 36.054688 -2.007812 33.140625 -0.8125 C 30.234375 0.375 27.265625 0.96875 24.234375 0.96875 C 20.421875 0.96875 16.609375 0.304688 12.796875 -1.015625 C 8.984375 -2.335938 5.816406 -4.679688 3.296875 -8.046875 Z M 3.296875 -8.046875 "/></g></g></g><g fill="#3bb77e" fill-opacity="1"><g transform="translate(552.023101, 575.705183)"><g><path d="M 48.75 -52.828125 C 50.425781 -52.828125 51.8125 -52.273438 52.90625 -51.171875 C 54.007812 -50.078125 54.5625 -48.65625 54.5625 -46.90625 L 54.5625 -5.90625 C 54.5625 -4.226562 54.007812 -2.820312 52.90625 -1.6875 C 51.8125 -0.5625 50.425781 0 48.75 0 C 47.070312 0 45.679688 -0.5625 44.578125 -1.6875 C 43.484375 -2.820312 42.9375 -4.226562 42.9375 -5.90625 L 42.9375 -10.65625 L 45.0625 -9.796875 C 45.0625 -8.953125 44.609375 -7.929688 43.703125 -6.734375 C 42.804688 -5.535156 41.582031 -4.351562 40.03125 -3.1875 C 38.476562 -2.03125 36.648438 -1.046875 34.546875 -0.234375 C 32.453125 0.566406 30.175781 0.96875 27.71875 0.96875 C 23.257812 0.96875 19.21875 -0.175781 15.59375 -2.46875 C 11.976562 -4.757812 9.117188 -7.925781 7.015625 -11.96875 C 4.921875 -16.007812 3.875 -20.644531 3.875 -25.875 C 3.875 -31.175781 4.921875 -35.84375 7.015625 -39.875 C 9.117188 -43.914062 11.945312 -47.082031 15.5 -49.375 C 19.0625 -51.675781 23.003906 -52.828125 27.328125 -52.828125 C 30.109375 -52.828125 32.660156 -52.40625 34.984375 -51.5625 C 37.316406 -50.71875 39.335938 -49.648438 41.046875 -48.359375 C 42.753906 -47.066406 44.078125 -45.757812 45.015625 -44.4375 C 45.953125 -43.113281 46.421875 -42 46.421875 -41.09375 L 42.9375 -39.828125 L 42.9375 -46.90625 C 42.9375 -48.59375 43.484375 -50 44.578125 -51.125 C 45.679688 -52.257812 47.070312 -52.828125 48.75 -52.828125 Z M 29.171875 -9.6875 C 32.015625 -9.6875 34.5 -10.394531 36.625 -11.8125 C 38.757812 -13.238281 40.425781 -15.179688 41.625 -17.640625 C 42.820312 -20.097656 43.421875 -22.84375 43.421875 -25.875 C 43.421875 -28.976562 42.820312 -31.753906 41.625 -34.203125 C 40.425781 -36.660156 38.757812 -38.597656 36.625 -40.015625 C 34.5 -41.441406 32.015625 -42.15625 29.171875 -42.15625 C 26.390625 -42.15625 23.929688 -41.441406 21.796875 -40.015625 C 19.671875 -38.597656 18.007812 -36.660156 16.8125 -34.203125 C 15.613281 -31.753906 15.015625 -28.976562 15.015625 -25.875 C 15.015625 -22.84375 15.613281 -20.097656 16.8125 -17.640625 C 18.007812 -15.179688 19.671875 -13.238281 21.796875 -11.8125 C 23.929688 -10.394531 26.390625 -9.6875 29.171875 -9.6875 Z M 30.53125 15.5 C 28.394531 15.5 26.875 15.144531 25.96875 14.4375 C 25.0625 13.726562 24.609375 12.46875 24.609375 10.65625 L 24.609375 8.8125 C 24.609375 6.945312 25.109375 5.671875 26.109375 4.984375 C 27.109375 4.304688 28.582031 3.96875 30.53125 3.96875 C 32.914062 3.96875 34.5625 4.304688 35.46875 4.984375 C 36.375 5.671875 36.828125 6.945312 36.828125 8.8125 L 36.828125 10.65625 C 36.828125 12.53125 36.34375 13.804688 35.375 14.484375 C 34.40625 15.160156 32.789062 15.5 30.53125 15.5 Z M 30.53125 15.5 "/></g></g></g><g fill="#3bb77e" fill-opacity="1"><g transform="translate(612.886149, 575.705183)"><g><path d="M 29.375 -52.828125 C 33.050781 -52.828125 36.257812 -52.4375 39 -51.65625 C 41.75 -50.882812 43.882812 -49.800781 45.40625 -48.40625 C 46.925781 -47.019531 47.6875 -45.359375 47.6875 -43.421875 C 47.6875 -42.128906 47.296875 -40.914062 46.515625 -39.78125 C 45.742188 -38.65625 44.613281 -38.09375 43.125 -38.09375 C 42.09375 -38.09375 41.238281 -38.238281 40.5625 -38.53125 C 39.882812 -38.820312 39.285156 -39.191406 38.765625 -39.640625 C 38.253906 -40.085938 37.640625 -40.507812 36.921875 -40.90625 C 36.273438 -41.289062 35.289062 -41.59375 33.96875 -41.8125 C 32.644531 -42.039062 31.660156 -42.15625 31.015625 -42.15625 C 27.722656 -42.15625 24.925781 -41.441406 22.625 -40.015625 C 20.332031 -38.597656 18.570312 -36.675781 17.34375 -34.25 C 16.113281 -31.832031 15.5 -29.039062 15.5 -25.875 C 15.5 -22.769531 16.128906 -20.003906 17.390625 -17.578125 C 18.648438 -15.160156 20.394531 -13.238281 22.625 -11.8125 C 24.851562 -10.394531 27.425781 -9.6875 30.34375 -9.6875 C 31.957031 -9.6875 33.34375 -9.785156 34.5 -9.984375 C 35.664062 -10.179688 36.632812 -10.472656 37.40625 -10.859375 C 38.3125 -11.367188 39.117188 -11.914062 39.828125 -12.5 C 40.546875 -13.082031 41.613281 -13.375 43.03125 -13.375 C 44.707031 -13.375 46 -12.835938 46.90625 -11.765625 C 47.8125 -10.703125 48.265625 -9.394531 48.265625 -7.84375 C 48.265625 -6.226562 47.359375 -4.757812 45.546875 -3.4375 C 43.742188 -2.113281 41.367188 -1.046875 38.421875 -0.234375 C 35.484375 0.566406 32.300781 0.96875 28.875 0.96875 C 23.769531 0.96875 19.34375 -0.207031 15.59375 -2.5625 C 11.851562 -4.925781 8.960938 -8.140625 6.921875 -12.203125 C 4.890625 -16.273438 3.875 -20.832031 3.875 -25.875 C 3.875 -31.175781 4.957031 -35.84375 7.125 -39.875 C 9.289062 -43.914062 12.296875 -47.082031 16.140625 -49.375 C 19.984375 -51.675781 24.394531 -52.828125 29.375 -52.828125 Z M 29.375 -52.828125 "/></g></g></g><g fill="#3bb77e" fill-opacity="1"><g transform="translate(663.282317, 575.705183)"><g><path d="M 33.53125 -52.828125 C 38.1875 -52.828125 41.722656 -51.820312 44.140625 -49.8125 C 46.566406 -47.8125 48.234375 -45.144531 49.140625 -41.8125 C 50.046875 -38.488281 50.5 -34.789062 50.5 -30.71875 L 50.5 -5.90625 C 50.5 -4.226562 49.945312 -2.820312 48.84375 -1.6875 C 47.75 -0.5625 46.363281 0 44.6875 0 C 43 0 41.601562 -0.5625 40.5 -1.6875 C 39.40625 -2.820312 38.859375 -4.226562 38.859375 -5.90625 L 38.859375 -30.71875 C 38.859375 -32.851562 38.597656 -34.773438 38.078125 -36.484375 C 37.566406 -38.203125 36.632812 -39.578125 35.28125 -40.609375 C 33.925781 -41.640625 31.988281 -42.15625 29.46875 -42.15625 C 27.007812 -42.15625 24.90625 -41.640625 23.15625 -40.609375 C 21.414062 -39.578125 20.109375 -38.203125 19.234375 -36.484375 C 18.367188 -34.773438 17.9375 -32.851562 17.9375 -30.71875 L 17.9375 -5.90625 C 17.9375 -4.226562 17.382812 -2.820312 16.28125 -1.6875 C 15.1875 -0.5625 13.796875 0 12.109375 0 C 10.429688 0 9.039062 -0.5625 7.9375 -1.6875 C 6.84375 -2.820312 6.296875 -4.226562 6.296875 -5.90625 L 6.296875 -65.8125 C 6.296875 -67.488281 6.84375 -68.890625 7.9375 -70.015625 C 9.039062 -71.148438 10.429688 -71.71875 12.109375 -71.71875 C 13.796875 -71.71875 15.1875 -71.148438 16.28125 -70.015625 C 17.382812 -68.890625 17.9375 -67.488281 17.9375 -65.8125 L 17.9375 -41.765625 L 16.484375 -42.0625 C 17.054688 -43.164062 17.859375 -44.34375 18.890625 -45.59375 C 19.929688 -46.851562 21.191406 -48.03125 22.671875 -49.125 C 24.160156 -50.226562 25.8125 -51.117188 27.625 -51.796875 C 29.4375 -52.484375 31.40625 -52.828125 33.53125 -52.828125 Z M 33.53125 -52.828125 "/></g></g></g><g fill="#3bb77e" fill-opacity="1"><g transform="translate(720.074899, 575.705183)"><g/></g></g><g fill="#3bb77e" fill-opacity="1"><g transform="translate(747.211312, 575.705183)"><g><path d="M 10.765625 -23.9375 C 9.078125 -23.9375 7.664062 -24.484375 6.53125 -25.578125 C 5.40625 -26.679688 4.84375 -28.070312 4.84375 -29.75 C 4.84375 -31.4375 5.40625 -32.8125 6.53125 -33.875 C 7.664062 -34.9375 9.078125 -35.46875 10.765625 -35.46875 L 27.625 -35.46875 C 29.300781 -35.46875 30.703125 -34.898438 31.828125 -33.765625 C 32.960938 -32.640625 33.53125 -31.238281 33.53125 -29.5625 C 33.53125 -27.945312 32.960938 -26.601562 31.828125 -25.53125 C 30.703125 -24.46875 29.300781 -23.9375 27.625 -23.9375 Z M 10.765625 -23.9375 "/></g></g></g><g fill="#3bb77e" fill-opacity="1"><g transform="translate(785.589936, 575.705183)"><g/></g></g><g fill="#3bb77e" fill-opacity="1"><g transform="translate(812.726349, 575.705183)"><g><path d="M 29.078125 0.96875 C 24.554688 0.96875 20.484375 0.40625 16.859375 -0.71875 C 13.242188 -1.851562 9.789062 -3.84375 6.5 -6.6875 C 5.65625 -7.394531 5.003906 -8.203125 4.546875 -9.109375 C 4.097656 -10.015625 3.875 -10.921875 3.875 -11.828125 C 3.875 -13.304688 4.40625 -14.613281 5.46875 -15.75 C 6.539062 -16.882812 7.882812 -17.453125 9.5 -17.453125 C 10.726562 -17.453125 11.828125 -17.0625 12.796875 -16.28125 C 15.253906 -14.28125 17.691406 -12.757812 20.109375 -11.71875 C 22.535156 -10.6875 25.523438 -10.171875 29.078125 -10.171875 C 31.460938 -10.171875 33.65625 -10.539062 35.65625 -11.28125 C 37.664062 -12.03125 39.285156 -13.035156 40.515625 -14.296875 C 41.742188 -15.554688 42.359375 -16.992188 42.359375 -18.609375 C 42.359375 -20.546875 41.773438 -22.191406 40.609375 -23.546875 C 39.441406 -24.910156 37.660156 -26.054688 35.265625 -26.984375 C 32.878906 -27.921875 29.847656 -28.648438 26.171875 -29.171875 C 22.679688 -29.691406 19.609375 -30.484375 16.953125 -31.546875 C 14.304688 -32.609375 12.09375 -33.960938 10.3125 -35.609375 C 8.539062 -37.265625 7.203125 -39.207031 6.296875 -41.4375 C 5.390625 -43.664062 4.9375 -46.171875 4.9375 -48.953125 C 4.9375 -53.148438 6.019531 -56.734375 8.1875 -59.703125 C 10.351562 -62.671875 13.273438 -64.929688 16.953125 -66.484375 C 20.640625 -68.035156 24.710938 -68.8125 29.171875 -68.8125 C 33.367188 -68.8125 37.257812 -68.179688 40.84375 -66.921875 C 44.4375 -65.660156 47.363281 -64.0625 49.625 -62.125 C 51.5 -60.632812 52.4375 -58.921875 52.4375 -56.984375 C 52.4375 -55.566406 51.882812 -54.273438 50.78125 -53.109375 C 49.6875 -51.953125 48.394531 -51.375 46.90625 -51.375 C 45.9375 -51.375 45.066406 -51.660156 44.296875 -52.234375 C 43.265625 -53.140625 41.875 -53.992188 40.125 -54.796875 C 38.382812 -55.609375 36.539062 -56.289062 34.59375 -56.84375 C 32.65625 -57.394531 30.847656 -57.671875 29.171875 -57.671875 C 26.390625 -57.671875 24.046875 -57.3125 22.140625 -56.59375 C 20.234375 -55.882812 18.796875 -54.914062 17.828125 -53.6875 C 16.859375 -52.46875 16.375 -51.050781 16.375 -49.4375 C 16.375 -47.488281 16.9375 -45.882812 18.0625 -44.625 C 19.195312 -43.375 20.832031 -42.375 22.96875 -41.625 C 25.101562 -40.882812 27.65625 -40.222656 30.625 -39.640625 C 34.5 -38.929688 37.90625 -38.09375 40.84375 -37.125 C 43.789062 -36.15625 46.234375 -34.910156 48.171875 -33.390625 C 50.109375 -31.867188 51.5625 -29.960938 52.53125 -27.671875 C 53.5 -25.378906 53.984375 -22.582031 53.984375 -19.28125 C 53.984375 -15.082031 52.816406 -11.460938 50.484375 -8.421875 C 48.160156 -5.390625 45.109375 -3.066406 41.328125 -1.453125 C 37.554688 0.160156 33.472656 0.96875 29.078125 0.96875 Z M 29.078125 0.96875 "/></g></g></g><g fill="#3bb77e" fill-opacity="1"><g transform="translate(870.585047, 575.705183)"><g><path d="M 44.78125 -51.859375 C 46.457031 -51.859375 47.84375 -51.289062 48.9375 -50.15625 C 50.039062 -49.03125 50.59375 -47.625 50.59375 -45.9375 L 50.59375 -21.328125 C 50.59375 -14.472656 48.6875 -9.039062 44.875 -5.03125 C 41.0625 -1.03125 35.566406 0.96875 28.390625 0.96875 C 21.222656 0.96875 15.75 -1.03125 11.96875 -5.03125 C 8.1875 -9.039062 6.296875 -14.472656 6.296875 -21.328125 L 6.296875 -45.9375 C 6.296875 -47.625 6.84375 -49.03125 7.9375 -50.15625 C 9.039062 -51.289062 10.429688 -51.859375 12.109375 -51.859375 C 13.796875 -51.859375 15.1875 -51.289062 16.28125 -50.15625 C 17.382812 -49.03125 17.9375 -47.625 17.9375 -45.9375 L 17.9375 -21.328125 C 17.9375 -17.378906 18.804688 -14.453125 20.546875 -12.546875 C 22.296875 -10.640625 24.910156 -9.6875 28.390625 -9.6875 C 31.953125 -9.6875 34.601562 -10.640625 36.34375 -12.546875 C 38.09375 -14.453125 38.96875 -17.378906 38.96875 -21.328125 L 38.96875 -45.9375 C 38.96875 -47.625 39.515625 -49.03125 40.609375 -50.15625 C 41.710938 -51.289062 43.101562 -51.859375 44.78125 -51.859375 Z M 43.609375 -42.0625 L 43.609375 -51.75 C 46.128906 -51.75 48.128906 -52.234375 49.609375 -53.203125 C 51.097656 -54.171875 51.84375 -55.6875 51.84375 -57.75 C 51.84375 -58.914062 52.265625 -60.0625 53.109375 -61.1875 C 53.953125 -62.320312 55.179688 -62.890625 56.796875 -62.890625 C 58.597656 -62.890625 59.835938 -62.289062 60.515625 -61.09375 C 61.203125 -59.90625 61.546875 -58.789062 61.546875 -57.75 C 61.546875 -54.976562 60.929688 -52.394531 59.703125 -50 C 58.472656 -47.613281 56.546875 -45.691406 53.921875 -44.234375 C 51.304688 -42.785156 47.867188 -42.0625 43.609375 -42.0625 Z M 29.5625 -55.15625 C 29.050781 -55.15625 28.390625 -55.425781 27.578125 -55.96875 C 26.773438 -56.519531 26.40625 -57.3125 26.46875 -58.34375 C 26.46875 -58.925781 26.660156 -59.539062 27.046875 -60.1875 L 32.671875 -70.078125 C 33.253906 -71.109375 33.992188 -72.007812 34.890625 -72.78125 C 35.796875 -73.5625 36.832031 -73.953125 38 -73.953125 C 39.8125 -73.953125 41.132812 -73.484375 41.96875 -72.546875 C 42.8125 -71.609375 43.203125 -70.460938 43.140625 -69.109375 C 43.066406 -68.460938 42.882812 -67.78125 42.59375 -67.0625 C 42.3125 -66.351562 41.878906 -65.644531 41.296875 -64.9375 L 33.921875 -56.796875 C 33.273438 -56.085938 32.5625 -55.632812 31.78125 -55.4375 C 31.007812 -55.25 30.269531 -55.15625 29.5625 -55.15625 Z M 29.5625 -55.15625 "/></g></g></g><g fill="#3bb77e" fill-opacity="1"><g transform="translate(927.47451, 575.705183)"><g><path d="M 29.375 -52.828125 C 33.050781 -52.828125 36.257812 -52.4375 39 -51.65625 C 41.75 -50.882812 43.882812 -49.800781 45.40625 -48.40625 C 46.925781 -47.019531 47.6875 -45.359375 47.6875 -43.421875 C 47.6875 -42.128906 47.296875 -40.914062 46.515625 -39.78125 C 45.742188 -38.65625 44.613281 -38.09375 43.125 -38.09375 C 42.09375 -38.09375 41.238281 -38.238281 40.5625 -38.53125 C 39.882812 -38.820312 39.285156 -39.191406 38.765625 -39.640625 C 38.253906 -40.085938 37.640625 -40.507812 36.921875 -40.90625 C 36.273438 -41.289062 35.289062 -41.59375 33.96875 -41.8125 C 32.644531 -42.039062 31.660156 -42.15625 31.015625 -42.15625 C 27.722656 -42.15625 24.925781 -41.441406 22.625 -40.015625 C 20.332031 -38.597656 18.570312 -36.675781 17.34375 -34.25 C 16.113281 -31.832031 15.5 -29.039062 15.5 -25.875 C 15.5 -22.769531 16.128906 -20.003906 17.390625 -17.578125 C 18.648438 -15.160156 20.394531 -13.238281 22.625 -11.8125 C 24.851562 -10.394531 27.425781 -9.6875 30.34375 -9.6875 C 31.957031 -9.6875 33.34375 -9.785156 34.5 -9.984375 C 35.664062 -10.179688 36.632812 -10.472656 37.40625 -10.859375 C 38.3125 -11.367188 39.117188 -11.914062 39.828125 -12.5 C 40.546875 -13.082031 41.613281 -13.375 43.03125 -13.375 C 44.707031 -13.375 46 -12.835938 46.90625 -11.765625 C 47.8125 -10.703125 48.265625 -9.394531 48.265625 -7.84375 C 48.265625 -6.226562 47.359375 -4.757812 45.546875 -3.4375 C 43.742188 -2.113281 41.367188 -1.046875 38.421875 -0.234375 C 35.484375 0.566406 32.300781 0.96875 28.875 0.96875 C 23.769531 0.96875 19.34375 -0.207031 15.59375 -2.5625 C 11.851562 -4.925781 8.960938 -8.140625 6.921875 -12.203125 C 4.890625 -16.273438 3.875 -20.832031 3.875 -25.875 C 3.875 -31.175781 4.957031 -35.84375 7.125 -39.875 C 9.289062 -43.914062 12.296875 -47.082031 16.140625 -49.375 C 19.984375 -51.675781 24.394531 -52.828125 29.375 -52.828125 Z M 29.375 -52.828125 "/></g></g></g><g fill="#3bb77e" fill-opacity="1"><g transform="translate(977.870678, 575.705183)"><g/></g></g><g fill="#3bb77e" fill-opacity="1"><g transform="translate(1005.007091, 575.705183)"><g><path d="M 13.078125 0 C 11.398438 0 10.007812 -0.5625 8.90625 -1.6875 C 7.8125 -2.820312 7.265625 -4.226562 7.265625 -5.90625 L 7.265625 -65.8125 C 7.265625 -67.488281 7.8125 -68.890625 8.90625 -70.015625 C 10.007812 -71.148438 11.398438 -71.71875 13.078125 -71.71875 C 14.765625 -71.71875 16.15625 -71.148438 17.25 -70.015625 C 18.351562 -68.890625 18.90625 -67.488281 18.90625 -65.8125 L 18.90625 -5.90625 C 18.90625 -4.226562 18.351562 -2.820312 17.25 -1.6875 C 16.15625 -0.5625 14.765625 0 13.078125 0 Z M 43.90625 -51.859375 C 45.394531 -51.859375 46.6875 -51.242188 47.78125 -50.015625 C 48.882812 -48.785156 49.4375 -47.585938 49.4375 -46.421875 C 49.4375 -44.867188 48.660156 -43.414062 47.109375 -42.0625 L 17.9375 -15.21875 L 17.453125 -28.59375 L 39.640625 -50.015625 C 40.867188 -51.242188 42.289062 -51.859375 43.90625 -51.859375 Z M 45.359375 -0.09375 C 43.679688 -0.09375 42.257812 -0.738281 41.09375 -2.03125 L 23.171875 -21.03125 L 31.984375 -29.171875 L 49.4375 -10.171875 C 50.65625 -8.878906 51.265625 -7.425781 51.265625 -5.8125 C 51.265625 -4.132812 50.601562 -2.757812 49.28125 -1.6875 C 47.957031 -0.625 46.648438 -0.09375 45.359375 -0.09375 Z M 45.359375 -0.09375 "/></g></g></g><g fill="#3bb77e" fill-opacity="1"><g transform="translate(1060.152129, 575.705183)"><g><path d="M 33.53125 -52.828125 C 38.1875 -52.828125 41.722656 -51.820312 44.140625 -49.8125 C 46.566406 -47.8125 48.234375 -45.144531 49.140625 -41.8125 C 50.046875 -38.488281 50.5 -34.789062 50.5 -30.71875 L 50.5 -5.90625 C 50.5 -4.226562 49.945312 -2.820312 48.84375 -1.6875 C 47.75 -0.5625 46.363281 0 44.6875 0 C 43 0 41.601562 -0.5625 40.5 -1.6875 C 39.40625 -2.820312 38.859375 -4.226562 38.859375 -5.90625 L 38.859375 -30.71875 C 38.859375 -32.851562 38.597656 -34.773438 38.078125 -36.484375 C 37.566406 -38.203125 36.632812 -39.578125 35.28125 -40.609375 C 33.925781 -41.640625 31.988281 -42.15625 29.46875 -42.15625 C 27.007812 -42.15625 24.90625 -41.640625 23.15625 -40.609375 C 21.414062 -39.578125 20.109375 -38.203125 19.234375 -36.484375 C 18.367188 -34.773438 17.9375 -32.851562 17.9375 -30.71875 L 17.9375 -5.90625 C 17.9375 -4.226562 17.382812 -2.820312 16.28125 -1.6875 C 15.1875 -0.5625 13.796875 0 12.109375 0 C 10.429688 0 9.039062 -0.5625 7.9375 -1.6875 C 6.84375 -2.820312 6.296875 -4.226562 6.296875 -5.90625 L 6.296875 -65.8125 C 6.296875 -67.488281 6.84375 -68.890625 7.9375 -70.015625 C 9.039062 -71.148438 10.429688 -71.71875 12.109375 -71.71875 C 13.796875 -71.71875 15.1875 -71.148438 16.28125 -70.015625 C 17.382812 -68.890625 17.9375 -67.488281 17.9375 -65.8125 L 17.9375 -41.765625 L 16.484375 -42.0625 C 17.054688 -43.164062 17.859375 -44.34375 18.890625 -45.59375 C 19.929688 -46.851562 21.191406 -48.03125 22.671875 -49.125 C 24.160156 -50.226562 25.8125 -51.117188 27.625 -51.796875 C 29.4375 -52.484375 31.40625 -52.828125 33.53125 -52.828125 Z M 33.53125 -52.828125 "/></g></g></g><g fill="#3bb77e" fill-opacity="1"><g transform="translate(1116.94471, 575.705183)"><g><path d="M 56.609375 -25.875 C 56.609375 -20.582031 55.425781 -15.914062 53.0625 -11.875 C 50.707031 -7.832031 47.539062 -4.679688 43.5625 -2.421875 C 39.59375 -0.160156 35.148438 0.96875 30.234375 0.96875 C 25.328125 0.96875 20.882812 -0.160156 16.90625 -2.421875 C 12.9375 -4.679688 9.769531 -7.832031 7.40625 -11.875 C 5.050781 -15.914062 3.875 -20.582031 3.875 -25.875 C 3.875 -31.175781 5.050781 -35.84375 7.40625 -39.875 C 9.769531 -43.914062 12.9375 -47.082031 16.90625 -49.375 C 20.882812 -51.675781 25.328125 -52.828125 30.234375 -52.828125 C 35.148438 -52.828125 39.59375 -51.675781 43.5625 -49.375 C 47.539062 -47.082031 50.707031 -43.914062 53.0625 -39.875 C 55.425781 -35.84375 56.609375 -31.175781 56.609375 -25.875 Z M 44.96875 -25.875 C 44.96875 -29.175781 44.304688 -32.035156 42.984375 -34.453125 C 41.660156 -36.878906 39.882812 -38.769531 37.65625 -40.125 C 35.425781 -41.476562 32.953125 -42.15625 30.234375 -42.15625 C 27.523438 -42.15625 25.054688 -41.476562 22.828125 -40.125 C 20.597656 -38.769531 18.816406 -36.878906 17.484375 -34.453125 C 16.160156 -32.035156 15.5 -29.175781 15.5 -25.875 C 15.5 -22.644531 16.160156 -19.816406 17.484375 -17.390625 C 18.816406 -14.972656 20.597656 -13.082031 22.828125 -11.71875 C 25.054688 -10.363281 27.523438 -9.6875 30.234375 -9.6875 C 32.953125 -9.6875 35.425781 -10.363281 37.65625 -11.71875 C 39.882812 -13.082031 41.660156 -14.972656 42.984375 -17.390625 C 44.304688 -19.816406 44.96875 -22.644531 44.96875 -25.875 Z M 20.84375 -72.015625 C 21.875 -72.847656 22.96875 -73.523438 24.125 -74.046875 C 25.289062 -74.566406 26.75 -74.828125 28.5 -74.828125 C 31.207031 -74.828125 33.285156 -74.375 34.734375 -73.46875 C 36.191406 -72.5625 37.179688 -71.445312 37.703125 -70.125 C 38.222656 -68.800781 38.484375 -67.554688 38.484375 -66.390625 C 38.484375 -65.359375 38.335938 -64.4375 38.046875 -63.625 C 37.753906 -62.820312 37.285156 -62 36.640625 -61.15625 C 35.992188 -60.382812 35.441406 -59.707031 34.984375 -59.125 C 34.535156 -58.539062 34.3125 -57.988281 34.3125 -57.46875 C 34.3125 -56.695312 33.988281 -56.050781 33.34375 -55.53125 C 32.695312 -55.019531 31.921875 -54.765625 31.015625 -54.765625 C 30.171875 -54.765625 29.410156 -55.003906 28.734375 -55.484375 C 28.054688 -55.972656 27.71875 -56.632812 27.71875 -57.46875 C 27.71875 -58.113281 27.863281 -58.742188 28.15625 -59.359375 C 28.445312 -59.972656 28.816406 -60.601562 29.265625 -61.25 C 29.785156 -61.96875 30.285156 -62.710938 30.765625 -63.484375 C 31.253906 -64.253906 31.5 -64.898438 31.5 -65.421875 C 31.5 -66.265625 31.175781 -66.910156 30.53125 -67.359375 C 29.882812 -67.816406 29.109375 -68.046875 28.203125 -68.046875 C 27.359375 -68.046875 26.613281 -67.863281 25.96875 -67.5 C 25.320312 -67.144531 24.707031 -66.773438 24.125 -66.390625 C 23.675781 -66.066406 23.113281 -65.890625 22.4375 -65.859375 C 21.757812 -65.828125 21 -66.226562 20.15625 -67.0625 C 19.3125 -67.96875 19.050781 -68.890625 19.375 -69.828125 C 19.707031 -70.765625 20.195312 -71.492188 20.84375 -72.015625 Z M 20.84375 -72.015625 "/></g></g></g><g fill="#3bb77e" fill-opacity="1"><g transform="translate(1177.420093, 575.705183)"><g><path d="M 30.71875 0.96875 C 25.226562 0.96875 20.460938 -0.175781 16.421875 -2.46875 C 12.390625 -4.757812 9.289062 -7.875 7.125 -11.8125 C 4.957031 -15.757812 3.875 -20.222656 3.875 -25.203125 C 3.875 -31.015625 5.050781 -35.972656 7.40625 -40.078125 C 9.769531 -44.179688 12.859375 -47.332031 16.671875 -49.53125 C 20.484375 -51.726562 24.519531 -52.828125 28.78125 -52.828125 C 32.082031 -52.828125 35.203125 -52.144531 38.140625 -50.78125 C 41.078125 -49.425781 43.675781 -47.566406 45.9375 -45.203125 C 48.195312 -42.847656 49.988281 -40.117188 51.3125 -37.015625 C 52.644531 -33.921875 53.3125 -30.628906 53.3125 -27.140625 C 53.238281 -25.585938 52.617188 -24.328125 51.453125 -23.359375 C 50.296875 -22.390625 48.941406 -21.90625 47.390625 -21.90625 L 10.375 -21.90625 L 7.46875 -31.59375 L 43.03125 -31.59375 L 40.90625 -29.65625 L 40.90625 -32.28125 C 40.769531 -34.144531 40.101562 -35.820312 38.90625 -37.3125 C 37.71875 -38.800781 36.234375 -39.976562 34.453125 -40.84375 C 32.679688 -41.71875 30.789062 -42.15625 28.78125 -42.15625 C 26.84375 -42.15625 25.035156 -41.894531 23.359375 -41.375 C 21.679688 -40.863281 20.226562 -39.992188 19 -38.765625 C 17.769531 -37.535156 16.796875 -35.882812 16.078125 -33.8125 C 15.367188 -31.75 15.015625 -29.132812 15.015625 -25.96875 C 15.015625 -22.476562 15.742188 -19.519531 17.203125 -17.09375 C 18.660156 -14.675781 20.535156 -12.835938 22.828125 -11.578125 C 25.117188 -10.316406 27.554688 -9.6875 30.140625 -9.6875 C 32.535156 -9.6875 34.441406 -9.878906 35.859375 -10.265625 C 37.285156 -10.660156 38.429688 -11.128906 39.296875 -11.671875 C 40.171875 -12.222656 40.960938 -12.691406 41.671875 -13.078125 C 42.835938 -13.660156 43.9375 -13.953125 44.96875 -13.953125 C 46.394531 -13.953125 47.578125 -13.46875 48.515625 -12.5 C 49.453125 -11.53125 49.921875 -10.398438 49.921875 -9.109375 C 49.921875 -7.367188 49.015625 -5.785156 47.203125 -4.359375 C 45.523438 -2.941406 43.164062 -1.695312 40.125 -0.625 C 37.09375 0.4375 33.957031 0.96875 30.71875 0.96875 Z M 30.71875 0.96875 "/></g></g></g><g fill="#3bb77e" fill-opacity="1"><g transform="translate(1234.600388, 575.705183)"><g/></g></g><g fill="#3bb77e" fill-opacity="1"><g transform="translate(1261.7368, 575.705183)"><g><path d="M 6.875 -50.890625 L 29.859375 -50.890625 C 31.398438 -50.890625 32.6875 -50.367188 33.71875 -49.328125 C 34.757812 -48.296875 35.28125 -47.003906 35.28125 -45.453125 C 35.28125 -43.972656 34.757812 -42.726562 33.71875 -41.71875 C 32.6875 -40.71875 31.398438 -40.21875 29.859375 -40.21875 L 6.875 -40.21875 C 5.332031 -40.21875 4.039062 -40.734375 3 -41.765625 C 1.96875 -42.804688 1.453125 -44.101562 1.453125 -45.65625 C 1.453125 -47.132812 1.96875 -48.375 3 -49.375 C 4.039062 -50.382812 5.332031 -50.890625 6.875 -50.890625 Z M 17.25 -63 C 18.925781 -63 20.296875 -62.429688 21.359375 -61.296875 C 22.429688 -60.171875 22.96875 -58.769531 22.96875 -57.09375 L 22.96875 -13.953125 C 22.96875 -13.046875 23.144531 -12.300781 23.5 -11.71875 C 23.851562 -11.144531 24.335938 -10.726562 24.953125 -10.46875 C 25.566406 -10.207031 26.226562 -10.078125 26.9375 -10.078125 C 27.71875 -10.078125 28.429688 -10.222656 29.078125 -10.515625 C 29.722656 -10.804688 30.46875 -10.953125 31.3125 -10.953125 C 32.207031 -10.953125 33.023438 -10.53125 33.765625 -9.6875 C 34.515625 -8.851562 34.890625 -7.691406 34.890625 -6.203125 C 34.890625 -4.390625 33.90625 -2.898438 31.9375 -1.734375 C 29.96875 -0.578125 27.851562 0 25.59375 0 C 24.226562 0 22.722656 -0.109375 21.078125 -0.328125 C 19.429688 -0.554688 17.878906 -1.109375 16.421875 -1.984375 C 14.972656 -2.859375 13.765625 -4.195312 12.796875 -6 C 11.828125 -7.8125 11.34375 -10.300781 11.34375 -13.46875 L 11.34375 -57.09375 C 11.34375 -58.769531 11.90625 -60.171875 13.03125 -61.296875 C 14.164062 -62.429688 15.570312 -63 17.25 -63 Z M 17.25 -63 "/></g></g></g><g fill="#3bb77e" fill-opacity="1"><g transform="translate(1301.375303, 575.705183)"><g><path d="M 56.609375 -25.875 C 56.609375 -20.582031 55.425781 -15.914062 53.0625 -11.875 C 50.707031 -7.832031 47.539062 -4.679688 43.5625 -2.421875 C 39.59375 -0.160156 35.148438 0.96875 30.234375 0.96875 C 25.328125 0.96875 20.882812 -0.160156 16.90625 -2.421875 C 12.9375 -4.679688 9.769531 -7.832031 7.40625 -11.875 C 5.050781 -15.914062 3.875 -20.582031 3.875 -25.875 C 3.875 -31.175781 5.050781 -35.84375 7.40625 -39.875 C 9.769531 -43.914062 12.9375 -47.082031 16.90625 -49.375 C 20.882812 -51.675781 25.328125 -52.828125 30.234375 -52.828125 C 35.148438 -52.828125 39.59375 -51.675781 43.5625 -49.375 C 47.539062 -47.082031 50.707031 -43.914062 53.0625 -39.875 C 55.425781 -35.84375 56.609375 -31.175781 56.609375 -25.875 Z M 44.96875 -25.875 C 44.96875 -29.175781 44.304688 -32.035156 42.984375 -34.453125 C 41.660156 -36.878906 39.882812 -38.769531 37.65625 -40.125 C 35.425781 -41.476562 32.953125 -42.15625 30.234375 -42.15625 C 27.523438 -42.15625 25.054688 -41.476562 22.828125 -40.125 C 20.597656 -38.769531 18.816406 -36.878906 17.484375 -34.453125 C 16.160156 -32.035156 15.5 -29.175781 15.5 -25.875 C 15.5 -22.644531 16.160156 -19.816406 17.484375 -17.390625 C 18.816406 -14.972656 20.597656 -13.082031 22.828125 -11.71875 C 25.054688 -10.363281 27.523438 -9.6875 30.234375 -9.6875 C 32.953125 -9.6875 35.425781 -10.363281 37.65625 -11.71875 C 39.882812 -13.082031 41.660156 -14.972656 42.984375 -17.390625 C 44.304688 -19.816406 44.96875 -22.644531 44.96875 -25.875 Z M 31.703125 -66.578125 L 24.234375 -60.375 C 23.398438 -59.664062 22.707031 -59.101562 22.15625 -58.6875 C 21.601562 -58.269531 20.710938 -58.0625 19.484375 -58.0625 C 18.648438 -58.0625 17.957031 -58.300781 17.40625 -58.78125 C 16.851562 -59.269531 16.578125 -59.835938 16.578125 -60.484375 C 16.578125 -60.992188 16.640625 -61.457031 16.765625 -61.875 C 16.898438 -62.300781 17.226562 -62.835938 17.75 -63.484375 L 22.5 -69.5 C 23.976562 -71.363281 25.945312 -72.296875 28.40625 -72.296875 L 31.890625 -72.296875 C 33.179688 -72.296875 34.195312 -72.101562 34.9375 -71.71875 C 35.6875 -71.332031 36.414062 -70.59375 37.125 -69.5 L 41.390625 -63.484375 C 41.910156 -62.835938 42.234375 -62.300781 42.359375 -61.875 C 42.492188 -61.457031 42.5625 -60.992188 42.5625 -60.484375 C 42.5625 -59.835938 42.300781 -59.269531 41.78125 -58.78125 C 41.257812 -58.300781 40.546875 -58.0625 39.640625 -58.0625 C 38.421875 -58.0625 37.550781 -58.269531 37.03125 -58.6875 C 36.507812 -59.101562 35.800781 -59.664062 34.90625 -60.375 L 26.75 -67.546875 Z M 43.515625 -65.8125 C 43.003906 -65.8125 42.34375 -66.082031 41.53125 -66.625 C 40.726562 -67.175781 40.359375 -67.96875 40.421875 -69 C 40.421875 -69.582031 40.613281 -70.195312 41 -70.84375 L 46.625 -80.734375 C 47.207031 -81.765625 47.945312 -82.664062 48.84375 -83.4375 C 49.75 -84.21875 50.785156 -84.609375 51.953125 -84.609375 C 53.765625 -84.609375 55.085938 -84.140625 55.921875 -83.203125 C 56.765625 -82.265625 57.15625 -81.117188 57.09375 -79.765625 C 57.019531 -79.117188 56.835938 -78.4375 56.546875 -77.71875 C 56.265625 -77.007812 55.832031 -76.300781 55.25 -75.59375 L 47.875 -67.453125 C 47.226562 -66.742188 46.515625 -66.289062 45.734375 -66.09375 C 44.960938 -65.90625 44.222656 -65.8125 43.515625 -65.8125 Z M 43.515625 -65.8125 "/></g></g></g><g fill="#3bb77e" fill-opacity="1"><g transform="translate(1361.850686, 575.705183)"><g><path d="M 6.875 -50.890625 L 29.859375 -50.890625 C 31.398438 -50.890625 32.6875 -50.367188 33.71875 -49.328125 C 34.757812 -48.296875 35.28125 -47.003906 35.28125 -45.453125 C 35.28125 -43.972656 34.757812 -42.726562 33.71875 -41.71875 C 32.6875 -40.71875 31.398438 -40.21875 29.859375 -40.21875 L 6.875 -40.21875 C 5.332031 -40.21875 4.039062 -40.734375 3 -41.765625 C 1.96875 -42.804688 1.453125 -44.101562 1.453125 -45.65625 C 1.453125 -47.132812 1.96875 -48.375 3 -49.375 C 4.039062 -50.382812 5.332031 -50.890625 6.875 -50.890625 Z M 17.25 -63 C 18.925781 -63 20.296875 -62.429688 21.359375 -61.296875 C 22.429688 -60.171875 22.96875 -58.769531 22.96875 -57.09375 L 22.96875 -13.953125 C 22.96875 -13.046875 23.144531 -12.300781 23.5 -11.71875 C 23.851562 -11.144531 24.335938 -10.726562 24.953125 -10.46875 C 25.566406 -10.207031 26.226562 -10.078125 26.9375 -10.078125 C 27.71875 -10.078125 28.429688 -10.222656 29.078125 -10.515625 C 29.722656 -10.804688 30.46875 -10.953125 31.3125 -10.953125 C 32.207031 -10.953125 33.023438 -10.53125 33.765625 -9.6875 C 34.515625 -8.851562 34.890625 -7.691406 34.890625 -6.203125 C 34.890625 -4.390625 33.90625 -2.898438 31.9375 -1.734375 C 29.96875 -0.578125 27.851562 0 25.59375 0 C 24.226562 0 22.722656 -0.109375 21.078125 -0.328125 C 19.429688 -0.554688 17.878906 -1.109375 16.421875 -1.984375 C 14.972656 -2.859375 13.765625 -4.195312 12.796875 -6 C 11.828125 -7.8125 11.34375 -10.300781 11.34375 -13.46875 L 11.34375 -57.09375 C 11.34375 -58.769531 11.90625 -60.171875 13.03125 -61.296875 C 14.164062 -62.429688 15.570312 -63 17.25 -63 Z M 17.25 -63 "/></g></g></g></svg>